<svg width="325" height="296" viewBox="0 0 325 296" fill="none" xmlns="http://www.w3.org/2000/svg">
<path d="M240.105 288.379C257.266 288.379 271.177 279.301 271.177 268.102C271.177 256.903 257.266 247.825 240.105 247.825C222.945 247.825 209.033 256.903 209.033 268.102C209.033 279.301 222.945 288.379 240.105 288.379Z" fill="#16110D"/>
<path d="M164.273 266.906C171.363 266.906 177.11 263.158 177.11 258.535C177.11 253.911 171.363 250.163 164.273 250.163C157.184 250.163 151.437 253.911 151.437 258.535C151.437 263.158 157.184 266.906 164.273 266.906Z" fill="#16110D"/>
<path d="M198.967 249.613C210.848 249.613 220.479 243.328 220.479 235.575C220.479 227.821 210.848 221.536 198.967 221.536C187.086 221.536 177.455 227.821 177.455 235.575C177.455 243.328 187.086 249.613 198.967 249.613Z" fill="#16110D"/>
<path d="M297.152 188.19C305.931 188.19 313.049 183.545 313.049 177.815C313.049 172.085 305.931 167.439 297.152 167.439C288.372 167.439 281.255 172.085 281.255 177.815C281.255 183.545 288.372 188.19 297.152 188.19Z" fill="#16110D"/>
<path d="M14.1835 249.086C19.4454 249.086 23.711 246.302 23.711 242.869C23.711 239.436 19.4454 236.652 14.1835 236.652C8.9216 236.652 4.65601 239.436 4.65601 242.869C4.65601 246.302 8.9216 249.086 14.1835 249.086Z" fill="#16110D"/>
<path d="M136.198 282.431C136.198 285.718 131.747 288.379 126.261 288.379C120.775 288.379 116.334 285.718 116.334 282.431C116.334 279.145 120.786 276.484 126.261 276.484C131.757 276.484 136.198 279.145 136.198 282.431Z" fill="#16110D"/>
<path d="M13.5153 244.69C9.01018 244.69 5.01166 246.144 3.02856 248.224C6.91931 252.275 14.1619 255.001 22.4715 255.001C22.6224 255.001 22.7733 254.99 22.9242 254.99C24.4331 253.902 25.3384 252.576 25.3384 251.143C25.3384 247.642 19.928 244.69 13.5153 244.69Z" fill="url(#paint0_linear_87_120)"/>
<path d="M22.4715 227.914C10.0664 227.914 0 233.98 0 241.457C0 242.858 0.355664 244.216 1.0131 245.487C3.73986 242.944 8.27726 241.307 13.5152 241.307C22.0404 241.307 28.7225 245.627 28.7225 251.143C28.7225 252.372 28.3776 253.535 27.7633 254.613C37.6141 253.18 44.943 247.846 44.943 241.468C44.943 233.98 34.8874 227.914 22.4715 227.914Z" fill="url(#paint1_linear_87_120)"/>
<path d="M323.104 164.52C321.099 164.002 318.89 163.701 316.584 163.701C307.886 163.701 300.536 167.816 300.536 172.697C300.536 177.578 307.886 181.693 316.584 181.693C317.78 181.693 318.944 181.607 320.076 181.467C325.26 176.533 326.488 170.359 323.104 164.52Z" fill="url(#paint2_linear_87_120)"/>
<path d="M297.162 172.697C297.162 165.759 305.698 160.318 316.595 160.318C317.759 160.318 318.879 160.393 319.979 160.512C318.89 159.413 317.64 158.346 316.174 157.322C296.645 143.607 268.849 157.538 268.849 157.538L246.96 164.099C246.96 164.099 250.57 190.28 286.137 191.045C298.725 191.315 308.598 188.88 315.247 185.023C304.998 184.602 297.162 179.345 297.162 172.697Z" fill="url(#paint3_linear_87_120)"/>
<path d="M204.377 263.577C211.307 267.876 220.91 270.677 231.623 271.043C228.045 266.399 219.854 263.06 210.596 263.06C208.451 263.049 206.371 263.243 204.377 263.577Z" fill="url(#paint4_linear_87_120)"/>
<path d="M189.375 271.323C205.66 274.06 208.182 281.612 219.132 288.379C227.484 286.396 233.552 281.623 233.552 276.215C233.552 275.622 233.455 275.04 233.315 274.458C219.951 274.329 208.009 270.526 200.044 264.6C195.27 266.055 191.455 268.446 189.375 271.323Z" fill="url(#paint5_linear_87_120)"/>
<path d="M142.912 279.824C136.262 279.824 130.636 282.906 130.636 286.547C130.636 288.594 132.404 290.447 135.12 291.697C142.416 289.812 147.579 286.127 152.396 282.345C150.133 280.815 146.684 279.824 142.912 279.824Z" fill="url(#paint6_linear_87_120)"/>
<path d="M235.675 271.054C257.382 270.537 274.766 260.032 274.766 247.189C274.766 234.023 256.476 223.303 234.005 223.303C211.533 223.303 193.244 234.023 193.244 247.189C193.244 252.275 195.97 256.983 200.605 260.862C203.676 260.097 207.039 259.666 210.596 259.666C222.494 259.676 232.302 264.385 235.675 271.054Z" fill="url(#paint7_linear_87_120)"/>
<path d="M286.665 232.73C260.712 203.231 196.768 194.698 196.768 194.698L67.0371 240.865C67.0371 240.865 52.3578 278.607 108.262 291.051C117.326 293.066 124.471 293.378 130.345 292.613C128.405 290.932 127.263 288.842 127.263 286.536C127.263 280.869 134.139 276.43 142.912 276.43C147.913 276.43 152.299 277.874 155.145 280.169C162.085 274.685 169.048 269.686 181.625 270.461C183.059 270.548 184.384 270.677 185.656 270.817C187.65 267.068 191.681 263.965 196.962 261.993C192.479 257.726 189.87 252.652 189.87 247.2C189.87 232.17 209.669 219.931 234.005 219.931C258.341 219.931 278.15 232.159 278.15 247.2C278.15 261.659 259.839 273.521 236.786 274.405C236.883 274.997 236.937 275.601 236.937 276.204C236.937 282.539 231.526 287.937 223.389 290.728C226.482 292.247 230.028 294.509 234.781 294.973C273.71 298.722 312.617 262.23 286.665 232.73ZM136.197 274.62C118.856 274.62 104.748 265.818 104.748 255.001C104.748 244.183 118.856 235.381 136.197 235.381C153.539 235.381 167.647 244.183 167.647 255.001C167.658 265.818 153.539 274.62 136.197 274.62Z" fill="url(#paint8_linear_87_120)"/>
<path d="M136.197 238.753C120.721 238.753 108.122 246.036 108.122 254.99C108.122 263.943 120.71 271.226 136.197 271.226C151.674 271.226 164.273 263.943 164.273 254.99C164.273 246.047 151.685 238.753 136.197 238.753Z" fill="url(#paint9_linear_87_120)"/>
<path d="M120.031 64.2876H89.5195V148.757H89.5303C89.5842 149.5 90.1446 150.276 91.2009 150.89L101.084 156.6C103.121 157.775 106.203 157.904 107.971 156.88L118.846 150.599C119.697 150.114 120.074 149.446 120.02 148.757H120.031V64.2876Z" fill="#C6E9CD"/>
<path d="M104.975 158.141C103.53 158.141 102.011 157.785 100.804 157.085L90.9205 151.375C89.9505 150.815 89.3039 150.103 89.0668 149.317H88.9698L88.959 148.757V63.7273H120.592L120.548 149.328C120.408 150.028 119.913 150.642 119.126 151.095L108.251 157.376C107.367 157.882 106.193 158.141 104.975 158.141ZM90.0906 148.66L90.1014 148.724C90.1445 149.306 90.6511 149.92 91.4917 150.405L101.375 156.115C103.218 157.182 106.117 157.311 107.701 156.396L118.576 150.114C119.007 149.866 119.514 149.435 119.471 148.8L119.428 148.196H119.481V64.8478H90.0906V148.66Z" fill="black"/>
<path d="M118.856 66.13L107.982 72.4113C106.214 73.4349 103.132 73.3056 101.095 72.1312L91.2116 66.4209C89.1746 65.2465 88.9483 63.4688 90.7158 62.4453L101.591 56.164C103.358 55.1404 106.44 55.2697 108.477 56.4441L118.361 62.1544C120.398 63.3395 120.613 65.1173 118.856 66.13Z" fill="#C6E9CD"/>
<path d="M118.361 66.0977L108.478 60.3874C106.441 59.2131 103.358 59.0838 101.591 60.1073L90.7159 66.3886C90.468 66.5287 90.2632 66.6903 90.1016 66.8627V69.4593C90.3818 69.7825 90.7374 70.0842 91.2117 70.3643L101.095 76.0746C103.132 77.249 106.214 77.3782 107.982 76.3547L118.856 70.0734C120.613 69.0606 120.398 67.2829 118.361 66.0977Z" fill="url(#paint10_linear_87_120)"/>
<path d="M104.975 73.672C103.53 73.672 102.011 73.3165 100.804 72.6162L90.9206 66.9059C89.6703 66.184 88.9482 65.182 88.9482 64.1692C88.9482 63.2858 89.4764 62.4992 90.4248 61.9605L101.299 55.6792C103.25 54.5587 106.516 54.6772 108.747 55.9594L118.63 61.6696C119.88 62.3915 120.602 63.3935 120.602 64.4063C120.602 65.2897 120.074 66.0763 119.126 66.615L108.251 72.8963C107.367 73.4134 106.193 73.672 104.975 73.672ZM104.565 56.0455C103.541 56.0455 102.571 56.2395 101.86 56.6489L90.9852 62.9302C90.5649 63.1672 90.0799 63.5767 90.0799 64.1692C90.0799 64.7726 90.5864 65.419 91.481 65.9254L101.364 71.6357C103.207 72.7023 106.106 72.8316 107.691 71.9158L118.565 65.6345C118.975 65.3975 119.471 64.9881 119.471 64.3955C119.471 63.7921 118.964 63.1457 118.07 62.6393L108.186 56.929C107.163 56.3472 105.826 56.0455 104.565 56.0455Z" fill="black"/>
<path d="M104.975 73.6719V158.141L111.193 155.674L120.548 149.328L120.042 65.2573L109.695 71.3555L104.975 73.6719Z" fill="#16110D"/>
<path d="M101.106 106.555L95.2102 103.15C94.5959 102.794 94.1001 101.846 94.1001 101.038V86.3855C94.1001 85.5666 94.5959 85.2003 95.2102 85.5451L101.106 88.9497C101.72 89.3053 102.216 90.2534 102.216 91.0614V105.714C102.216 106.522 101.72 106.899 101.106 106.555Z" fill="url(#paint11_linear_87_120)"/>
<path d="M99.7152 104.529L93.9814 101.221C93.1192 100.726 92.4294 99.5192 92.4294 98.5279V83.6704C92.4294 82.6792 93.13 82.2805 93.9814 82.7762L99.7152 86.0838C100.577 86.5794 101.267 87.7861 101.267 88.7773V103.635C101.267 104.626 100.567 105.025 99.7152 104.529ZM93.9814 83.6165C93.5288 83.358 93.1623 83.5627 93.1623 84.0906V98.9481C93.1623 99.4761 93.5288 100.112 93.9814 100.37L99.7152 103.678C100.168 103.937 100.534 103.732 100.534 103.204V88.3572C100.534 87.8292 100.168 87.1936 99.7152 86.935L93.9814 83.6165Z" fill="#16110D"/>
<path d="M97.1716 92.4729L96.5142 92.0958C95.4041 91.4493 94.4988 89.7255 94.4988 88.2387C94.4988 86.7518 95.4041 86.0731 96.5142 86.7087L97.1716 87.0858C98.2817 87.7323 99.1871 89.4561 99.1871 90.943C99.1871 92.4406 98.2925 93.1193 97.1716 92.4729Z" fill="#C6E9CD"/>
<path d="M96.8591 92.7204L96.8267 92.6988C95.3394 91.8369 94.1323 89.7467 94.1323 88.0336C94.1323 86.3206 95.3394 85.6202 96.8267 86.4822C98.3464 87.3656 99.5535 89.4558 99.5535 91.1689C99.5535 92.882 98.3464 93.5823 96.8591 92.7204ZM96.8591 87.3333C95.7382 86.6869 94.8544 87.1933 94.8544 88.4431C94.8544 89.6929 95.7382 91.2228 96.816 91.8477L96.8483 91.8692C97.9369 92.4941 98.8098 91.9878 98.8098 90.738C98.8206 89.4882 97.9476 87.9582 96.8591 87.3333Z" fill="#16110D"/>
<path d="M98.7452 100.898L94.9407 98.7C94.6928 98.5599 94.4988 98.1828 94.4988 97.8488V93.8732C94.4988 93.55 94.6928 93.3991 94.9407 93.5392L98.7452 95.7371C98.9931 95.8772 99.1871 96.2543 99.1871 96.5883V100.564C99.1871 100.887 98.9931 101.038 98.7452 100.898Z" fill="#C6E9CD"/>
<path d="M98.7128 101.307L94.973 99.1526C94.5096 98.8832 94.1323 98.226 94.1323 97.6873V93.6255C94.1323 93.0868 94.5096 92.8713 94.973 93.1406L98.7128 95.2954C99.1763 95.5648 99.5535 96.222 99.5535 96.7607V100.823C99.5535 101.351 99.1763 101.577 98.7128 101.307ZM94.973 93.981C94.9083 93.9487 94.8652 93.9702 94.8652 94.0456V98.1075C94.8652 98.1829 94.9191 98.2691 94.973 98.3014L98.7128 100.456C98.7775 100.489 98.8206 100.467 98.8206 100.392V96.3298C98.8206 96.2544 98.7667 96.1682 98.7128 96.1358L94.973 93.981Z" fill="#16110D"/>
<path d="M110.428 156.331C110.083 156.331 109.76 156.245 109.469 156.072C108.704 155.631 108.273 154.672 108.273 153.433V90.2102C108.273 88.0446 109.566 85.5988 111.215 84.6507L115.052 82.442C115.871 81.968 116.69 81.9141 117.358 82.302C118.124 82.7437 118.555 83.7026 118.555 84.9416V148.164C118.555 150.33 117.261 152.775 115.612 153.724L111.775 155.932C111.312 156.191 110.849 156.331 110.428 156.331ZM116.367 83.1639C116.087 83.1639 115.806 83.2824 115.591 83.4117L111.754 85.6204C110.471 86.3638 109.383 88.4648 109.383 90.2102V153.433C109.383 154.241 109.62 154.866 110.019 155.092C110.396 155.318 110.87 155.135 111.193 154.952L115.03 152.743C116.313 152 117.401 149.899 117.401 148.153V84.9308C117.401 84.1228 117.164 83.4979 116.766 83.2716C116.647 83.1962 116.507 83.1639 116.367 83.1639Z" fill="#C6E9CD"/>
<path d="M98.7465 148.065C97.2197 145.272 90.1721 142.518 89.2649 142.183C88.3576 141.849 85.5695 141.357 86.3772 145.626C87.1849 149.884 91.5661 152.107 91.5551 153.169C91.544 154.241 90.3491 155.609 90.1057 156.386C89.7406 157.605 90.4929 158.48 91.8538 158.254C93.2146 158.028 98.0274 153.356 98.8572 151.733C99.7091 150.111 99.2776 149.038 98.7465 148.065Z" fill="#C6E9CD"/>
<path d="M99.2663 147.849C97.5736 144.751 89.8179 141.839 89.497 141.711C88.6783 141.406 87.4945 141.288 86.6536 141.888C85.7464 142.538 85.4587 143.816 85.8238 145.714C85.9234 146.216 86.0783 146.678 86.2553 147.131C86.2553 147.534 86.2996 147.996 86.3991 148.547C86.9413 151.409 89.0876 153.337 90.4374 154.625C90.3489 154.773 90.2604 154.93 90.1719 155.068C89.9064 155.52 89.674 155.904 89.5634 156.258C89.32 157.055 89.4749 157.782 89.9727 158.264C90.1166 158.402 90.2825 158.5 90.4706 158.589C90.3157 158.855 90.194 159.1 90.1276 159.297C89.7625 160.517 90.5149 161.392 91.8757 161.166C93.2366 160.94 98.0493 156.268 98.8791 154.645C99.3881 153.661 99.4212 152.875 99.2553 152.196C99.3106 152.107 99.3659 152.019 99.3991 151.95C100.351 150.111 99.8306 148.862 99.2663 147.849ZM87.3727 142.685C87.583 142.538 87.8596 142.488 88.1251 142.488C88.4791 142.488 88.8221 142.577 89.0544 142.656C91.6987 143.639 97.0315 146.088 98.2374 148.291C98.6357 149.019 98.9455 149.767 98.6357 150.799C96.9098 148.075 90.1608 145.419 89.2757 145.095C88.7668 144.908 87.6493 144.672 86.9191 145.272C86.7089 143.964 86.8638 143.049 87.3727 142.685ZM90.8247 157.566C90.6034 157.35 90.5481 156.966 90.6808 156.524C90.7583 156.287 90.9685 155.933 91.1898 155.55C91.2119 155.52 91.223 155.491 91.2451 155.461C91.4442 155.707 91.5659 155.914 91.5659 156.091C91.5549 156.583 91.3004 157.133 91.0127 157.664C90.9464 157.625 90.8689 157.605 90.8247 157.566Z" fill="#16110D"/>
<path d="M291.068 180.354C291.068 180.354 285.78 184.072 275.092 178.112C264.405 172.152 255.598 172.525 249.723 176.066C243.848 179.607 254.204 148.114 254.691 147.366C255.177 146.619 275.092 130.036 276.973 130.036C278.865 130.036 300.661 149.235 300.661 149.235L291.068 180.354Z" fill="#C6E9CD"/>
<path d="M286.167 182.026C283.435 182.026 279.651 181.259 274.783 178.545C265.356 173.283 256.572 172.555 250.055 176.489C249.015 177.109 248.373 176.804 248.086 176.558C244.789 173.834 254.049 147.327 254.193 147.111C254.304 146.934 274.528 129.525 276.984 129.525C278.898 129.525 294.476 143.049 301.081 148.871L301.325 149.088L291.589 180.669L291.445 180.777C291.29 180.856 289.553 182.026 286.167 182.026ZM259.515 172.968C263.752 172.968 269.052 174.148 275.391 177.679C284.674 182.853 289.675 180.541 290.56 180.04L300.008 149.383C291.821 142.183 278.522 130.882 276.918 130.548C275.037 130.892 256.085 146.511 255.167 147.642C253.994 149.894 246.692 174.168 248.86 175.81C248.927 175.86 249.148 175.791 249.391 175.633C251.493 174.374 254.868 172.968 259.515 172.968Z" fill="#16110D"/>
<path d="M153.136 251.966C153.136 251.966 147.847 255.684 137.16 249.724C126.472 243.764 117.665 244.137 111.79 247.678C105.915 251.219 116.271 219.726 116.758 218.978C117.245 218.231 137.16 201.648 139.041 201.648C140.921 201.648 162.728 220.847 162.728 220.847L153.136 251.966Z" fill="#C6E9CD"/>
<path d="M148.246 253.638C145.524 253.638 141.729 252.871 136.861 250.157C127.435 244.895 118.65 244.167 112.122 248.101C111.094 248.721 110.441 248.416 110.153 248.17C106.867 245.455 116.117 218.939 116.26 218.713C116.371 218.536 136.596 201.127 139.052 201.127C140.966 201.127 156.544 214.651 163.149 220.473L163.392 220.69L153.656 252.271L153.512 252.379C153.368 252.458 151.62 253.638 148.246 253.638ZM121.582 244.57C125.819 244.57 131.119 245.74 137.459 249.281C146.675 254.425 151.731 252.143 152.627 251.642L162.076 220.985C153.888 213.785 140.59 202.484 138.985 202.15C137.105 202.494 118.152 218.113 117.234 219.244C116.061 221.496 108.759 245.77 110.928 247.412C110.994 247.462 111.215 247.393 111.459 247.235C113.561 245.977 116.946 244.57 121.582 244.57Z" fill="#16110D"/>
<path d="M129.039 272.778C129.039 272.778 123.054 272.827 116.548 269.188C110.054 265.559 106.745 263.739 104.831 261.595C102.917 259.451 115.088 240.764 115.088 240.764L123.95 228.45C123.95 228.45 137.713 232.817 143.909 238.659C150.093 244.501 136.242 260.73 136.242 260.73L129.039 272.778Z" fill="#C6E9CD"/>
<path d="M148.357 245.829C147.914 242.455 146.509 239.879 144.351 238.334C144.34 238.325 144.329 238.305 144.318 238.295C138.1 232.433 124.702 228.135 124.138 227.958L123.706 227.82L114.579 240.498C111.68 244.954 102.375 259.658 104.378 261.9C106.292 264.044 109.423 265.795 115.641 269.277L116.238 269.611C120.42 271.952 124.348 272.798 126.727 273.103C127.335 273.23 127.955 273.299 128.597 273.299C128.718 273.299 128.84 273.29 128.962 273.28C128.973 273.28 129.006 273.28 129.017 273.28C129.028 273.28 129.039 273.28 129.039 273.28H129.382L129.393 273.26C131.606 273.083 133.963 272.208 136.33 270.644C144.097 265.52 149.485 254.386 148.357 245.829ZM116.26 268.421C110.142 265.008 107.077 263.287 105.285 261.28C104.256 260.12 109.832 249.871 115.575 241.049L124.193 229.079C126.229 229.758 134.991 232.827 140.866 236.918C138.045 236.456 134.837 237.311 131.639 239.426C123.872 244.57 118.484 255.704 119.602 264.251C120 267.31 121.195 269.709 123.009 271.283C121.162 270.762 119.037 269.975 116.858 268.755L116.26 268.421Z" fill="#16110D"/>
<path d="M130.112 268.313C129.282 268.313 128.497 268.175 127.745 267.89C125.399 266.995 123.883 264.782 123.474 261.674C122.655 255.487 126.572 247.422 132.192 243.694C135.013 241.826 137.868 241.285 140.213 242.19C142.559 243.085 144.075 245.298 144.484 248.406C145.303 254.592 141.386 262.657 135.766 266.385C133.83 267.663 131.893 268.313 130.112 268.313ZM137.846 242.799C136.308 242.799 134.604 243.39 132.878 244.53C127.556 248.061 123.85 255.704 124.625 261.565C124.979 264.3 126.251 266.208 128.209 266.955C130.156 267.703 132.602 267.211 135.08 265.568C140.402 262.038 144.108 254.395 143.333 248.534C142.979 245.799 141.707 243.891 139.749 243.144C139.151 242.908 138.521 242.799 137.846 242.799Z" fill="#C6E9CD"/>
<path d="M130.112 268.303C128.796 268.303 127.568 267.949 126.528 267.24L125.521 266.395L126.848 266.316C128.298 266.237 129.891 265.637 131.462 264.605C136.784 261.074 140.49 253.432 139.716 247.57C139.428 245.357 138.521 243.675 137.116 242.711L136.054 241.983L137.436 241.786C141.254 241.58 143.931 244.108 144.495 248.406C145.314 254.592 141.397 262.657 135.777 266.385C133.852 267.654 131.894 268.303 130.112 268.303ZM128.596 267.073C130.466 267.624 132.745 267.113 135.08 265.568C140.402 262.038 144.108 254.395 143.334 248.534C142.924 245.445 141.298 243.409 138.963 242.917C139.959 244.049 140.612 245.593 140.855 247.452C141.674 253.638 137.757 261.703 132.137 265.431C130.964 266.208 129.758 266.759 128.596 267.073Z" fill="#C6E9CD"/>
<path d="M139.174 252.674C139.561 255.566 137.735 259.333 135.102 261.074C132.469 262.814 130.024 261.88 129.648 258.988C129.261 256.087 131.086 252.33 133.719 250.589C136.341 248.838 138.786 249.782 139.174 252.674Z" fill="url(#paint12_linear_87_120)"/>
<path d="M264.825 203.655C264.825 203.655 258.84 203.704 252.334 200.065C245.84 196.436 242.532 194.616 240.618 192.472C238.704 190.328 250.863 171.64 250.863 171.64L259.725 159.326C259.725 159.326 273.488 163.693 279.684 169.536C285.869 175.378 272.017 191.606 272.017 191.606L264.825 203.655Z" fill="#C6E9CD"/>
<path d="M284.154 176.715C283.711 173.342 282.306 170.765 280.149 169.221C280.138 169.211 280.126 169.191 280.115 169.182C273.898 163.32 260.499 159.022 259.935 158.844L259.504 158.707L250.376 171.385C247.477 175.84 238.172 190.544 240.175 192.787C242.089 194.931 245.22 196.681 251.438 200.163L252.035 200.498C256.218 202.838 260.145 203.684 262.524 203.989C263.132 204.117 263.752 204.186 264.394 204.186C264.515 204.186 264.637 204.176 264.759 204.166C264.77 204.166 264.803 204.166 264.814 204.166C264.825 204.166 264.836 204.166 264.836 204.166H265.179L265.19 204.146C267.403 203.969 269.76 203.094 272.127 201.53C279.883 196.396 285.282 185.262 284.154 176.715ZM252.047 199.298C245.939 195.885 242.864 194.164 241.071 192.157C240.042 190.996 245.618 180.748 251.361 171.926L259.979 159.956C262.015 160.635 270.778 163.703 276.652 167.795C273.831 167.332 270.623 168.188 267.425 170.303C259.658 175.447 254.27 186.58 255.388 195.127C255.797 198.186 256.981 200.586 258.795 202.16C256.948 201.638 254.824 200.852 252.644 199.632L252.047 199.298Z" fill="#16110D"/>
<path d="M265.898 199.199C265.069 199.199 264.283 199.062 263.531 198.776C261.185 197.881 259.669 195.668 259.26 192.56C258.441 186.374 262.358 178.309 267.978 174.581C270.8 172.712 273.654 172.172 276 173.076C278.345 173.971 279.861 176.184 280.27 179.292C281.089 185.479 277.172 193.544 271.552 197.272C269.627 198.54 267.691 199.199 265.898 199.199ZM273.632 173.676C272.094 173.676 270.39 174.266 268.664 175.407C263.343 178.938 259.636 186.58 260.411 192.442C260.765 195.177 262.037 197.085 263.995 197.832C265.943 198.58 268.388 198.088 270.866 196.445C276.188 192.914 279.894 185.272 279.12 179.41C278.766 176.676 277.493 174.768 275.535 174.021C274.949 173.785 274.307 173.676 273.632 173.676Z" fill="#C6E9CD"/>
<path d="M265.898 199.179C264.582 199.179 263.354 198.825 262.314 198.117L261.307 197.271L262.635 197.193C264.084 197.114 265.677 196.514 267.248 195.481C272.57 191.95 276.276 184.308 275.502 178.446C275.214 176.233 274.307 174.552 272.902 173.588L271.84 172.86L273.223 172.663C277.04 172.457 279.717 174.984 280.281 179.282C281.1 185.469 277.183 193.534 271.563 197.262C269.638 198.54 267.68 199.179 265.898 199.179ZM264.383 197.95C266.252 198.501 268.532 197.989 270.866 196.445C276.188 192.914 279.894 185.272 279.12 179.41C278.71 176.322 277.084 174.286 274.749 173.794C275.745 174.925 276.398 176.469 276.641 178.328C277.46 184.515 273.543 192.58 267.923 196.307C266.761 197.084 265.555 197.645 264.383 197.95Z" fill="#C6E9CD"/>
<path d="M274.96 183.551C275.347 186.453 273.522 190.21 270.888 191.951C268.255 193.691 265.81 192.757 265.434 189.865C265.047 186.974 266.872 183.207 269.505 181.466C272.139 179.725 274.584 180.659 274.96 183.551Z" fill="url(#paint13_linear_87_120)"/>
<path d="M266.717 96.1629C244.047 84.5374 232.408 82.6589 232.408 82.6589C232.242 82.5113 232.01 82.472 231.733 82.6195L224.885 86.1406C224.885 86.1406 219.973 88.5011 208.024 88.5306C196.064 88.57 165.859 94.5991 143.212 107.188C120.564 119.778 104.444 136.38 93.2477 148.96C82.0511 161.539 81.2877 163.378 77.6366 166.053C73.9856 168.729 53.2188 182.115 40.7609 193.494C28.3031 204.874 22.9924 213.382 22.9924 214.975C22.9924 218.191 24.4307 219.843 24.4307 219.843L24.5303 228.479L22.9924 236.495C22.9924 236.495 22.9593 237.616 23.6452 238.285C23.6452 238.285 28.3031 245.317 48.0741 255.959C77.5149 271.794 100.317 277.656 100.317 277.656L113.019 241.708L180.165 195.973L287.639 131.511L300.606 128.197L308.693 121.755C308.682 121.735 289.387 107.788 266.717 96.1629Z" fill="#C6E9CD"/>
<path d="M267.558 99.9991C244.888 88.3736 233.249 86.4951 233.249 86.4951C233.083 86.3475 232.851 86.3082 232.574 86.4557L225.726 89.9768C225.726 89.9768 220.813 92.3373 208.865 92.3668C196.905 92.4061 166.7 98.4353 144.053 111.025C121.394 123.614 105.285 140.216 94.0885 152.796C82.8919 165.375 82.1285 167.214 78.4775 169.89C74.8264 172.565 54.0596 185.951 41.6018 197.331C29.1439 208.7 23.8333 217.218 23.8333 218.811C23.8333 222.027 25.2716 223.68 25.2716 223.68L25.3711 232.315L23.8333 240.331C23.8333 240.331 23.8001 241.452 24.486 242.121C24.486 242.121 29.1439 249.153 48.9149 259.795C68.5753 270.368 85.2706 276.496 94.1991 279.397C97.9608 280.617 102.099 278.807 103.305 275.414L125.255 232.856L180.995 199.809L288.469 135.348L301.435 132.033L303.792 130.155C306.801 127.755 306.613 123.516 303.383 121.342C295.926 116.296 282.472 107.641 267.558 99.9991Z" fill="url(#paint14_linear_87_120)"/>
<path d="M100.76 278.276L100.218 278.138C99.986 278.079 77.0064 272.07 47.8422 256.382C28.5359 245.996 23.5904 239.092 23.2252 238.551C22.4618 237.754 22.4729 236.593 22.4729 236.456L24.0108 228.371L23.9112 219.981C23.5461 219.49 22.4729 217.788 22.4729 214.955C22.4729 213.106 27.8942 204.54 40.4074 193.111C50.3427 184.043 65.7545 173.548 73.1673 168.513C75.1588 167.155 76.5971 166.182 77.3273 165.641C79.5733 163.998 80.6907 162.68 84.0098 158.795C85.9903 156.474 88.6898 153.297 92.8498 148.625C104.367 135.692 120.476 119.237 142.958 106.736C166.657 93.5666 197.071 88.039 208.079 87.9997C219.708 87.9702 224.62 85.6884 224.675 85.6687L231.513 82.1575C231.933 81.9411 232.376 81.9509 232.73 82.1673C234.212 82.4328 245.674 84.7343 267.072 95.7107C289.52 107.228 308.915 121.184 309.114 121.322L309.634 121.706L300.816 128.669L287.938 131.964L180.542 196.376L113.572 241.993L100.76 278.276ZM24.3759 238.236C25.3716 239.515 31.0142 246.134 48.4397 255.497C75.0039 269.778 96.3792 275.994 99.9971 276.997L112.588 241.373L112.732 241.275L179.878 195.54L287.451 131.02L300.374 127.715L307.853 121.755C304.6 119.444 286.798 107.021 266.496 96.6057C244.203 85.1769 232.497 83.1803 232.376 83.1607L232.199 83.1312L232.066 83.0131L225.239 86.5736C225.018 86.6818 220.05 89.0029 208.091 89.0324C197.193 89.0619 167.088 94.5501 143.577 107.612C121.24 120.024 105.219 136.39 93.7571 149.265C89.6081 153.927 86.9086 157.094 84.9281 159.415C81.5537 163.378 80.4141 164.716 78.0686 166.437C77.3162 166.988 75.8669 167.972 73.8643 169.339C66.4737 174.365 51.1061 184.83 41.2371 193.839C28.8678 205.13 23.6346 213.529 23.6346 214.965C23.6346 217.936 24.9401 219.499 24.9512 219.519L25.0729 219.657V219.834L25.1725 228.469L23.6346 236.574C23.6346 236.751 23.7231 237.518 24.1435 237.931L24.4091 238.197L24.3759 238.236Z" fill="#16110D"/>
<path d="M309.114 121.332C308.97 121.224 297.906 113.267 282.848 104.425C282.948 104.258 283.025 104.08 283.047 103.894C283.125 103.333 282.87 102.782 282.35 102.448L277.228 99.0251C274.219 97.0187 270.977 95.2581 267.58 93.8123L261.982 91.4223C261.506 91.2157 260.942 91.2649 260.511 91.5502C260.245 91.7272 260.079 91.9731 260.002 92.2485C243.14 84.2621 234.035 82.4229 232.729 82.1868C232.386 81.9704 231.933 81.9606 231.512 82.177L223.557 86.2587L224.774 86.6226C224.951 86.6718 242.587 92.0321 266.551 105.369C286.654 116.562 298.747 126.191 298.935 126.328L301.779 127.981L309.645 121.706L309.114 121.332ZM301.657 126.692L299.632 125.512C299.51 125.414 287.351 115.735 267.16 104.494C246.625 93.0648 230.682 87.4586 226.323 86.0226L232.11 83.0523L232.198 83.131L232.375 83.1605C232.475 83.1802 241.945 84.7834 260.101 93.4484L260.267 94.3336C260.378 94.8942 260.743 95.386 261.285 95.681L278.644 105.241C279.098 105.497 279.629 105.625 280.149 105.625C280.525 105.625 280.912 105.556 281.266 105.428L281.985 105.162C295.262 112.952 305.474 120.083 307.864 121.774L301.657 126.692Z" fill="#16110D"/>
<path d="M149.706 195.137C152.915 196.78 156.986 196.072 159.254 193.485C164.41 187.613 171.303 179.666 177.211 173.814C182.975 168.109 187.367 164.372 193.718 159.051C195.743 157.349 194.99 154.192 192.578 152.953L133.531 122.503C130.798 121.096 127.379 121.362 124.968 123.171C119.402 127.351 113.561 132.712 107.819 138.485C100.66 145.675 92.7497 154.979 88.6893 159.582C87.3173 161.136 87.8152 163.398 89.7403 164.382L149.706 195.137Z" fill="#C6E9CD"/>
<path d="M195.422 155.992C195.223 154.507 194.271 153.199 192.866 152.471L133.808 122.021C133.443 121.834 133.055 121.667 132.646 121.529L132.314 121.411L132.259 121.45C129.648 120.693 126.727 121.155 124.58 122.758C119.458 126.604 113.826 131.63 107.365 138.121C101.468 144.052 94.9958 151.468 90.7141 156.386C89.7737 157.458 88.9328 158.422 88.2137 159.238C87.4613 160.094 87.1626 161.195 87.3949 162.267C87.6273 163.339 88.3686 164.264 89.4307 164.805L149.397 195.57C150.636 196.209 152.008 196.514 153.368 196.514C155.769 196.514 158.137 195.56 159.697 193.79L161.191 192.088C166.136 186.453 172.288 179.44 177.631 174.149C183.252 168.582 187.6 164.864 194.094 159.415C194.858 158.776 195.311 157.91 195.422 156.956C195.466 156.641 195.466 156.317 195.422 155.992ZM193.309 158.638C186.792 164.107 182.433 167.834 176.78 173.431C171.513 178.643 165.561 185.41 160.737 190.928L100.804 160.182C100.03 159.789 99.4988 159.12 99.3217 158.343C99.1558 157.566 99.366 156.769 99.9192 156.15C100.638 155.333 101.49 154.36 102.431 153.278C106.701 148.38 113.152 140.974 119.026 135.082C123.883 130.204 128.42 126.024 132.535 122.65C132.768 122.739 133.011 122.827 133.243 122.945L192.302 153.396C193.375 153.947 194.139 154.999 194.294 156.15C194.327 156.386 194.327 156.622 194.305 156.848C194.205 157.546 193.873 158.166 193.309 158.638ZM158.801 193.17C156.721 195.541 152.926 196.2 149.994 194.695L90.0281 163.93C89.2537 163.536 88.7115 162.867 88.5456 162.09C88.3796 161.313 88.5898 160.517 89.143 159.897C89.8622 159.081 90.703 158.117 91.6434 157.035C95.9141 152.137 102.375 144.731 108.25 138.83C114.667 132.377 120.254 127.391 125.344 123.575C127.014 122.326 129.227 121.873 131.296 122.286C127.28 125.621 122.866 129.683 118.163 134.404C112.266 140.325 105.805 147.74 101.523 152.658C100.583 153.74 99.7422 154.704 99.0119 155.53C98.2596 156.386 97.9609 157.487 98.1932 158.559C98.4256 159.631 99.1668 160.556 100.229 161.097L160.04 191.783L158.801 193.17Z" fill="#16110D"/>
<path d="M260.422 126.623C267.746 125.187 273.964 124.469 278.058 124.46C281.72 124.45 284.718 124.214 287.13 123.909L287.23 123.84C287.23 123.84 267.791 110.69 249.757 101.936C231.723 93.173 224.963 90.8813 224.963 90.8813C222.363 91.2944 218.922 91.619 214.529 91.6288C210.668 91.6387 204.893 92.278 198.089 93.5664C197.325 93.7139 197.159 94.609 197.834 94.9532L260.146 126.604L260.422 126.623Z" fill="#C6E9CD"/>
<path d="M287.573 123.437C287.374 123.309 267.89 110.159 250.033 101.484C232.453 92.9468 225.195 90.3699 224.863 90.3699C221.809 90.8518 218.324 91.0977 214.529 91.1075C210.447 91.1174 204.561 91.8058 197.978 93.0549C197.392 93.1631 196.949 93.5762 196.861 94.1073C196.772 94.6286 197.049 95.1401 197.558 95.3958L259.869 127.046L260.478 127.145L260.522 127.135L260.577 127.145L260.666 127.125C267.569 125.768 273.953 124.991 278.169 124.971C278.899 124.971 279.585 124.951 280.26 124.932C280.415 124.932 280.558 124.922 280.713 124.922C280.879 124.912 281.045 124.912 281.2 124.902L282.86 124.843L282.826 124.823C284.353 124.735 285.814 124.597 287.208 124.41L287.363 124.391L288.148 123.82L287.573 123.437ZM278.058 123.948C273.721 123.958 267.459 124.725 260.433 126.102L203.134 96.9891C207.283 96.3793 210.878 96.0548 213.6 96.0449C217.395 96.0351 220.891 95.7892 223.978 95.3171C225.051 95.7007 232.187 98.3464 248.551 106.293C260.157 111.939 272.415 119.443 279.463 123.928C278.987 123.938 278.523 123.948 278.058 123.948ZM201.463 96.2023L198.122 94.5008C197.989 94.4319 197.978 94.3237 197.989 94.2647C198 94.2155 198.033 94.0975 198.199 94.068C204.716 92.8386 210.513 92.1599 214.518 92.1403C218.313 92.1304 221.809 91.8845 224.896 91.4124C225.969 91.796 233.106 94.4417 249.469 102.389C264.881 109.874 281.521 120.712 285.814 123.555C284.397 123.712 282.893 123.81 281.333 123.879C274.529 119.512 261.451 111.408 249.093 105.398C231.512 96.8613 224.255 94.2844 223.923 94.2844C220.858 94.7663 217.384 95.0122 213.589 95.022L201.463 96.2023Z" fill="#16110D"/>
<path d="M46.5469 218.447L48.6269 226.827C48.9477 228.42 49.9435 229.856 51.4039 230.82L53.3622 232.118C57.2788 234.725 58.2303 235.511 62.7222 237.252L66.506 238.718C68.3979 239.455 70.5222 239.603 72.5247 239.151L81.0217 237.056C82.8583 236.643 83.2345 234.459 81.6081 233.584L68.763 225.912C67.2141 225.066 65.6209 224.27 64.0056 223.522L49.2022 216.686C47.8413 216.087 46.2703 217.119 46.5469 218.447Z" fill="#C6E9CD"/>
<path d="M61.9256 227.84C61.4388 227.84 60.9631 227.722 60.5537 227.505L58.0312 226.187C57.301 225.804 56.8363 225.125 56.8031 224.368L56.3716 222.42C56.3163 221.653 56.6703 221.043 57.301 220.709C57.9205 220.384 58.684 220.384 59.3035 220.709L65.3776 223.915C66.0414 224.269 66.4176 224.909 66.3622 225.587C66.3069 226.276 65.8312 226.856 65.1231 227.122L62.8108 227.682C62.5895 227.781 62.2576 227.84 61.9256 227.84ZM58.2967 221.496C58.1529 221.496 58.0091 221.525 57.8874 221.594C57.6218 221.732 57.4891 221.988 57.5112 222.293L57.9427 224.25C57.9759 224.732 58.2193 225.096 58.6176 225.302L61.1401 226.62C61.5274 226.827 62.0584 226.866 62.4346 226.718L64.7469 226.158C64.9793 226.069 65.1895 225.814 65.2116 225.519C65.2337 225.223 65.0678 224.948 64.7912 224.801L58.7171 221.594C58.5844 221.535 58.4405 221.496 58.2967 221.496Z" fill="#16110D"/>
<path d="M84.7727 228.007L68.6306 218.929C67.0706 218.083 65.4552 217.277 63.8399 216.519L49.0365 209.684C48.2067 209.31 47.2331 209.379 46.4919 209.871C45.7506 210.362 45.3855 211.169 45.5514 212.005L45.5846 212.162C45.131 212.192 44.6774 212.32 44.3012 212.575C43.5599 213.067 43.1948 213.874 43.3608 214.69L45.4408 223.07C45.7948 224.801 46.857 226.335 48.4391 227.388L50.3974 228.686C54.3472 231.312 58.651 233.535 63.165 235.285L66.9489 236.751C68.1991 237.233 69.5488 237.479 70.9097 237.479C71.7284 237.479 72.5471 237.39 73.3548 237.203L81.8407 235.108C82.925 234.862 83.6995 234.105 83.8654 233.122C83.9097 232.895 83.8986 232.669 83.8654 232.443L84.0203 232.404C85.1046 232.158 85.879 231.4 86.045 230.417C86.211 229.453 85.7242 228.528 84.7727 228.007ZM82.7148 232.984C82.6373 233.426 82.2944 233.958 81.542 234.135L73.0561 236.23C71.1863 236.652 69.1837 236.505 67.4135 235.816L63.6297 234.351C59.1931 232.63 54.9778 230.446 51.0944 227.869L49.1361 226.571C47.7863 225.676 46.8791 224.368 46.5804 222.873L44.5004 214.503C44.4119 214.08 44.5999 213.667 44.9982 213.411C45.3965 213.146 45.8944 213.116 46.3259 213.313L61.1293 220.149C62.7335 220.896 64.3267 221.693 65.8425 222.519L81.9956 231.597C82.6373 231.941 82.7922 232.541 82.7148 232.984ZM84.9054 230.279C84.828 230.722 84.485 231.253 83.7327 231.43L83.5224 231.479C83.3012 231.125 82.9803 230.83 82.5931 230.623L66.4399 221.545C64.8799 220.699 63.2646 219.893 61.6493 219.136L46.8459 212.3C46.8348 212.29 46.8127 212.29 46.8016 212.28L46.6799 211.808C46.5914 211.375 46.7795 210.962 47.1667 210.707C47.565 210.441 48.0629 210.412 48.4944 210.608L63.2978 217.444C64.891 218.182 66.4842 218.978 68.011 219.814L84.1531 228.892H84.1641C84.8169 229.237 84.9718 229.837 84.9054 230.279Z" fill="#16110D"/>
<path d="M34.3444 199.72C31.0141 203.074 28.5469 205.985 26.8873 208.248C26.8873 208.287 26.6329 214.326 29.5095 216.745C31.3571 218.29 33.238 219.745 34.3554 220.591C35.0082 221.083 35.849 221.309 36.7009 221.22L38.438 221.043C39.7324 220.916 40.6618 219.883 40.518 218.732C40.1086 215.467 39.0686 209.034 36.9112 204.431C36.015 202.484 35.1299 200.94 34.3444 199.72Z" fill="#C6E9CD"/>
<path d="M33.6138 208.818C29.7857 208.553 28.8674 214.159 28.7014 215.555C29.0555 216.057 29.4316 216.519 29.675 216.736C31.5227 218.28 33.4035 219.736 34.521 220.581C34.7865 220.778 35.0852 220.926 35.4061 221.034C35.4061 221.024 36.258 213.608 34.9857 209.526C34.6206 209.103 34.1669 208.858 33.6138 208.818Z" fill="url(#paint15_linear_87_120)"/>
<path d="M41.0928 218.673C40.6613 215.27 39.6103 208.857 37.4528 204.235C36.6341 202.484 35.76 200.881 34.8528 199.465L34.4545 198.845L33.9235 199.386C30.1396 203.202 27.7498 206.163 26.4111 207.972L26.3226 208.09L26.3116 208.238C26.3005 208.494 26.0681 214.562 29.1218 217.129C30.9252 218.644 32.7618 220.07 33.9898 220.994C34.5098 221.388 35.1515 221.634 35.8264 221.722L35.9481 221.762V221.732C36.0809 221.742 36.2137 221.762 36.3575 221.762C36.5013 221.762 36.6341 221.752 36.7779 221.742L38.5149 221.565C40.1081 221.388 41.2698 220.09 41.0928 218.673ZM34.9524 220.188L34.9413 220.178C33.7354 219.263 31.9098 217.857 30.1175 216.352C29.686 215.988 28.7235 214.592 28.3141 213.864C28.4247 212.624 29.0554 209.31 30.7592 207.992C31.3124 207.559 31.9209 207.392 32.6179 207.431C32.972 207.461 33.2928 207.618 33.5805 207.923C35.3949 209.851 35.3064 216.382 34.9524 220.188ZM38.3711 220.522L36.6341 220.699C36.4349 220.719 36.2469 220.719 36.0588 220.689C36.269 218.575 36.966 209.92 34.4545 207.244C33.9677 206.723 33.3703 206.438 32.6954 206.389C31.6332 206.32 30.6928 206.615 29.8852 207.284C28.7124 208.248 28.0375 209.841 27.6392 211.228C27.4511 209.9 27.4401 208.779 27.4511 208.395C28.7124 206.694 30.8809 204.018 34.2332 200.596C34.9745 201.815 35.6937 203.163 36.3796 204.609C38.4928 209.123 39.5107 215.418 39.9422 218.772C40.0528 219.647 39.3447 220.424 38.3711 220.522Z" fill="#16110D"/>
<path d="M100.428 246.262C100.428 246.262 91.9313 249.704 88.6343 248.632C85.1381 247.491 82.0623 246.38 80.4138 245.544C78.4224 244.531 77.5483 241.255 78.5441 240.646C83.1577 237.833 101.634 235.305 107.476 235.177C111.016 235.108 112.643 235.384 114.037 235.876C114.944 236.2 116.028 236.977 114.291 238.295L100.428 246.262Z" fill="#C6E9CD"/>
<path d="M95.9585 247.786C95.9585 247.776 97.7619 244.747 97.441 242.337C96.9542 241.914 96.2904 241.58 95.3278 241.423C90.7806 240.685 85.4589 244.629 83.1687 246.566C84.7176 247.157 86.5874 247.806 88.601 248.465C90.3491 249.025 93.6904 248.553 95.9585 247.786Z" fill="url(#paint16_linear_87_120)"/>
<path d="M113.827 238.58C113.727 238.295 113.506 238.049 113.152 237.921C112.023 237.518 110.297 237.124 107.808 237.026C108.615 238.678 107.067 240.852 105.396 242.534C104.975 243.134 104.467 243.714 103.947 244.245L113.827 238.58Z" fill="url(#paint17_linear_87_120)"/>
<path d="M114.911 235.61C114.723 235.541 114.49 235.472 114.258 235.403H114.247C112.809 234.892 111.171 234.587 107.465 234.665C107.177 234.675 106.845 234.685 106.491 234.705H106.48C105.927 234.734 105.307 234.774 104.632 234.823L102.707 234.96L102.796 234.99C94.8409 235.777 82.0732 237.872 78.223 240.222C77.7584 240.508 77.526 241.068 77.5703 241.835C77.6367 243.271 78.6103 245.209 80.1371 245.986C81.6639 246.763 84.452 247.815 88.446 249.114C88.9439 249.281 89.5524 249.35 90.2162 249.35C91.3226 249.35 92.606 249.153 93.8894 248.868C94.6307 248.72 95.3498 248.543 95.9805 248.337C96.0358 248.327 96.08 248.307 96.1243 248.297C96.1464 248.287 96.1686 248.287 96.1907 248.278H96.2017C98.5694 247.589 100.506 246.812 100.672 246.743L102.608 245.632C102.608 245.632 102.619 245.622 102.63 245.612L102.663 245.593L115.143 238.413C115.729 238.108 116.061 237.537 116.006 236.937C115.951 236.337 115.53 235.826 114.911 235.61ZM106.502 242.15C107.708 240.793 108.704 239.219 108.615 237.793C108.56 236.957 108.162 236.249 107.409 235.688C107.432 235.688 107.465 235.688 107.498 235.688C110.507 235.619 112.543 235.983 113.849 236.367C114.291 236.534 114.601 236.75 114.634 236.957C114.678 237.183 114.413 237.527 113.981 237.862L113.008 238.423L106.502 242.15ZM95.5711 247.363C94.852 247.569 94.1217 247.756 93.4137 247.904C91.6877 248.228 89.8954 248.327 88.8332 247.983C85.8903 247.019 83.6111 246.202 82.0401 245.534C83.8213 243.97 89.5966 239.259 94.2656 240.026C95.4383 240.213 96.2017 240.665 96.6 241.412C97.5405 243.144 96.2571 246.133 95.5711 247.363ZM100.152 245.809C99.4324 246.094 98.3371 246.507 97.0758 246.91C97.7507 245.455 98.6468 242.888 97.6843 241.029C97.1311 239.947 96.0469 239.278 94.4869 239.022C88.7669 238.098 82.0622 244.029 80.8452 245.16C80.8009 245.14 80.7567 245.12 80.7124 245.101C79.5507 244.511 78.7762 242.927 78.7209 241.806C78.6988 241.304 78.8316 241.108 78.8758 241.078C82.9141 238.609 98.0273 236.347 105.296 235.816C106.58 236.249 107.288 236.849 107.443 237.655C107.874 239.996 103.681 243.566 102.01 244.766L100.152 245.809Z" fill="#16110D"/>
<path d="M312.754 150.386C312.532 147.14 310.862 145.635 310.209 145.173L308.472 128.069L309.512 122.807C309.645 122.119 309.457 121.539 309.003 121.253C308.649 121.027 308.195 121.027 307.775 121.244L300.938 124.755C300.893 124.775 295.97 127.056 284.342 127.086C273.333 127.115 242.919 132.643 219.22 145.822C196.727 158.323 180.619 174.778 169.112 187.711C164.952 192.383 162.242 195.56 160.272 197.881C156.953 201.776 155.836 203.084 153.59 204.727C152.848 205.268 151.41 206.251 149.43 207.599C142.017 212.644 126.605 223.129 116.67 232.197C115.928 232.876 115.309 233.486 114.711 234.095C114.269 234.548 113.826 234.981 113.34 235.443L112.587 236.151L113.66 236.308C114.612 236.446 115.054 236.702 115.143 236.879C115.22 237.046 115.054 237.312 114.933 237.459C111.846 241.452 109.401 244.088 106.79 246.252C105.285 247.491 103.847 248.288 102.574 248.986C99.6978 250.57 97.6178 251.711 98.8459 256.186C98.9123 256.432 98.9123 256.491 98.9012 256.54C98.8681 256.658 98.8349 256.786 98.8238 257.022C98.8127 257.445 99.1004 257.956 99.4212 258.556C99.6204 258.92 99.8306 259.294 99.908 259.559C100.317 260.936 100.317 260.976 100.262 261.408C100.229 261.684 100.185 262.107 100.196 262.962L100.207 263.789C100.207 264.339 100.229 266.002 98.9566 267.133C98.0604 267.929 96.6774 268.342 94.8408 268.342C88.8221 268.342 69.206 259.766 53.5175 251.799C39.4222 244.639 29.5533 238.089 24.1984 232.325L23.3907 231.45L22.4392 236.633C22.4392 236.761 22.4282 237.931 23.1916 238.728C23.5567 239.259 28.5022 246.173 47.8085 256.559C77.006 272.227 99.9855 278.227 100.107 278.256C100.362 278.374 100.66 278.433 101.003 278.433C101.457 278.433 102.01 278.325 102.685 278.109C105.02 277.371 111.215 275.109 114.7 273.831C116.36 273.221 117.389 271.686 117.179 270.103C116.791 267.064 116.316 261.084 117.533 255.192C119.856 243.852 125.521 235.669 134.383 230.86C137.89 228.961 141.099 228.647 143.931 229.935C148.511 232.02 151.001 237.734 151.377 242.16C151.631 245.091 151.709 247.865 151.62 250.393C151.587 251.229 152.063 251.996 152.871 252.419C153.689 252.852 154.663 252.852 155.482 252.419L250.641 202.504C251.892 201.855 252.6 200.606 252.445 199.337C252.024 195.855 251.67 189 253.938 182.164C257.468 171.532 263.099 164.49 271.154 160.644C275.059 158.776 278.699 158.53 281.664 159.936C285.116 161.569 287.34 165.257 287.915 170.322C288.325 173.883 288.601 176.824 288.734 179.056C288.778 179.902 289.321 180.64 290.161 181.033C291.013 181.427 292.009 181.387 292.817 180.935C297.176 178.505 304.965 173.804 308.107 169.555C312.411 163.772 313.052 154.782 312.754 150.386Z" fill="#16110D"/>
<path d="M304.18 131.217C303.903 131.384 303.671 131.551 303.516 131.709C301.712 133.597 294.499 142.252 294.499 144.023C294.499 144.141 294.532 144.16 294.565 144.18C295.229 144.514 297.508 143.826 300.396 142.616C305.242 140.452 304.545 133.469 304.18 131.217Z" fill="#C6E9CD"/>
<path d="M307.775 132.033L307.543 129.791C307.432 129.83 307.31 129.869 307.178 129.919C307.133 129.938 307.089 129.948 307.045 129.968C306.979 129.987 306.901 130.017 306.835 130.046C306.713 130.096 306.591 130.135 306.459 130.184C306.226 130.273 305.983 130.371 305.739 130.469C305.573 130.538 305.419 130.607 305.264 130.676C305.264 130.676 305.253 130.676 305.253 130.686C305.529 132.171 306.315 137.502 303.903 141.052C305.983 140.059 307.753 139.134 308.45 138.771L307.775 132.033Z" fill="#C6E9CD"/>
<path d="M153.922 218.693H155.759C158.735 218.693 161.268 216.716 161.656 214.09L161.821 212.998C161.877 212.585 161.667 212.192 161.257 211.975C160.859 211.769 160.361 211.789 159.985 212.034L153.114 216.5C152.627 216.814 152.439 217.346 152.616 217.857C152.816 218.359 153.324 218.693 153.922 218.693ZM153.8 217.326L160.671 212.861L160.516 213.952C160.206 216.067 158.17 217.66 155.77 217.66H153.933C153.8 217.66 153.756 217.582 153.734 217.532C153.712 217.473 153.701 217.395 153.8 217.326Z" fill="#C6E9CD"/>
<path d="M296.379 150.101C294.499 150.101 292.972 151.802 292.972 153.897C292.972 155.992 294.499 157.694 296.379 157.694C298.26 157.694 299.787 155.992 299.787 153.897C299.787 151.802 298.26 150.101 296.379 150.101ZM296.379 156.671C295.14 156.671 294.133 155.432 294.133 153.897C294.133 152.373 295.14 151.124 296.379 151.124C297.619 151.124 298.625 152.363 298.625 153.897C298.636 155.432 297.619 156.671 296.379 156.671Z" fill="#C6E9CD"/>
<path d="M270.811 134.404C265.102 134.63 244.922 136.538 218.745 151.193V151.173L217.815 151.724C217.218 152.058 216.631 152.393 216.034 152.747C215.116 153.278 214.208 153.828 213.312 154.389L212.969 154.596V154.605C196.761 164.746 183.827 178.122 175.319 188.331H175.308C175.308 188.341 175.297 188.351 175.286 188.38C170.484 194.154 167.088 198.914 165.34 201.501C164.831 202.238 164.775 203.114 165.118 203.665L165.107 203.674C165.107 203.674 165.129 203.694 165.129 203.704C165.163 203.763 165.185 203.832 165.229 203.881C165.273 203.93 165.328 203.95 165.384 203.979C166.545 205.278 170.938 210.618 171.336 217.66C171.757 225.027 171.646 230.555 171.48 233.889C171.436 234.804 171.945 235.64 172.83 236.102C172.94 236.161 173.062 236.19 173.184 236.24L150.603 248.337L151.2 249.213L178.207 234.735L223.779 210.323L229.996 206.979L252.821 194.744L252.224 193.859L248.208 196.013C248.484 195.403 248.628 194.744 248.606 194.075C248.528 191.134 248.761 186.482 250.354 181.004C252.058 175.112 256.24 169.241 258.574 166.26C259.979 164.47 260.356 162.169 259.559 160.084C258.541 157.409 256.671 153.858 256.041 152.688C261.661 148.675 265.467 145.124 268.012 142.272C268.012 142.272 268.023 142.262 268.023 142.252C269.782 140.285 270.955 138.643 271.696 137.423C272.238 136.548 272.316 135.505 271.884 134.895C271.652 134.571 271.276 134.384 270.811 134.404ZM246.935 140.049L254.58 152.432C252.356 153.986 249.867 155.609 247.057 157.281C240.651 161.107 232.021 166.211 222.905 171.552L218.977 152.284C229.443 146.383 238.936 142.547 246.935 140.049ZM215.658 175.791L214.164 155.117L217.915 152.894L221.842 172.162C219.807 173.371 217.738 174.581 215.658 175.791ZM213.058 155.815L214.551 176.44C201.939 183.797 189.425 191.026 181.404 195.511C180.829 195.541 178.262 195.55 177.089 193.564C175.507 190.898 176.127 189.246 176.293 188.892C184.635 178.879 197.27 165.818 213.058 155.815ZM166.324 202.022C167.906 199.701 170.816 195.6 174.888 190.593C174.943 191.508 175.242 192.669 176.049 194.055C176.979 195.619 178.528 196.209 179.756 196.426C177.178 197.852 175.175 198.944 173.958 199.544C169.931 201.55 167.475 202.602 166.092 203.134C166.07 203.114 166.059 203.094 166.048 203.084C166.014 202.878 166.037 202.455 166.324 202.022ZM175.087 235.207C174.567 235.482 173.947 235.492 173.427 235.217C172.907 234.941 172.62 234.459 172.642 233.928C172.808 230.565 172.918 225.008 172.498 217.601C172.122 211.031 168.537 205.996 166.844 203.96C168.825 203.173 171.403 202.002 174.545 200.439C179.424 198.009 196.894 187.977 214.64 177.62L218.689 175.25C219.497 176.706 222.13 181.83 222.794 188.174C223.535 195.245 222.794 207.677 222.661 209.713L182.101 231.46L175.087 235.207ZM258.464 160.467C259.127 162.208 258.818 164.166 257.612 165.69C255.233 168.719 250.973 174.719 249.214 180.768C247.588 186.354 247.356 191.115 247.433 194.114C247.466 195.501 246.659 196.809 245.32 197.527L229.2 206.202L223.845 209.074C224.044 205.72 224.619 194.646 223.934 188.085C223.225 181.358 220.448 176.076 219.652 174.689L223.115 172.663C232.386 167.234 241.182 162.031 247.688 158.146C250.442 156.504 252.899 154.91 255.089 153.376C255.797 154.674 257.523 157.989 258.464 160.467ZM255.488 151.773L248.03 139.705C253.916 137.925 258.939 136.882 262.878 136.262C263.088 136.272 265.257 136.371 266.551 138.161C267.802 139.911 267.392 141.328 267.105 141.642C264.637 144.416 260.942 147.868 255.488 151.773ZM270.689 136.961C270.18 137.787 269.472 138.81 268.51 140C268.41 139.272 268.122 138.456 267.525 137.62C266.927 136.784 266.186 136.253 265.467 135.908C267.846 135.613 269.682 135.485 270.877 135.436C271.01 135.505 271.165 136.184 270.689 136.961Z" fill="#C6E9CD"/>
<path d="M213.445 186.58C213.091 186.403 212.671 186.413 212.328 186.61L205.147 190.741C204.152 191.321 203.51 192.295 203.432 193.347L203.344 194.783C203.322 195.147 203.521 195.481 203.875 195.658C204.041 195.747 204.229 195.786 204.417 195.786C204.616 195.786 204.827 195.737 205.004 195.629L212.217 191.449C213.224 190.868 213.866 189.875 213.921 188.813L213.998 187.446C213.998 187.092 213.799 186.757 213.445 186.58ZM212.748 188.764C212.704 189.501 212.272 190.19 211.564 190.593L204.506 194.685L204.594 193.406C204.638 192.678 205.081 191.999 205.778 191.596L212.815 187.554L212.748 188.764Z" fill="#C6E9CD"/>
<path d="M240.563 172.811L240.474 174.247C240.452 174.611 240.651 174.945 241.005 175.122C241.171 175.211 241.359 175.25 241.536 175.25C241.735 175.25 241.946 175.201 242.123 175.092L249.325 170.903C250.332 170.322 250.963 169.329 251.018 168.257L251.084 166.89C251.106 166.536 250.896 166.201 250.553 166.024C250.199 165.847 249.779 165.857 249.436 166.054L242.266 170.194C241.26 170.775 240.629 171.748 240.563 172.811ZM242.897 171.06L249.934 167.008L249.867 168.218C249.823 168.955 249.392 169.644 248.694 170.047L241.636 174.148L241.713 172.87C241.757 172.142 242.2 171.463 242.897 171.06Z" fill="#C6E9CD"/>
<path d="M182.455 189.659C186.206 190.072 191.893 195.196 192.601 195.855C193.309 196.524 194.869 198.747 189.691 199.406C184.513 200.065 180.398 197.045 179.169 197.399C177.952 197.754 176.802 199.209 175.994 199.652C174.733 200.35 173.46 199.986 173.228 198.757C172.996 197.527 176.636 191.941 178.196 190.711C179.767 189.492 181.15 189.511 182.455 189.659Z" fill="#16110D"/>
<path d="M174.755 200.517C174.445 200.517 174.158 200.468 173.881 200.36C173.228 200.104 172.797 199.563 172.664 198.845C172.365 197.252 176.326 191.508 177.82 190.337C179.579 188.96 181.172 189 182.522 189.157C186.66 189.619 192.767 195.275 193.021 195.511C193.652 196.101 194.205 197.055 193.851 197.96C193.464 198.963 192.081 199.622 189.769 199.917C186.284 200.36 183.274 199.219 181.283 198.461C180.53 198.176 179.601 197.822 179.346 197.881C178.716 198.058 178.041 198.658 177.444 199.189C177.045 199.543 176.658 199.878 176.304 200.074C175.795 200.37 175.253 200.517 174.755 200.517ZM181.393 190.101C180.508 190.101 179.601 190.308 178.583 191.105C177.067 192.295 173.627 197.743 173.804 198.678C173.848 198.934 173.992 199.278 174.357 199.425C174.722 199.573 175.209 199.494 175.695 199.219C175.939 199.081 176.271 198.786 176.636 198.471C177.322 197.862 178.107 197.173 179.004 196.917C179.645 196.73 180.486 197.045 181.747 197.527C183.728 198.284 186.449 199.317 189.614 198.904C192.048 198.589 192.634 197.97 192.767 197.625C192.966 197.124 192.501 196.504 192.192 196.219C192.125 196.16 186.129 190.583 182.389 190.17C182.057 190.131 181.725 190.101 181.393 190.101Z" fill="#C6E9CD"/>
<path d="M96.213 274.116C94.476 271.165 95.4054 268.864 95.7705 268.165C95.4496 268.195 95.1398 268.224 94.7968 268.224C94.6973 268.224 94.5866 268.214 94.476 268.214C94.0003 269.395 93.4913 271.755 95.162 274.607C95.9807 276.004 97.253 277.125 98.4479 277.952C99.5653 278.276 100.174 278.433 100.196 278.433C100.462 278.552 100.76 278.62 101.114 278.62C101.291 278.62 101.502 278.591 101.712 278.561C100.683 278.089 97.6292 276.535 96.213 274.116Z" fill="#C6E9CD"/>
<path d="M108.129 266.041C104.356 267.625 100.904 267.507 98.813 267.182C98.4257 267.526 97.9389 267.782 97.3857 267.979C98.293 268.195 99.687 268.441 101.435 268.441C103.482 268.441 105.971 268.107 108.638 266.985C112.731 265.264 115.398 262.166 116.947 259.815C117.024 258.871 117.124 257.907 117.267 256.943C116.46 258.586 113.605 263.74 108.129 266.041Z" fill="#C6E9CD"/>
<path d="M312.997 152.491C313.008 151.655 312.986 150.878 312.942 150.219C312.909 149.708 312.831 149.245 312.732 148.812C312.51 150.406 310.806 159.71 300.716 165.08C294.576 168.346 289.807 169.565 287.683 169.988C287.705 170.146 287.738 170.293 287.761 170.45C287.783 170.647 287.805 170.844 287.827 171.041C289.995 170.627 294.897 169.398 301.325 165.985C308.572 162.13 311.681 156.307 312.997 152.491Z" fill="#C6E9CD"/>
<path d="M79.2406 251.878C79.13 251.839 68.0772 248.18 57.5888 242.583C47.0892 236.977 39.3667 231.873 39.2892 231.824L38.5037 231.302L37.3862 238.758L37.6739 238.935C37.7292 238.974 43.6594 242.731 54.9888 248.75C66.3402 254.779 78.256 259.117 78.3777 259.166L79.1189 259.432L79.65 252.016L79.2406 251.878Z" fill="#16110D"/>
<path d="M39.6213 237.725V234.155C39.6213 233.22 39.1898 232.315 38.4375 231.666L24.4971 219.431L24.5966 228.066L24.4971 228.568C31.3013 234.45 35.5498 237.115 38.0171 238.512C38.703 238.905 39.6213 238.462 39.6213 237.725Z" fill="#C6E9CD"/>
<path d="M98.0271 256.009C98.0271 256.009 103.515 256.874 103.515 260.366C103.515 263.857 101.379 265.215 99.0007 265.225C94.4313 265.234 82.6926 260.425 78.588 258.674C77.7029 258.3 77.1497 257.514 77.1497 256.638V253.707C77.1497 252.822 78.068 252.163 79.0416 252.35L98.0271 256.009Z" fill="#C6E9CD"/>
<path d="M34.0451 231.43C33.1821 229.424 31.1464 228.253 29.5089 228.814C28.657 229.099 28.0928 229.807 27.8494 230.683C29.9515 232.404 31.9319 233.919 33.7906 235.207C34.5098 234.292 34.6647 232.847 34.0451 231.43Z" fill="url(#paint18_linear_87_120)"/>
<path d="M38.8357 231.302L23.8996 218.192L24.0213 227.988L23.8774 228.755L24.0987 228.942C29.2987 233.437 33.7464 236.702 37.7072 238.944C37.9727 239.102 38.2825 239.171 38.5813 239.171C38.8468 239.171 39.1123 239.112 39.3668 238.994C39.8978 238.738 40.2076 238.266 40.2076 237.725V234.155C40.1966 233.082 39.6987 232.04 38.8357 231.302ZM26.8315 229.837C26.8094 228.657 27.3515 227.712 28.2476 227.407C28.8672 227.201 29.5864 227.299 30.2834 227.703C31.0357 228.135 31.6553 228.853 32.0315 229.729C32.6732 231.224 32.3966 232.787 31.4119 233.456C29.9736 232.384 28.4357 231.165 26.8315 229.837ZM39.0459 237.725C39.0459 237.951 38.88 238.059 38.8025 238.089C38.7251 238.118 38.537 238.197 38.3268 238.069C36.4459 237.007 34.4434 235.699 32.3081 234.135C33.5693 233.132 33.9345 231.224 33.1268 229.355C32.6621 228.283 31.8876 227.388 30.9251 226.837C29.9072 226.247 28.8119 226.109 27.8494 226.444C26.754 226.817 26.0017 227.742 25.7694 228.932C25.5481 228.745 25.3379 228.568 25.1166 228.381L25.1719 228.057L25.0945 220.66L38.0391 232.02C38.6808 232.571 39.0459 233.348 39.0459 234.145V237.725Z" fill="#16110D"/>
<path d="M96.4009 264.379C96.5336 263.543 96.4341 262.589 96.0247 261.654C95.0511 259.382 92.7498 258.064 90.8911 258.694C89.5302 259.156 88.789 260.553 88.8775 262.156C91.566 263.1 94.2545 263.936 96.4009 264.379Z" fill="url(#paint19_linear_87_120)"/>
<path d="M98.1376 255.507L79.1631 251.848C78.5325 251.73 77.8798 251.868 77.3708 252.232C76.8619 252.596 76.5742 253.137 76.5742 253.707V256.638C76.5742 257.7 77.2712 258.684 78.3334 259.136C80.4576 260.041 83.9649 261.487 87.6048 262.795L87.6159 262.815L87.8372 262.894C87.9921 262.953 88.147 262.992 88.3019 263.041C92.4287 264.497 96.5997 265.726 98.9895 265.726C99.0006 265.726 99.0006 265.726 99.0116 265.726C101.468 265.716 104.101 264.31 104.101 260.356C104.09 256.54 98.5027 255.566 98.1376 255.507ZM88.3904 261.871C87.5274 259.874 88.0917 257.818 89.6406 257.287C90.3597 257.041 91.2006 257.169 92.0082 257.632C92.8712 258.133 93.5904 258.959 94.0219 259.953C94.5972 261.271 94.5419 262.667 93.9223 263.612C92.5282 263.287 90.8355 262.805 88.9214 262.166C88.7666 262.107 88.6117 262.058 88.4568 261.999C88.4346 261.959 88.4014 261.91 88.3904 261.871ZM99.0006 264.713H98.9895C97.9716 264.713 96.5665 264.457 94.9844 264.044C95.7257 262.835 95.7921 261.143 95.1172 259.579C94.5972 258.379 93.7231 257.386 92.661 256.766C91.5325 256.117 90.3155 255.96 89.2423 256.323C87.3061 256.982 86.4321 259.205 87.0738 261.497C83.6108 260.218 80.4244 258.891 78.8534 258.222C78.1674 257.927 77.747 257.327 77.747 256.648V253.717C77.747 253.452 77.8797 253.206 78.1121 253.038C78.2891 252.911 78.5104 252.842 78.7317 252.842C78.798 252.842 78.8755 252.852 78.9419 252.861L97.9163 256.52H97.9385C97.9827 256.53 102.95 257.356 102.95 260.366C102.928 263.12 101.501 264.703 99.0006 264.713Z" fill="#16110D"/>
<path d="M271.738 151.968H241.226V236.437H241.237C241.291 237.18 241.851 237.956 242.908 238.57L252.791 244.28C254.828 245.455 257.91 245.584 259.678 244.56L270.552 238.279C271.404 237.794 271.781 237.126 271.727 236.437H271.738V151.968Z" fill="#C6E9CD"/>
<path d="M256.671 245.81C255.226 245.81 253.707 245.455 252.5 244.755L242.617 239.044C241.647 238.484 241 237.773 240.763 236.986H240.666L240.655 236.426V151.386H272.288L272.244 236.986C272.104 237.687 271.609 238.301 270.822 238.753L259.947 245.035C259.063 245.563 257.899 245.81 256.671 245.81ZM241.787 236.329L241.797 236.394C241.841 236.976 242.347 237.59 243.188 238.075L253.071 243.785C254.914 244.852 257.813 244.981 259.397 244.065L270.272 237.784C270.703 237.536 271.21 237.105 271.167 236.469L271.124 235.866H271.177V152.517H241.797V236.329H241.787Z" fill="black"/>
<path d="M270.552 153.81L259.678 160.091C257.91 161.115 254.828 160.986 252.791 159.811L242.908 154.101C240.871 152.926 240.644 151.149 242.412 150.125L253.287 143.844C255.054 142.82 258.136 142.95 260.173 144.124L270.057 149.834C272.094 151.009 272.32 152.786 270.552 153.81Z" fill="#C6E9CD"/>
<path d="M270.057 153.778L260.174 148.067C258.137 146.893 255.054 146.764 253.287 147.787L242.412 154.069C242.164 154.209 241.959 154.37 241.798 154.543V157.139C242.078 157.462 242.433 157.764 242.908 158.044L252.791 163.755C254.828 164.929 257.91 165.058 259.678 164.035L270.552 157.753C272.32 156.73 272.094 154.952 270.057 153.778Z" fill="url(#paint20_linear_87_120)"/>
<path d="M256.671 161.341C255.226 161.341 253.707 160.986 252.5 160.285L242.617 154.575C241.366 153.853 240.644 152.851 240.644 151.838C240.644 150.955 241.172 150.168 242.121 149.63L252.996 143.348C254.946 142.228 258.212 142.346 260.443 143.629L270.326 149.339C271.576 150.061 272.298 151.063 272.298 152.075C272.298 152.959 271.77 153.745 270.822 154.284L259.947 160.565C259.063 161.093 257.899 161.341 256.671 161.341ZM256.261 143.726C255.237 143.726 254.267 143.919 253.556 144.329L242.681 150.61C242.272 150.847 241.776 151.257 241.776 151.849C241.776 152.453 242.283 153.099 243.177 153.605L253.06 159.316C254.903 160.382 257.802 160.512 259.387 159.596L270.261 153.314C270.671 153.077 271.167 152.668 271.167 152.075C271.167 151.472 270.66 150.826 269.766 150.319L259.882 144.609C258.869 144.027 257.522 143.726 256.261 143.726Z" fill="black"/>
<path d="M256.671 161.341V245.81L262.889 243.354L272.255 236.997L271.738 152.927L261.402 159.035L256.671 161.341Z" fill="#16110D"/>
<path d="M252.802 194.224L246.906 190.819C246.292 190.463 245.796 189.515 245.796 188.707V174.054C245.796 173.236 246.292 172.869 246.906 173.214L252.802 176.619C253.416 176.974 253.912 177.922 253.912 178.73V193.383C253.912 194.202 253.416 194.579 252.802 194.224Z" fill="url(#paint21_linear_87_120)"/>
<path d="M251.411 192.209L245.677 188.901C244.815 188.406 244.125 187.199 244.125 186.208V171.35C244.125 170.359 244.826 169.96 245.677 170.456L251.411 173.764C252.273 174.259 252.963 175.466 252.963 176.457V191.315C252.963 192.295 252.263 192.705 251.411 192.209ZM245.677 171.296C245.225 171.038 244.858 171.243 244.858 171.771V186.628C244.858 187.156 245.225 187.792 245.677 188.05L251.411 191.358C251.864 191.616 252.23 191.412 252.23 190.884V176.026C252.23 175.498 251.864 174.863 251.411 174.604L245.677 171.296Z" fill="#16110D"/>
<path d="M248.868 180.153L248.21 179.776C247.1 179.129 246.195 177.405 246.195 175.919C246.195 174.432 247.1 173.753 248.21 174.389L248.868 174.766C249.978 175.412 250.883 177.136 250.883 178.623C250.894 180.11 249.989 180.799 248.868 180.153Z" fill="#C6E9CD"/>
<path d="M248.555 180.39L248.523 180.368C247.035 179.506 245.828 177.416 245.828 175.703C245.828 173.99 247.035 173.29 248.523 174.152C250.042 175.035 251.25 177.125 251.25 178.838C251.26 180.551 250.042 181.252 248.555 180.39ZM248.555 175.014C247.434 174.367 246.55 174.873 246.55 176.123C246.55 177.373 247.434 178.903 248.512 179.528L248.544 179.549C249.633 180.174 250.506 179.668 250.506 178.418C250.527 177.168 249.644 175.638 248.555 175.014Z" fill="#16110D"/>
<path d="M250.441 188.578L246.637 186.38C246.389 186.24 246.195 185.863 246.195 185.529V181.553C246.195 181.23 246.389 181.079 246.637 181.219L250.441 183.417C250.689 183.557 250.883 183.934 250.883 184.268V188.244C250.894 188.567 250.689 188.718 250.441 188.578Z" fill="#C6E9CD"/>
<path d="M250.409 188.977L246.669 186.822C246.206 186.552 245.828 185.895 245.828 185.356V181.295C245.828 180.756 246.206 180.54 246.669 180.81L250.409 182.965C250.872 183.234 251.25 183.891 251.25 184.43V188.492C251.26 189.03 250.883 189.246 250.409 188.977ZM246.669 181.65C246.604 181.618 246.561 181.639 246.561 181.715V185.777C246.561 185.852 246.615 185.938 246.669 185.971L250.409 188.125C250.474 188.158 250.517 188.136 250.517 188.061V183.999C250.517 183.924 250.463 183.837 250.409 183.805L246.669 181.65Z" fill="#16110D"/>
<path d="M262.124 244C261.779 244 261.456 243.914 261.165 243.742C260.4 243.3 259.969 242.341 259.969 241.102V177.879C259.969 175.714 261.262 173.268 262.911 172.32L266.748 170.111C267.567 169.637 268.386 169.583 269.054 169.971C269.82 170.413 270.251 171.372 270.251 172.611V235.833C270.251 237.999 268.957 240.445 267.308 241.393L263.472 243.602C263.008 243.871 262.555 244 262.124 244ZM268.063 170.844C267.783 170.844 267.502 170.962 267.287 171.092L263.45 173.3C262.167 174.044 261.079 176.145 261.079 177.89V241.113C261.079 241.921 261.316 242.546 261.715 242.772C262.092 242.998 262.566 242.815 262.89 242.632L266.726 240.423C268.009 239.68 269.097 237.579 269.097 235.833V172.611C269.097 171.803 268.86 171.178 268.462 170.952C268.343 170.876 268.203 170.844 268.063 170.844Z" fill="#C6E9CD"/>
<path d="M222.851 73.9414L222.775 73.6289L222.279 73.6828C222.463 73.769 222.657 73.8552 222.851 73.9414Z" fill="#16110D"/>
<path d="M223.68 74.9434L220.242 73.3704L223.206 73.0256L223.68 74.9434Z" fill="#C6E9CD"/>
<path d="M143.893 33.2905L133.514 84.4999C131.628 93.7872 138.73 102.471 148.204 102.471C157.915 102.471 165.06 93.3885 162.775 83.9612L150.349 32.6548L143.893 33.2905Z" fill="url(#paint22_linear_87_120)"/>
<path d="M148.118 103.215C143.634 103.215 139.517 101.362 136.51 97.9893L136.079 97.5045L136.618 97.1489C137.901 96.287 139.194 95.4466 140.52 94.617C146.921 90.609 154.326 86.9781 162.517 83.7998L163.12 83.5627L163.26 84.1984C164.327 88.8421 163.228 93.6366 160.264 97.3644C157.311 101.081 152.882 103.215 148.118 103.215ZM137.804 97.72C140.541 100.543 144.184 102.094 148.129 102.094C152.547 102.094 156.654 100.112 159.402 96.6641C162.021 93.378 163.066 89.1976 162.312 85.0927C154.434 88.1849 147.309 91.708 141.123 95.5759C140.002 96.2762 138.892 96.9873 137.804 97.72Z" fill="#16110D"/>
<path d="M179.944 53.912L169.565 105.121C167.679 114.409 174.782 123.093 184.255 123.093C193.966 123.093 201.111 114.01 198.827 104.583L186.411 53.2871L179.944 53.912Z" fill="url(#paint23_linear_87_120)"/>
<path d="M184.816 123.675C180.127 123.675 175.741 121.595 172.777 117.964C169.813 114.333 168.638 109.625 169.576 105.035L174.728 79.6408L175.051 79.5438C180.914 77.7661 186.896 76.3008 192.339 75.3096L192.867 75.2126L199.948 104.464C201.079 109.13 200.023 113.967 197.048 117.738C194.074 121.509 189.612 123.675 184.816 123.675ZM175.687 80.5135L170.675 105.251C169.813 109.507 170.891 113.881 173.65 117.253C176.398 120.615 180.472 122.543 184.816 122.543C189.267 122.543 193.406 120.539 196.154 117.038C198.913 113.536 199.883 109.054 198.837 104.723L192.004 76.5055C186.842 77.4644 181.227 78.8435 175.687 80.5135Z" fill="#16110D"/>
<path d="M216.739 74.728L206.36 125.937C204.474 135.225 211.577 143.909 221.05 143.909C230.761 143.909 237.907 134.826 235.622 125.399L223.206 74.0923L216.739 74.728Z" fill="url(#paint24_linear_87_120)"/>
<path d="M223.281 74.405L223.206 74.0925L222.71 74.1464C222.882 74.2218 223.076 74.308 223.281 74.405Z" fill="url(#paint25_linear_87_120)"/>
<path d="M228.907 97.6554L213.829 89.0469L206.349 125.937C204.463 135.225 211.566 143.909 221.039 143.909C230.75 143.909 237.896 134.826 235.611 125.399L228.907 97.6554Z" fill="url(#paint26_linear_87_120)"/>
<path d="M207.934 136.41C210.564 140.579 215.198 143.435 220.619 143.435C230.33 143.435 237.475 134.352 235.191 124.925L234.533 122.199C227.452 125.011 220.317 128.448 213.711 132.574C211.738 133.824 209.82 135.106 207.934 136.41Z" fill="#16110D"/>
<path d="M208.074 137.369L207.761 136.873C205.627 133.479 204.884 129.45 205.681 125.517L213.312 87.8726L229.274 96.9875L235.503 122.705L235.051 122.888C227.409 125.927 220.436 129.407 214.325 133.221C212.568 134.32 210.736 135.537 208.559 137.035L208.074 137.369ZM214.11 89.618L206.781 125.744C206.08 129.191 206.662 132.725 208.408 135.764C210.38 134.406 212.083 133.286 213.722 132.262C219.768 128.48 226.644 125.043 234.178 122.016L228.293 97.7201L214.11 89.618Z" fill="#16110D"/>
<path d="M235.255 122.748L234.145 122.964L234.652 125.054C235.697 129.385 234.727 133.867 231.968 137.369C229.22 140.87 225.081 142.874 220.63 142.874C215.909 142.874 211.577 140.601 208.871 136.765L207.891 137.293C210.811 141.495 215.51 143.995 220.641 143.995C225.437 143.995 229.899 141.829 232.863 138.058C235.826 134.287 236.883 129.45 235.762 124.785L235.255 122.748Z" fill="#C6E9CD"/>
<path d="M243.479 72.9393L121.777 2.54117C116.593 -0.454041 111.517 -0.809587 107.486 1.51762C103.444 3.84484 101.224 8.42384 101.224 14.4035V62.844C101.224 65.0203 102.991 66.7873 105.169 66.7873C107.346 66.7873 109.113 65.0203 109.113 62.844V14.4035C109.113 11.3975 109.954 9.1888 111.43 8.34842C112.907 7.49727 115.235 7.87436 117.832 9.37196L239.534 79.7701C246.399 83.735 252.198 93.7765 252.198 101.706V150.147C252.198 152.323 253.965 154.09 256.142 154.09C258.319 154.09 260.087 152.323 260.087 150.147V101.706C260.076 90.9537 252.79 78.3156 243.479 72.9393Z" fill="#16110D"/>
<path d="M258.956 115.206V150.384C258.956 151.935 257.695 153.196 256.143 153.196C254.591 153.196 253.33 151.935 253.33 150.384V116.607C252.952 116.704 252.586 116.812 252.198 116.909V150.384C252.198 152.56 253.966 154.327 256.143 154.327C258.32 154.327 260.087 152.56 260.087 150.384V114.958C259.71 115.034 259.333 115.12 258.956 115.206Z" fill="#C6E9CD"/>
<path d="M161.482 31.2758L119.88 7.27102C119.341 6.95857 119.158 6.26902 119.471 5.73032C119.783 5.19161 120.473 5.00845 121.012 5.3209L162.603 29.3257C163.142 29.6381 163.325 30.3277 163.012 30.8664C162.711 31.4051 162.021 31.5882 161.482 31.2758Z" fill="#C6E9CD"/>
<path d="M189.439 47.4155L168.52 35.3377C167.981 35.0252 167.798 34.3357 168.11 33.797C168.423 33.2583 169.113 33.0751 169.651 33.3876L190.571 45.4653C191.11 45.7778 191.293 46.4673 190.98 47.006C190.668 47.5448 189.978 47.7279 189.439 47.4155Z" fill="#C6E9CD"/>
<path d="M151.955 31.0063L151.89 30.8662L151.955 30.9847C151.858 30.7584 151.717 30.543 151.523 30.3275L148.204 25.2744H145.606L142.287 30.3275C142.093 30.5322 141.953 30.7584 141.856 30.9847L141.802 31.1355L141.856 30.9955C141.425 31.9867 141.877 33.0857 143.225 33.8614C145.262 35.0358 148.57 35.0358 150.607 33.8614C151.944 33.0964 152.386 31.9975 151.955 31.0063Z" fill="#16110D"/>
<path d="M147.439 33.5814C144.324 33.5814 142.966 31.9545 142.901 31.8791L143.774 31.168C143.817 31.2218 144.96 32.5147 147.622 32.4501L147.644 33.5814C147.579 33.5814 147.514 33.5814 147.439 33.5814Z" fill="#C6E9CD"/>
<path d="M188.297 52.2963L188.232 52.1562L188.297 52.2747C188.2 52.0485 188.06 51.833 187.866 51.6175L184.546 46.5645H181.949L178.629 51.6175C178.435 51.8222 178.295 52.0485 178.198 52.2747L178.144 52.4256L178.198 52.2855C177.767 53.2767 178.22 54.3757 179.567 55.1514C181.604 56.3258 184.913 56.3258 186.95 55.1514C188.286 54.3865 188.728 53.2875 188.297 52.2963Z" fill="#16110D"/>
<path d="M183.781 54.8712C180.666 54.8712 179.308 53.2443 179.244 53.1689L180.117 52.4578C180.16 52.5116 181.302 53.8045 183.964 53.7399L183.986 54.8712C183.921 54.8712 183.857 54.8712 183.781 54.8712Z" fill="#C6E9CD"/>
<path d="M224.639 73.2841L224.575 73.144L224.639 73.2625C224.542 73.0363 224.402 72.8208 224.208 72.6053L220.889 67.5522H218.291L214.972 72.6053C214.778 72.81 214.638 73.0363 214.541 73.2625L214.476 73.4134L214.53 73.2733C214.099 74.2645 214.551 75.3635 215.899 76.1392C217.936 77.3136 221.244 77.3136 223.281 76.1392C224.629 75.3635 225.07 74.2753 224.639 73.2841Z" fill="#16110D"/>
<path d="M220.123 75.8485C217.009 75.8485 215.651 74.2216 215.586 74.1461L216.459 73.4351C216.502 73.4889 217.644 74.7818 220.307 74.7172L220.328 75.8485C220.263 75.8485 220.199 75.8485 220.123 75.8485Z" fill="#C6E9CD"/>
<defs>
<linearGradient id="paint0_linear_87_120" x1="9.72765" y1="254.927" x2="20.2243" y2="244.426" gradientUnits="userSpaceOnUse">
<stop stop-color="white"/>
<stop offset="1" stop-color="#92D6E3"/>
</linearGradient>
<linearGradient id="paint1_linear_87_120" x1="9.726" y1="254.197" x2="35.585" y2="228.33" gradientUnits="userSpaceOnUse">
<stop stop-color="white"/>
<stop offset="1" stop-color="#92D6E3"/>
</linearGradient>
<linearGradient id="paint2_linear_87_120" x1="305.907" y1="180.347" x2="322.418" y2="163.831" gradientUnits="userSpaceOnUse">
<stop stop-color="white"/>
<stop offset="1" stop-color="#92D6E3"/>
</linearGradient>
<linearGradient id="paint3_linear_87_120" x1="265.653" y1="190.005" x2="307.548" y2="148.096" gradientUnits="userSpaceOnUse">
<stop stop-color="white"/>
<stop offset="1" stop-color="#92D6E3"/>
</linearGradient>
<linearGradient id="paint4_linear_87_120" x1="213.059" y1="272.251" x2="223.019" y2="262.288" gradientUnits="userSpaceOnUse">
<stop stop-color="white"/>
<stop offset="1" stop-color="#92D6E3"/>
</linearGradient>
<linearGradient id="paint5_linear_87_120" x1="202.439" y1="284.376" x2="222.833" y2="263.975" gradientUnits="userSpaceOnUse">
<stop stop-color="white"/>
<stop offset="1" stop-color="#92D6E3"/>
</linearGradient>
<linearGradient id="paint6_linear_87_120" x1="133.776" y1="291.35" x2="147.59" y2="277.532" gradientUnits="userSpaceOnUse">
<stop stop-color="white"/>
<stop offset="1" stop-color="#92D6E3"/>
</linearGradient>
<linearGradient id="paint7_linear_87_120" x1="210.395" y1="270.802" x2="257.609" y2="223.573" gradientUnits="userSpaceOnUse">
<stop stop-color="white"/>
<stop offset="1" stop-color="#92D6E3"/>
</linearGradient>
<linearGradient id="paint8_linear_87_120" x1="117.316" y1="317.333" x2="244.345" y2="190.262" gradientUnits="userSpaceOnUse">
<stop stop-color="white"/>
<stop offset="1" stop-color="#92D6E3"/>
</linearGradient>
<linearGradient id="paint9_linear_87_120" x1="119.987" y1="271.206" x2="152.404" y2="238.779" gradientUnits="userSpaceOnUse">
<stop stop-color="white"/>
<stop offset="1" stop-color="#92D6E3"/>
</linearGradient>
<linearGradient id="paint10_linear_87_120" x1="96.8156" y1="76.1999" x2="112.75" y2="60.2598" gradientUnits="userSpaceOnUse">
<stop stop-color="white"/>
<stop offset="1" stop-color="#92D6E3"/>
</linearGradient>
<linearGradient id="paint11_linear_87_120" x1="93.0965" y1="101.106" x2="103.216" y2="90.983" gradientUnits="userSpaceOnUse">
<stop stop-color="white"/>
<stop offset="1" stop-color="#92D6E3"/>
</linearGradient>
<linearGradient id="paint12_linear_87_120" x1="129.503" y1="260.19" x2="138.163" y2="250.448" gradientUnits="userSpaceOnUse">
<stop stop-color="white"/>
<stop offset="1" stop-color="#92D6E3"/>
</linearGradient>
<linearGradient id="paint13_linear_87_120" x1="265.294" y1="191.07" x2="273.954" y2="181.328" gradientUnits="userSpaceOnUse">
<stop stop-color="white"/>
<stop offset="1" stop-color="#92D6E3"/>
</linearGradient>
<linearGradient id="paint14_linear_87_120" x1="54.0675" y1="269.007" x2="237.497" y2="62.6675" gradientUnits="userSpaceOnUse">
<stop stop-color="white"/>
<stop offset="1" stop-color="#92D6E3"/>
</linearGradient>
<linearGradient id="paint15_linear_87_120" x1="30.6989" y1="217.634" x2="36.6343" y2="210.958" gradientUnits="userSpaceOnUse">
<stop stop-color="white"/>
<stop offset="1" stop-color="#92D6E3"/>
</linearGradient>
<linearGradient id="paint16_linear_87_120" x1="86.7173" y1="249.706" x2="95.1157" y2="240.259" gradientUnits="userSpaceOnUse">
<stop stop-color="white"/>
<stop offset="1" stop-color="#92D6E3"/>
</linearGradient>
<linearGradient id="paint17_linear_87_120" x1="103.753" y1="244.085" x2="111.018" y2="235.912" gradientUnits="userSpaceOnUse">
<stop stop-color="white"/>
<stop offset="1" stop-color="#92D6E3"/>
</linearGradient>
<linearGradient id="paint18_linear_87_120" x1="30.4314" y1="232.977" x2="33.1091" y2="229.965" gradientUnits="userSpaceOnUse">
<stop stop-color="white"/>
<stop offset="1" stop-color="#92D6E3"/>
</linearGradient>
<linearGradient id="paint19_linear_87_120" x1="90.8396" y1="263.886" x2="94.5948" y2="259.662" gradientUnits="userSpaceOnUse">
<stop stop-color="white"/>
<stop offset="1" stop-color="#055221"/>
</linearGradient>
<linearGradient id="paint20_linear_87_120" x1="248.514" y1="163.874" x2="264.449" y2="147.934" gradientUnits="userSpaceOnUse">
<stop stop-color="white"/>
<stop offset="1" stop-color="#055221"/>
</linearGradient>
<linearGradient id="paint21_linear_87_120" x1="244.795" y1="188.78" x2="254.915" y2="178.657" gradientUnits="userSpaceOnUse">
<stop stop-color="white"/>
<stop offset="1" stop-color="#055221"/>
</linearGradient>
<linearGradient id="paint22_linear_87_120" x1="128.271" y1="88.7468" x2="167.356" y2="49.6494" gradientUnits="userSpaceOnUse">
<stop stop-color="white"/>
<stop offset="1" stop-color="#055221"/>
</linearGradient>
<linearGradient id="paint23_linear_87_120" x1="164.331" y1="109.369" x2="203.416" y2="70.2719" gradientUnits="userSpaceOnUse">
<stop stop-color="white"/>
<stop offset="0.711538" stop-color="#4D8461"/>
<stop offset="0.754808" stop-color="#427D57"/>
<stop offset="0.793269" stop-color="#38764F"/>
<stop offset="1" stop-color="#055221"/>
</linearGradient>
<linearGradient id="paint24_linear_87_120" x1="201.121" y1="130.184" x2="240.206" y2="91.087" gradientUnits="userSpaceOnUse">
<stop stop-color="white"/>
<stop offset="1" stop-color="#92D6E3"/>
</linearGradient>
<linearGradient id="paint25_linear_87_120" x1="222.914" y1="74.349" x2="223.188" y2="74.0748" gradientUnits="userSpaceOnUse">
<stop stop-color="white"/>
<stop offset="1" stop-color="#92D6E3"/>
</linearGradient>
<linearGradient id="paint26_linear_87_120" x1="203.976" y1="133.039" x2="234.13" y2="102.875" gradientUnits="userSpaceOnUse">
<stop stop-color="white"/>
<stop offset="1" stop-color="#92D6E3"/>
</linearGradient>
</defs>
</svg>
