<svg width="560" height="511" viewBox="0 0 560 511" fill="none" xmlns="http://www.w3.org/2000/svg">
<path d="M342.835 430.103C363.307 430.103 379.903 419.273 379.903 405.913C379.903 392.554 363.307 381.724 342.835 381.724C322.364 381.724 305.768 392.554 305.768 405.913C305.768 419.273 322.364 430.103 342.835 430.103Z" fill="#16110D"/>
<path d="M512.015 324.266C527.143 324.266 539.407 316.262 539.407 306.388C539.407 296.515 527.143 288.511 512.015 288.511C496.887 288.511 484.623 296.515 484.623 306.388C484.623 316.262 496.887 324.266 512.015 324.266Z" fill="#16110D"/>
<path d="M24.4393 429.194C33.5059 429.194 40.8558 424.398 40.8558 418.482C40.8558 412.566 33.5059 407.77 24.4393 407.77C15.3727 407.77 8.02271 412.566 8.02271 418.482C8.02271 424.398 15.3727 429.194 24.4393 429.194Z" fill="#16110D"/>
<path d="M234.679 486.651C234.679 492.313 227.009 496.899 217.557 496.899C208.104 496.899 200.453 492.313 200.453 486.651C200.453 480.989 208.123 476.403 217.557 476.403C227.028 476.403 234.679 480.989 234.679 486.651Z" fill="#16110D"/>
<path d="M23.2879 421.619C15.5253 421.619 8.63553 424.125 5.21851 427.708C11.9226 434.689 24.4021 439.385 38.7202 439.385C38.9802 439.385 39.2402 439.367 39.5002 439.367C42.1001 437.492 43.66 435.208 43.66 432.739C43.66 426.706 34.3375 421.619 23.2879 421.619Z" fill="url(#paint0_linear_724_394)"/>
<path d="M38.7201 392.714C17.3451 392.714 0 403.166 0 416.05C0 418.463 0.612836 420.802 1.74565 422.993C6.44406 418.612 14.2624 415.79 23.2878 415.79C37.9772 415.79 49.4911 423.234 49.4911 432.739C49.4911 434.856 48.8969 436.861 47.8383 438.717C64.812 436.248 77.4401 427.058 77.4401 416.068C77.4401 403.166 60.1136 392.714 38.7201 392.714Z" fill="url(#paint1_linear_724_394)"/>
<path d="M556.733 283.48C553.279 282.589 549.472 282.069 545.498 282.069C530.511 282.069 517.846 289.161 517.846 297.57C517.846 305.98 530.511 313.072 545.498 313.072C547.559 313.072 549.565 312.923 551.515 312.682C560.447 304.179 562.564 293.542 556.733 283.48Z" fill="url(#paint2_linear_724_394)"/>
<path d="M512.033 297.57C512.033 285.615 526.741 276.239 545.517 276.239C547.522 276.239 549.454 276.369 551.348 276.574C549.472 274.68 547.318 272.842 544.792 271.078C511.142 247.446 463.248 271.45 463.248 271.45L425.531 282.756C425.531 282.756 431.752 327.868 493.036 329.186C514.726 329.65 531.737 325.454 543.195 318.808C525.534 318.084 512.033 309.025 512.033 297.57Z" fill="url(#paint3_linear_724_394)"/>
<path d="M352.158 454.163C364.099 461.571 380.646 466.397 399.105 467.029C392.939 459.027 378.826 453.272 362.873 453.272C359.178 453.254 355.594 453.588 352.158 454.163Z" fill="url(#paint4_linear_724_394)"/>
<path d="M327.198 464.32C354.758 471.395 357.986 484.73 375.799 497.944C390.429 495.76 401.543 488.451 402.332 479.165C402.419 478.147 402.337 477.134 402.181 476.115C379.255 473.943 359.308 465.67 346.498 454.334C338.088 456.134 331.189 459.684 327.198 464.32Z" fill="url(#paint5_linear_724_394)"/>
<path d="M246.249 482.159C234.79 482.159 225.096 487.468 225.096 493.743C225.096 497.27 228.142 500.463 232.822 502.617C245.394 499.368 254.29 493.019 262.591 486.503C258.691 483.867 252.748 482.159 246.249 482.159Z" fill="url(#paint6_linear_724_394)"/>
<path d="M406.087 467.047C443.489 466.156 473.443 448.055 473.443 425.926C473.443 403.24 441.929 384.769 403.209 384.769C364.489 384.769 332.974 403.24 332.974 425.926C332.974 434.689 337.673 442.802 345.658 449.485C350.951 448.167 356.745 447.424 362.873 447.424C383.375 447.443 400.275 455.556 406.087 467.047Z" fill="url(#paint7_linear_724_394)"/>
<path d="M494.434 402.533C449.716 351.703 339.535 337 339.535 337L115.999 416.549C115.999 416.549 90.7055 481.581 187.032 503.024C202.65 506.495 214.963 507.034 225.084 505.715C221.741 502.819 219.772 499.218 219.772 495.245C219.772 485.48 231.621 477.831 246.737 477.831C255.354 477.831 262.912 480.319 267.815 484.273C279.775 474.824 291.771 466.21 313.443 467.547C315.913 467.695 318.198 467.918 320.389 468.159C323.824 461.699 330.77 456.352 339.87 452.955C332.144 445.603 327.65 436.859 327.65 427.466C327.65 401.568 361.765 380.478 403.697 380.478C445.63 380.478 479.763 401.549 479.763 427.466C479.763 452.379 448.212 472.819 408.489 474.341C408.656 475.362 408.749 476.402 408.749 477.442C408.749 488.358 399.426 497.658 385.405 502.467C390.735 505.084 396.845 508.983 405.034 509.781C472.112 516.242 539.153 453.363 494.434 402.533ZM235.168 474.713C205.287 474.713 180.978 459.545 180.978 440.906C180.978 422.267 205.287 407.1 235.168 407.1C265.048 407.1 289.357 422.267 289.357 440.906C289.376 459.545 265.048 474.713 235.168 474.713Z" fill="url(#paint8_linear_724_394)"/>
<path d="M234.679 411.39C208.011 411.39 186.302 423.94 186.302 439.367C186.302 454.794 207.993 467.344 234.679 467.344C261.347 467.344 283.056 454.794 283.056 439.367C283.056 423.958 261.365 411.39 234.679 411.39Z" fill="url(#paint9_linear_724_394)"/>
<path d="M206.823 110.772H154.249V256.319H154.268C154.36 257.6 155.326 258.937 157.146 259.995L174.175 269.834C177.685 271.858 182.997 272.081 186.042 270.317L204.78 259.494C206.247 258.658 206.897 257.507 206.804 256.319H206.823V110.772V110.772Z" fill="#D6E0D4"/>
<path d="M180.879 272.489C178.391 272.489 175.772 271.876 173.692 270.67L156.663 260.831C154.992 259.865 153.877 258.64 153.469 257.285H153.302L153.283 256.319V109.807H207.788L207.714 257.303C207.473 258.51 206.618 259.568 205.263 260.348L186.525 271.171C185.002 272.044 182.978 272.489 180.879 272.489ZM155.233 256.152L155.252 256.264C155.326 257.266 156.199 258.324 157.647 259.16L174.677 268.999C177.852 270.837 182.848 271.06 185.578 269.482L204.316 258.658C205.059 258.231 205.931 257.489 205.857 256.394L205.783 255.354H205.876V111.738H155.233V256.152Z" fill="black"/>
<path d="M204.799 113.947L186.061 124.77C183.015 126.534 177.704 126.311 174.194 124.287L157.165 114.448C153.655 112.425 153.265 109.361 156.31 107.598L175.048 96.7747C178.094 95.011 183.405 95.2338 186.915 97.2573L203.944 107.097C207.454 109.139 207.826 112.202 204.799 113.947Z" fill="#D6E0D4"/>
<path d="M203.944 113.892L186.915 104.052C183.405 102.029 178.094 101.806 175.048 103.57L156.31 114.393C155.883 114.634 155.53 114.913 155.252 115.21V119.684C155.735 120.241 156.347 120.76 157.164 121.243L174.194 131.082C177.704 133.106 183.015 133.329 186.061 131.565L204.799 120.742C207.826 118.997 207.454 115.934 203.944 113.892Z" fill="url(#paint10_linear_724_394)"/>
<path d="M180.879 126.942C178.391 126.942 175.772 126.33 173.693 125.123L156.663 115.284C154.509 114.04 153.265 112.314 153.265 110.568C153.265 109.046 154.175 107.691 155.809 106.763L174.547 95.9395C177.908 94.0088 183.535 94.213 187.379 96.4222L204.409 106.261C206.563 107.505 207.807 109.232 207.807 110.977C207.807 112.499 206.897 113.854 205.263 114.783L186.525 125.606C185.002 126.497 182.978 126.942 180.879 126.942ZM180.174 96.5707C178.409 96.5707 176.738 96.9048 175.512 97.6103L156.775 108.433C156.05 108.842 155.215 109.547 155.215 110.568C155.215 111.608 156.087 112.722 157.629 113.594L174.658 123.434C177.834 125.272 182.829 125.494 185.559 123.916L204.297 113.093C205.003 112.685 205.857 111.979 205.857 110.958C205.857 109.919 204.984 108.805 203.443 107.932L186.413 98.093C184.649 97.0905 182.346 96.5707 180.174 96.5707Z" fill="black"/>
<path d="M180.879 126.942V272.489L191.595 268.238L207.714 257.303L206.841 112.443L189.013 122.951L180.879 126.942Z" fill="#9F9C9A"/>
<path d="M174.213 183.602L164.054 177.735C162.996 177.123 162.142 175.489 162.142 174.097V148.849C162.142 147.438 162.996 146.806 164.054 147.401L174.213 153.267C175.271 153.88 176.125 155.513 176.125 156.906V182.154C176.125 183.546 175.271 184.196 174.213 183.602Z" fill="url(#paint11_linear_724_394)"/>
<path d="M171.817 180.112L161.937 174.412C160.451 173.558 159.263 171.479 159.263 169.771V144.17C159.263 142.462 160.47 141.776 161.937 142.63L171.817 148.329C173.302 149.183 174.491 151.262 174.491 152.97V178.571C174.491 180.279 173.284 180.966 171.817 180.112ZM161.937 144.078C161.157 143.632 160.526 143.985 160.526 144.894V170.495C160.526 171.405 161.157 172.5 161.937 172.946L171.817 178.645C172.597 179.091 173.228 178.738 173.228 177.828V152.246C173.228 151.336 172.597 150.241 171.817 149.796L161.937 144.078Z" fill="#16110D"/>
<path d="M167.434 159.338L166.301 158.688C164.389 157.574 162.829 154.604 162.829 152.042C162.829 149.48 164.389 148.31 166.301 149.406L167.434 150.055C169.347 151.169 170.907 154.14 170.907 156.702C170.907 159.282 169.366 160.452 167.434 159.338Z" fill="#D6E0D4"/>
<path d="M166.896 159.765L166.84 159.728C164.277 158.243 162.197 154.641 162.197 151.689C162.197 148.737 164.277 147.531 166.84 149.016C169.458 150.538 171.538 154.14 171.538 157.092C171.538 160.043 169.458 161.25 166.896 159.765ZM166.896 150.483C164.964 149.369 163.442 150.241 163.442 152.395C163.442 154.548 164.964 157.184 166.821 158.261L166.877 158.298C168.753 159.375 170.257 158.502 170.257 156.349C170.276 154.195 168.771 151.559 166.896 150.483Z" fill="#16110D"/>
<path d="M170.145 173.855L163.59 170.068C163.163 169.827 162.829 169.177 162.829 168.602V161.751C162.829 161.194 163.163 160.934 163.59 161.176L170.145 164.963C170.573 165.204 170.907 165.854 170.907 166.429V173.28C170.907 173.837 170.573 174.097 170.145 173.855Z" fill="#D6E0D4"/>
<path d="M170.09 174.561L163.646 170.848C162.847 170.384 162.197 169.251 162.197 168.323V161.324C162.197 160.396 162.847 160.025 163.646 160.489L170.09 164.202C170.888 164.666 171.538 165.798 171.538 166.727V173.725C171.538 174.635 170.888 175.025 170.09 174.561ZM163.646 161.937C163.534 161.881 163.46 161.918 163.46 162.048V169.047C163.46 169.177 163.553 169.326 163.646 169.381L170.09 173.094C170.201 173.15 170.276 173.113 170.276 172.983V165.984C170.276 165.854 170.183 165.706 170.09 165.65L163.646 161.937Z" fill="#16110D"/>
<path d="M190.276 269.37C189.682 269.37 189.125 269.222 188.623 268.925C187.305 268.163 186.562 266.511 186.562 264.376V155.439C186.562 151.707 188.791 147.493 191.632 145.86L198.243 142.054C199.654 141.237 201.066 141.144 202.217 141.812C203.536 142.574 204.279 144.226 204.279 146.361V255.298C204.279 259.03 202.05 263.244 199.209 264.877L192.598 268.683C191.799 269.129 191 269.37 190.276 269.37ZM200.509 143.298C200.026 143.298 199.543 143.502 199.172 143.725L192.56 147.53C190.35 148.811 188.475 152.431 188.475 155.439V264.376C188.475 265.769 188.883 266.845 189.57 267.235C190.22 267.625 191.038 267.309 191.595 266.994L198.206 263.188C200.416 261.907 202.291 258.287 202.291 255.28V146.342C202.291 144.95 201.883 143.873 201.196 143.483C200.992 143.353 200.75 143.298 200.509 143.298Z" fill="#F5B749"/>
<path d="M166.747 233.466C164.184 228.194 152.355 222.996 150.832 222.365C149.309 221.733 144.629 220.805 145.985 228.862C147.341 236.901 154.695 241.096 154.676 243.101C154.657 245.125 152.652 247.705 152.243 249.172C151.63 251.474 152.893 253.126 155.177 252.699C157.462 252.272 165.54 243.454 166.933 240.391C168.363 237.328 167.638 235.304 166.747 233.466Z" fill="#D6E0D4"/>
<path d="M167.62 233.058C164.779 227.21 151.76 221.715 151.222 221.474C149.848 220.898 147.861 220.675 146.449 221.808C144.926 223.033 144.444 225.446 145.056 229.029C145.224 229.976 145.484 230.849 145.781 231.703C145.781 232.464 145.855 233.336 146.022 234.376C146.932 239.778 150.535 243.417 152.8 245.849C152.652 246.127 152.503 246.424 152.355 246.684C151.909 247.538 151.519 248.262 151.333 248.931C150.925 250.434 151.185 251.808 152.02 252.718C152.262 252.978 152.54 253.163 152.856 253.331C152.596 253.832 152.392 254.296 152.28 254.667C151.668 256.969 152.93 258.621 155.215 258.194C157.499 257.767 165.577 248.949 166.97 245.886C167.824 244.03 167.88 242.544 167.601 241.264C167.694 241.096 167.787 240.929 167.843 240.799C169.44 237.328 168.567 234.97 167.62 233.058ZM147.656 223.311C148.009 223.033 148.473 222.94 148.919 222.94C149.513 222.94 150.089 223.107 150.479 223.256C154.917 225.112 163.869 229.735 165.893 233.893C166.561 235.267 167.081 236.678 166.561 238.627C163.664 233.485 152.336 228.472 150.85 227.86C149.996 227.507 148.121 227.062 146.895 228.194C146.542 225.725 146.802 223.998 147.656 223.311ZM153.45 251.4C153.079 250.991 152.986 250.267 153.209 249.432C153.339 248.986 153.692 248.318 154.063 247.594C154.1 247.538 154.119 247.483 154.156 247.427C154.49 247.891 154.695 248.281 154.695 248.615C154.676 249.543 154.249 250.583 153.766 251.585C153.655 251.511 153.525 251.474 153.45 251.4Z" fill="#16110D"/>
<path d="M489.563 294.414C489.563 294.414 480.686 301.432 462.747 290.181C444.807 278.931 430.025 279.637 420.164 286.32C410.303 293.003 427.685 233.559 428.502 232.148C429.319 230.737 462.747 199.438 465.904 199.438C469.08 199.438 505.664 235.676 505.664 235.676L489.563 294.414Z" fill="#D6E0D4"/>
<path d="M481.336 297.57C476.749 297.57 470.398 296.122 462.227 290.998C446.404 281.066 431.659 279.692 420.721 287.118C418.975 288.288 417.898 287.712 417.416 287.248C411.881 282.106 427.425 232.074 427.667 231.666C427.852 231.332 461.8 198.472 465.922 198.472C469.135 198.472 495.283 223.999 506.37 234.989L506.778 235.397L490.436 295.008L490.194 295.213C489.934 295.361 487.019 297.57 481.336 297.57ZM436.599 280.472C443.712 280.472 452.607 282.7 463.248 289.365C478.829 299.13 487.223 294.767 488.709 293.82L504.568 235.954C490.826 222.365 468.504 201.034 465.811 200.403C462.654 201.053 430.842 230.533 429.301 232.668C427.332 236.92 415.076 282.737 418.715 285.837C418.827 285.93 419.198 285.8 419.607 285.503C423.135 283.127 428.799 280.472 436.599 280.472Z" fill="#16110D"/>
<path d="M258.041 429.584C258.041 429.584 249.164 436.601 231.225 425.351C213.285 414.101 198.503 414.806 188.642 421.489C178.781 428.173 196.163 368.729 196.98 367.318C197.797 365.907 231.225 334.607 234.382 334.607C237.539 334.607 274.142 370.845 274.142 370.845L258.041 429.584Z" fill="#D6E0D4"/>
<path d="M249.833 432.74C245.264 432.74 238.895 431.292 230.723 426.168C214.901 416.236 200.156 414.862 189.199 422.288C187.472 423.457 186.376 422.882 185.894 422.418C180.378 417.294 195.903 367.244 196.145 366.817C196.33 366.482 230.278 333.623 234.4 333.623C237.613 333.623 263.761 359.149 274.848 370.14L275.256 370.548L258.914 430.159L258.672 430.363C258.431 430.512 255.497 432.74 249.833 432.74ZM205.077 415.623C212.19 415.623 221.085 417.832 231.726 424.516C247.196 434.225 255.683 429.918 257.187 428.971L273.046 371.105C259.304 357.516 236.982 336.185 234.289 335.554C231.132 336.204 199.32 365.684 197.779 367.819C195.81 372.07 183.554 417.888 187.194 420.988C187.305 421.081 187.676 420.951 188.085 420.654C191.613 418.278 197.296 415.623 205.077 415.623Z" fill="#16110D"/>
<path d="M217.594 468.866C217.594 468.866 207.547 468.959 196.627 462.09C185.726 455.24 180.174 451.805 176.961 447.758C173.748 443.711 194.176 408.438 194.176 408.438L209.051 385.195C209.051 385.195 232.153 393.438 242.553 404.465C252.934 415.493 229.683 446.124 229.683 446.124L217.594 468.866Z" fill="#D6E0D4"/>
<path d="M250.018 417.999C249.276 411.632 246.917 406.768 243.296 403.853C243.277 403.834 243.259 403.797 243.24 403.779C232.803 392.714 210.314 384.601 209.367 384.267L208.643 384.007L193.322 407.937C188.456 416.347 172.838 444.101 176.2 448.334C179.412 452.381 184.668 455.685 195.105 462.257L196.107 462.888C203.127 467.307 209.72 468.903 213.713 469.479C214.734 469.72 215.774 469.85 216.851 469.85C217.055 469.85 217.26 469.832 217.464 469.813C217.482 469.813 217.538 469.813 217.557 469.813C217.575 469.813 217.594 469.813 217.594 469.813H218.17L218.188 469.776C221.902 469.442 225.858 467.79 229.832 464.838C242.869 455.166 251.913 434.15 250.018 417.999ZM196.145 460.642C185.875 454.2 180.731 450.951 177.722 447.164C175.995 444.974 185.355 425.629 194.993 408.977L209.46 386.384C212.877 387.665 227.585 393.457 237.446 401.18C232.71 400.307 227.325 401.922 221.958 405.914C208.921 415.623 199.877 436.638 201.753 452.771C202.422 458.544 204.427 463.074 207.473 466.044C204.371 465.061 200.806 463.575 197.147 461.273L196.145 460.642Z" fill="#16110D"/>
<path d="M219.395 460.438C218.002 460.438 216.684 460.178 215.421 459.639C211.484 457.95 208.94 453.773 208.253 447.907C206.878 436.229 213.452 421.006 222.886 413.97C227.622 410.443 232.413 409.422 236.35 411.13C240.287 412.819 242.831 416.996 243.519 422.863C244.893 434.54 238.319 449.763 228.885 456.799C225.635 459.212 222.385 460.438 219.395 460.438ZM232.376 412.281C229.795 412.281 226.935 413.395 224.038 415.548C215.105 422.213 208.884 436.638 210.184 447.702C210.778 452.863 212.914 456.465 216.201 457.876C219.469 459.287 223.574 458.358 227.733 455.258C236.666 448.593 242.887 434.169 241.587 423.104C240.993 417.943 238.857 414.342 235.57 412.931C234.567 412.485 233.509 412.281 232.376 412.281Z" fill="#D6E0D4"/>
<path d="M219.395 460.419C217.185 460.419 215.124 459.751 213.378 458.414L211.688 456.818L213.917 456.669C216.35 456.521 219.024 455.388 221.661 453.439C230.593 446.774 236.815 432.349 235.515 421.285C235.032 417.108 233.509 413.933 231.15 412.114L229.368 410.74L231.689 410.369C238.096 409.979 242.59 414.75 243.537 422.863C244.911 434.54 238.337 449.763 228.903 456.799C225.672 459.194 222.385 460.419 219.395 460.419ZM216.851 458.099C219.989 459.138 223.815 458.173 227.733 455.258C236.666 448.593 242.887 434.169 241.587 423.104C240.9 417.275 238.17 413.432 234.252 412.504C235.923 414.639 237.019 417.553 237.427 421.062C238.802 432.739 232.228 447.962 222.794 454.998C220.825 456.465 218.801 457.504 216.851 458.099Z" fill="#D6E0D4"/>
<path d="M234.605 430.92C235.255 436.378 232.191 443.488 227.771 446.774C223.351 450.06 219.247 448.296 218.615 442.838C217.965 437.362 221.029 430.27 225.449 426.984C229.851 423.68 233.955 425.462 234.605 430.92Z" fill="url(#paint12_linear_724_394)"/>
<path d="M445.513 338.394C445.513 338.394 435.466 338.487 424.547 331.618C413.646 324.768 408.093 321.333 404.88 317.286C401.668 313.239 422.077 277.966 422.077 277.966L436.952 254.723C436.952 254.723 460.054 262.966 470.454 273.993C480.835 285.021 457.584 315.652 457.584 315.652L445.513 338.394Z" fill="#D6E0D4"/>
<path d="M477.956 287.545C477.213 281.177 474.855 276.313 471.234 273.399C471.215 273.38 471.196 273.343 471.178 273.325C460.741 262.26 438.252 254.147 437.305 253.813L436.581 253.553L421.26 277.483C416.394 285.893 400.776 313.647 404.137 317.88C407.35 321.927 412.606 325.231 423.042 331.803L424.045 332.434C431.065 336.853 437.658 338.449 441.65 339.025C442.672 339.266 443.712 339.396 444.789 339.396C444.993 339.396 445.197 339.378 445.402 339.359C445.42 339.359 445.476 339.359 445.494 339.359C445.513 339.359 445.532 339.359 445.532 339.359H446.107L446.126 339.322C449.84 338.988 453.796 337.335 457.77 334.384C470.788 324.693 479.85 303.678 477.956 287.545ZM424.064 330.169C413.813 323.728 408.65 320.479 405.642 316.692C403.914 314.501 413.274 295.157 422.912 278.504L437.379 255.911C440.796 257.192 455.504 262.984 465.365 270.707C460.63 269.834 455.244 271.45 449.877 275.441C436.841 285.15 427.797 306.165 429.672 322.298C430.359 328.072 432.346 332.601 435.392 335.572C432.291 334.588 428.725 333.103 425.067 330.801L424.064 330.169Z" fill="#16110D"/>
<path d="M447.314 329.984C445.922 329.984 444.603 329.724 443.34 329.186C439.403 327.496 436.859 323.319 436.172 317.453C434.798 305.776 441.372 290.553 450.806 283.517C455.541 279.989 460.332 278.968 464.269 280.676C468.206 282.366 470.751 286.543 471.438 292.409C472.812 304.086 466.238 319.309 456.804 326.345C453.573 328.74 450.323 329.984 447.314 329.984ZM460.295 281.809C457.714 281.809 454.854 282.923 451.957 285.076C443.024 291.741 436.803 306.166 438.103 317.23C438.698 322.391 440.833 325.993 444.12 327.404C447.389 328.814 451.493 327.886 455.653 324.786C464.585 318.121 470.806 303.696 469.506 292.632C468.912 287.471 466.776 283.869 463.489 282.459C462.505 282.013 461.428 281.809 460.295 281.809Z" fill="#D6E0D4"/>
<path d="M447.314 329.946C445.104 329.946 443.043 329.278 441.297 327.941L439.607 326.345L441.836 326.196C444.269 326.048 446.943 324.915 449.58 322.966C458.512 316.301 464.734 301.877 463.434 290.812C462.951 286.635 461.428 283.461 459.07 281.641L457.287 280.267L459.608 279.896C466.015 279.506 470.509 284.277 471.456 292.39C472.831 304.067 466.257 319.29 456.823 326.326C453.591 328.74 450.304 329.946 447.314 329.946ZM444.77 327.626C447.909 328.666 451.734 327.7 455.653 324.786C464.585 318.121 470.806 303.696 469.506 292.632C468.819 286.802 466.089 282.959 462.171 282.031C463.842 284.166 464.938 287.081 465.347 290.589C466.721 302.267 460.147 317.49 450.713 324.526C448.763 325.992 446.739 327.05 444.77 327.626Z" fill="#D6E0D4"/>
<path d="M462.524 300.447C463.174 305.924 460.11 313.016 455.69 316.302C451.27 319.588 447.166 317.824 446.534 312.366C445.884 306.908 448.949 299.798 453.369 296.512C457.788 293.226 461.893 294.989 462.524 300.447Z" fill="url(#paint13_linear_724_394)"/>
<path d="M448.689 135.501C410.637 113.557 391.101 110.011 391.101 110.011C390.822 109.733 390.432 109.659 389.968 109.937L378.473 116.583C378.473 116.583 370.227 121.039 350.171 121.094C330.096 121.169 279.397 132.549 241.383 156.312C203.369 180.074 176.311 211.411 157.517 235.156C138.724 258.9 137.442 262.371 131.314 267.421C125.186 272.471 90.3283 297.737 69.4176 319.216C48.5069 340.696 39.593 356.754 39.593 359.762C39.593 365.832 42.0072 368.951 42.0072 368.951L42.1743 385.251L39.593 400.381C39.593 400.381 39.5373 402.497 40.6886 403.76C40.6886 403.76 48.5069 417.033 81.6929 437.12C131.11 467.01 169.384 478.074 169.384 478.074L190.703 410.22L303.409 323.895L483.806 202.222L505.571 195.966L519.146 183.806C519.128 183.769 486.74 157.444 448.689 135.501Z" fill="#D6E0D4"/>
<path d="M450.1 142.741C412.049 120.797 392.512 117.252 392.512 117.252C392.234 116.973 391.844 116.899 391.379 117.177L379.884 123.823C379.884 123.823 371.639 128.279 351.582 128.335C331.507 128.409 280.809 139.789 242.794 163.552C204.762 187.315 177.722 218.652 158.929 242.396C140.135 266.14 138.854 269.612 132.725 274.661C126.597 279.711 91.7397 304.977 70.829 326.457C49.9183 347.917 41.0043 363.994 41.0043 367.002C41.0043 373.072 43.4185 376.191 43.4185 376.191L43.5857 392.491L41.0043 407.621C41.0043 407.621 40.9486 409.738 42.1 411C42.1 411 49.9183 424.274 83.1043 444.361C116.105 464.318 144.128 475.883 159.115 481.36C165.429 483.662 172.374 480.246 174.398 473.841L211.243 393.512L304.802 331.135L485.199 209.462L506.964 203.206L510.919 199.66C515.971 195.13 515.655 187.129 510.232 183.026C497.716 173.502 475.133 157.166 450.1 142.741Z" fill="url(#paint14_linear_724_394)"/>
<path d="M170.127 479.244L169.217 478.984C168.827 478.873 130.256 467.529 81.3033 437.919C48.8973 418.315 40.5961 405.282 39.9833 404.261C38.7019 402.757 38.7205 400.567 38.7205 400.307L41.3018 385.047L41.1347 369.211C40.5218 368.283 38.7205 365.071 38.7205 359.725C38.7205 356.234 47.8202 340.065 68.8237 318.493C85.5003 301.376 111.369 281.567 123.812 272.062C127.155 269.5 129.569 267.663 130.794 266.641C134.564 263.541 136.44 261.054 142.011 253.72C145.335 249.339 149.867 243.343 156.849 234.525C176.181 210.112 203.22 179.053 240.956 155.458C280.735 130.6 331.786 120.166 350.264 120.092C369.782 120.036 378.027 115.729 378.12 115.692L389.597 109.065C390.302 108.656 391.045 108.675 391.64 109.083C394.128 109.585 413.367 113.929 449.283 134.647C486.963 156.386 519.518 182.729 519.852 182.989L520.725 183.713L505.924 196.857L484.308 203.076L304.041 324.656L191.632 410.759L170.127 479.244ZM41.9146 403.667C43.586 406.081 53.0571 418.575 82.3061 436.248C126.895 463.204 162.773 474.937 168.846 476.83L189.979 409.589L190.221 409.404L302.927 323.078L483.491 201.294L505.181 195.056L517.735 183.806C512.275 179.443 482.395 155.996 448.318 136.336C410.897 114.764 391.25 110.995 391.045 110.958L390.748 110.903L390.525 110.68L379.067 117.4C378.696 117.605 370.357 121.986 350.282 122.041C331.99 122.097 281.459 132.456 241.996 157.11C204.502 180.539 177.611 211.43 158.372 235.731C151.408 244.531 146.877 250.509 143.553 254.89C137.888 262.372 135.976 264.896 132.039 268.145C130.776 269.185 128.343 271.041 124.982 273.622C112.576 283.108 86.7817 302.861 70.2165 319.866C49.4544 341.179 40.6704 357.033 40.6704 359.743C40.6704 365.35 42.8618 368.301 42.8803 368.339L43.0846 368.599V368.933L43.2517 385.232L40.6704 400.53C40.6704 400.864 40.819 402.312 41.5247 403.092L41.9704 403.593L41.9146 403.667Z" fill="#16110D"/>
<path d="M519.852 183.008C519.611 182.804 501.04 167.785 475.765 151.095C475.932 150.78 476.062 150.445 476.099 150.093C476.229 149.034 475.802 147.995 474.929 147.364L466.331 140.903C461.28 137.116 455.838 133.793 450.137 131.064L440.74 126.553C439.942 126.163 438.995 126.256 438.271 126.794C437.825 127.128 437.546 127.592 437.416 128.112C409.114 113.038 393.831 109.566 391.639 109.12C391.064 108.712 390.302 108.693 389.597 109.102L376.244 116.806L378.287 117.493C378.584 117.586 408.186 127.704 448.41 152.877C482.153 174.004 502.451 192.179 502.767 192.439L507.54 195.557L520.743 183.713L519.852 183.008ZM507.335 193.125L503.937 190.898C503.733 190.712 483.323 172.444 449.432 151.225C414.964 129.653 388.204 119.071 380.887 116.361L390.599 110.754L390.748 110.903L391.045 110.958C391.212 110.995 407.109 114.022 437.583 130.377L437.862 132.048C438.048 133.106 438.661 134.034 439.57 134.591L468.708 152.636C469.469 153.119 470.361 153.36 471.234 153.36C471.865 153.36 472.515 153.23 473.109 152.989L474.316 152.487C496.601 167.191 513.742 180.65 517.753 183.843L507.335 193.125Z" fill="#16110D"/>
<path d="M252.284 322.317C257.67 325.417 264.504 324.08 268.311 319.198C276.965 308.115 288.534 293.114 298.451 282.068C308.127 271.301 315.499 264.246 326.159 254.203C329.557 250.991 328.294 245.032 324.246 242.693L225.134 185.217C220.547 182.562 214.808 183.063 210.76 186.479C201.419 194.369 191.613 204.487 181.975 215.384C169.96 228.955 156.682 246.517 149.866 255.205C147.564 258.139 148.399 262.408 151.631 264.265L252.284 322.317Z" fill="#D6E0D4"/>
<path d="M329.019 248.429C328.684 245.626 327.087 243.157 324.729 241.783L225.598 184.307C224.985 183.954 224.335 183.639 223.648 183.379L223.091 183.156L222.998 183.23C218.615 181.801 213.713 182.673 210.11 185.699C201.512 192.958 192.059 202.445 181.214 214.697C171.316 225.892 160.452 239.89 153.265 249.172C151.686 251.195 150.275 253.015 149.068 254.556C147.805 256.171 147.304 258.25 147.694 260.274C148.084 262.297 149.328 264.042 151.111 265.063L251.764 323.133C253.844 324.34 256.147 324.916 258.431 324.916C262.461 324.916 266.435 323.115 269.054 319.773L271.561 316.562C279.862 305.924 290.187 292.687 299.157 282.7C308.591 272.192 315.889 265.175 326.79 254.89C328.072 253.683 328.833 252.049 329.019 250.249C329.093 249.655 329.093 249.042 329.019 248.429ZM325.472 253.423C314.533 263.745 307.217 270.781 297.727 281.344C288.887 291.184 278.896 303.956 270.799 314.371L170.201 256.338C168.901 255.595 168.01 254.333 167.713 252.866C167.434 251.4 167.787 249.896 168.716 248.726C169.923 247.186 171.353 245.348 172.931 243.306C180.1 234.06 190.926 220.081 200.787 208.961C208.94 199.753 216.554 191.863 223.462 185.495C223.852 185.662 224.261 185.829 224.651 186.052L323.782 243.528C325.583 244.568 326.864 246.554 327.124 248.726C327.18 249.172 327.18 249.617 327.143 250.044C326.976 251.363 326.419 252.532 325.472 253.423ZM267.549 318.604C264.058 323.078 257.688 324.322 252.767 321.481L152.113 263.411C150.813 262.668 149.903 261.406 149.625 259.939C149.346 258.473 149.699 256.969 150.628 255.8C151.835 254.259 153.246 252.439 154.825 250.397C161.993 241.152 172.838 227.173 182.699 216.034C193.471 203.856 202.849 194.443 211.391 187.24C214.196 184.883 217.91 184.029 221.382 184.808C214.641 191.102 207.231 198.769 199.339 207.68C189.441 218.856 178.595 232.854 171.408 242.136C169.83 244.178 168.419 245.997 167.193 247.557C165.93 249.172 165.429 251.251 165.819 253.275C166.209 255.298 167.453 257.043 169.236 258.064L269.629 315.986L267.549 318.604Z" fill="#16110D"/>
<path d="M438.122 192.995C450.416 190.285 460.852 188.93 467.724 188.911C473.871 188.892 478.903 188.447 482.952 187.871L483.119 187.741C483.119 187.741 450.49 162.92 420.22 146.398C389.949 129.857 378.602 125.531 378.602 125.531C374.238 126.311 368.463 126.924 361.09 126.942C354.609 126.961 344.915 128.167 333.494 130.599C332.213 130.878 331.934 132.567 333.067 133.217L437.658 192.958L438.122 192.995Z" fill="#D6E0D4"/>
<path d="M483.695 186.98C483.36 186.739 450.657 161.918 420.684 145.544C391.175 129.43 378.992 124.566 378.435 124.566C373.31 125.476 367.46 125.94 361.09 125.958C354.238 125.977 344.358 127.276 333.308 129.634C332.324 129.838 331.581 130.618 331.433 131.62C331.284 132.604 331.748 133.57 332.603 134.052L437.193 193.793L438.215 193.979L438.289 193.961L438.382 193.979L438.53 193.942C450.119 191.38 460.834 189.913 467.909 189.876C469.135 189.876 470.286 189.839 471.419 189.802C471.679 189.802 471.921 189.784 472.181 189.784C472.459 189.765 472.738 189.765 472.998 189.746L475.783 189.635L475.728 189.598C478.29 189.431 480.742 189.171 483.082 188.818L483.342 188.781L484.66 187.704L483.695 186.98ZM467.724 187.946C460.444 187.964 449.933 189.412 438.14 192.011L341.962 137.06C348.926 135.909 354.962 135.296 359.53 135.278C365.9 135.259 371.768 134.795 376.95 133.904C378.751 134.628 390.729 139.622 418.195 154.622C437.676 165.278 458.253 179.443 470.082 187.908C469.284 187.927 468.504 187.946 467.724 187.946ZM339.158 135.575L333.55 132.363C333.327 132.233 333.308 132.029 333.327 131.918C333.345 131.825 333.401 131.602 333.68 131.546C344.618 129.226 354.349 127.945 361.072 127.908C367.441 127.889 373.31 127.425 378.491 126.534C380.292 127.258 392.271 132.252 419.737 147.252C445.606 161.38 473.536 181.838 480.742 187.203C478.365 187.5 475.839 187.686 473.221 187.816C461.8 179.573 439.849 164.276 419.105 152.933C389.596 136.819 377.414 131.955 376.857 131.955C371.713 132.864 365.881 133.328 359.512 133.347L339.158 135.575Z" fill="#16110D"/>
<path d="M79.1298 366.315L82.6212 382.132C83.1597 385.14 84.8311 387.85 87.2824 389.669L90.5694 392.12C97.1435 397.04 98.7406 398.525 106.28 401.811L112.632 404.577C115.807 405.969 119.373 406.248 122.734 405.394L136.996 401.439C140.079 400.66 140.711 396.538 137.981 394.886L116.42 380.406C113.82 378.809 111.146 377.305 108.435 375.894L83.5868 362.992C81.3026 361.86 78.6656 363.809 79.1298 366.315Z" fill="#D6E0D4"/>
<path d="M104.943 384.044C104.126 384.044 103.328 383.821 102.641 383.413L98.4064 380.925C97.1808 380.201 96.4008 378.92 96.3451 377.491L95.6208 373.815C95.528 372.367 96.1222 371.216 97.1808 370.584C98.2207 369.972 99.5021 369.972 100.542 370.584L110.737 376.637C111.852 377.305 112.483 378.512 112.39 379.793C112.297 381.092 111.499 382.187 110.31 382.689L106.429 383.747C106.058 383.932 105.5 384.044 104.943 384.044ZM98.8521 372.07C98.6107 372.07 98.3693 372.125 98.165 372.255C97.7193 372.515 97.4965 372.998 97.5336 373.573L98.2579 377.268C98.3136 378.177 98.7221 378.864 99.3907 379.254L103.625 381.742C104.275 382.132 105.166 382.206 105.798 381.927L109.679 380.869C110.069 380.702 110.422 380.22 110.459 379.663C110.496 379.106 110.217 378.586 109.753 378.307L99.5578 372.255C99.335 372.144 99.0935 372.07 98.8521 372.07Z" fill="#16110D"/>
<path d="M143.292 384.36L116.197 367.225C113.579 365.628 110.868 364.106 108.156 362.676L83.3085 349.774C81.9157 349.068 80.2814 349.198 79.0372 350.127C77.7929 351.055 77.1801 352.577 77.4587 354.155L77.5144 354.452C76.753 354.508 75.9916 354.749 75.3602 355.232C74.1159 356.16 73.5031 357.682 73.7816 359.223L77.273 375.04C77.8672 378.308 79.65 381.204 82.3056 383.19L85.5927 385.641C92.2224 390.597 99.4465 394.793 107.023 398.098L113.375 400.864C115.473 401.773 117.739 402.237 120.023 402.237C121.397 402.237 122.771 402.07 124.127 401.718L138.371 397.763C140.191 397.299 141.491 395.87 141.769 394.013C141.844 393.586 141.825 393.159 141.769 392.732L142.029 392.658C143.849 392.194 145.149 390.765 145.428 388.908C145.706 387.089 144.889 385.344 143.292 384.36ZM139.838 393.753C139.708 394.589 139.132 395.591 137.869 395.926L123.626 399.88C120.487 400.678 117.126 400.4 114.155 399.1L107.803 396.334C100.356 393.085 93.281 388.964 86.7626 384.1L83.4756 381.649C81.21 379.96 79.6872 377.491 79.1857 374.669L75.6944 358.871C75.5459 358.072 75.8616 357.293 76.5301 356.81C77.1987 356.309 78.0344 356.253 78.7586 356.624L103.606 369.527C106.299 370.938 108.973 372.441 111.517 374.001L138.631 391.136C139.708 391.786 139.968 392.918 139.838 393.753ZM143.515 388.648C143.385 389.484 142.809 390.486 141.546 390.82L141.194 390.913C140.822 390.245 140.284 389.688 139.634 389.298L112.52 372.163C109.902 370.566 107.19 369.044 104.479 367.614L79.6314 354.712C79.6129 354.693 79.5757 354.693 79.5572 354.675L79.3529 353.784C79.2043 352.967 79.52 352.187 80.17 351.705C80.8385 351.203 81.6742 351.148 82.3985 351.519L107.246 364.421C109.92 365.814 112.595 367.317 115.157 368.895L142.252 386.031H142.271C143.366 386.68 143.626 387.813 143.515 388.648Z" fill="#16110D"/>
<path d="M58.6465 330.968C53.0567 337.298 48.9154 342.793 46.1298 347.063C46.1298 347.138 45.7026 358.536 50.531 363.103C53.6324 366.018 56.7894 368.765 58.665 370.362C59.7607 371.29 61.1721 371.717 62.602 371.55L65.5177 371.216C67.6904 370.975 69.2504 369.025 69.009 366.853C68.3219 360.69 66.5762 348.549 62.9549 339.86C61.4507 336.184 59.965 333.27 58.6465 330.968Z" fill="#D6E0D4"/>
<path d="M57.4207 348.14C50.9952 347.639 49.4539 358.22 49.1753 360.857C49.7696 361.803 50.401 362.676 50.8095 363.084C53.9108 365.999 57.0679 368.747 58.9435 370.343C59.3892 370.714 59.8906 370.993 60.4292 371.197C60.4292 371.178 61.8591 357.181 59.7235 349.476C59.1107 348.678 58.3493 348.214 57.4207 348.14Z" fill="url(#paint15_linear_724_394)"/>
<path d="M69.9745 366.742C69.2503 360.318 67.486 348.214 63.8647 339.489C62.4905 336.184 61.0234 333.158 59.5006 330.485L58.8321 329.315L57.9407 330.336C51.5895 337.54 47.5782 343.128 45.3311 346.543L45.1825 346.766L45.164 347.045C45.1454 347.527 44.7554 358.982 49.8809 363.827C52.908 366.686 55.9907 369.378 58.0521 371.123C58.9249 371.866 60.002 372.33 61.1348 372.497L61.3391 372.571V372.515C61.562 372.534 61.7848 372.571 62.0262 372.571C62.2676 372.571 62.4905 372.552 62.7319 372.534L65.6475 372.2C68.3217 371.866 70.2717 369.415 69.9745 366.742ZM59.6677 369.601L59.6492 369.582C57.625 367.856 54.5608 365.201 51.5523 362.361C50.828 361.674 49.2124 359.037 48.5253 357.664C48.711 355.325 49.7695 349.068 52.6294 346.581C53.558 345.764 54.5793 345.448 55.7493 345.522C56.3436 345.578 56.8821 345.875 57.365 346.451C60.4106 350.089 60.262 362.416 59.6677 369.601ZM65.4061 370.232L62.4905 370.566C62.1562 370.603 61.8405 370.603 61.5248 370.548C61.8777 366.556 63.0476 350.219 58.8321 345.17C58.0149 344.186 57.0121 343.647 55.8793 343.555C54.0965 343.425 52.518 343.982 51.1623 345.244C49.1938 347.063 48.061 350.071 47.3925 352.688C47.0768 350.182 47.0582 348.066 47.0767 347.342C49.1938 344.13 52.8337 339.08 58.4606 332.62C59.7049 334.922 60.912 337.465 62.0634 340.194C65.6104 348.715 67.3189 360.597 68.0432 366.927C68.2289 368.58 67.0403 370.046 65.4061 370.232Z" fill="#211602"/>
<path d="M169.57 418.816C169.57 418.816 155.308 425.313 149.773 423.29C143.905 421.136 138.742 419.038 135.975 417.46C132.633 415.548 131.165 409.366 132.837 408.215C140.581 402.906 171.594 398.135 181.399 397.893C187.342 397.763 190.072 398.283 192.412 399.211C193.935 399.824 195.755 401.291 192.839 403.778L169.57 418.816Z" fill="#D6E0D4"/>
<path d="M162.067 421.693C162.067 421.675 165.094 415.957 164.556 411.409C163.739 410.61 162.624 409.979 161.009 409.682C153.376 408.29 144.444 415.734 140.599 419.391C143.199 420.505 146.338 421.731 149.718 422.974C152.652 424.033 158.26 423.141 162.067 421.693Z" fill="url(#paint16_linear_724_394)"/>
<path d="M192.059 404.317C191.892 403.779 191.52 403.314 190.926 403.073C189.032 402.312 186.135 401.569 181.956 401.384C183.312 404.503 180.712 408.605 177.908 411.78C177.202 412.912 176.348 414.008 175.475 415.01L192.059 404.317Z" fill="url(#paint17_linear_724_394)"/>
<path d="M193.879 398.71C193.563 398.58 193.173 398.45 192.783 398.32H192.765C190.351 397.355 187.602 396.779 181.381 396.928C180.898 396.947 180.341 396.965 179.747 397.002H179.728C178.799 397.058 177.76 397.132 176.627 397.225L173.395 397.485L173.544 397.541C160.192 399.026 138.761 402.98 132.298 407.417C131.518 407.955 131.128 409.014 131.203 410.462C131.314 413.172 132.948 416.829 135.511 418.296C138.074 419.763 142.754 421.749 149.458 424.199C150.293 424.515 151.315 424.645 152.429 424.645C154.286 424.645 156.44 424.274 158.594 423.735C159.839 423.457 161.046 423.123 162.104 422.733C162.197 422.714 162.271 422.677 162.346 422.659C162.383 422.64 162.42 422.64 162.457 422.621H162.476C166.45 421.322 169.7 419.855 169.978 419.725L173.228 417.628C173.228 417.628 173.247 417.609 173.265 417.59L173.321 417.553L194.269 404.001C195.253 403.426 195.81 402.349 195.717 401.216C195.625 400.084 194.919 399.119 193.879 398.71ZM179.765 411.056C181.789 408.494 183.461 405.523 183.312 402.832C183.219 401.254 182.551 399.917 181.288 398.859C181.325 398.859 181.381 398.859 181.437 398.859C186.488 398.729 189.905 399.416 192.096 400.14C192.839 400.455 193.359 400.864 193.415 401.254C193.489 401.681 193.043 402.33 192.319 402.962L190.685 404.02L179.765 411.056ZM161.417 420.895C160.21 421.285 158.984 421.638 157.796 421.916C154.899 422.529 151.89 422.714 150.108 422.065C145.168 420.245 141.342 418.704 138.705 417.442C141.695 414.49 151.389 405.598 159.226 407.046C161.194 407.398 162.476 408.252 163.144 409.663C164.723 412.931 162.569 418.574 161.417 420.895ZM169.106 417.962C167.898 418.5 166.06 419.28 163.943 420.041C165.076 417.293 166.58 412.448 164.964 408.939C164.036 406.897 162.216 405.635 159.597 405.152C149.996 403.407 138.742 414.602 136.7 416.736C136.625 416.699 136.551 416.662 136.477 416.625C134.527 415.511 133.227 412.522 133.134 410.406C133.097 409.459 133.32 409.088 133.394 409.032C140.172 404.372 165.54 400.103 177.741 399.1C179.895 399.917 181.084 401.049 181.344 402.572C182.068 406.99 175.03 413.729 172.225 415.994L169.106 417.962Z" fill="#1B1202"/>
<path d="M525.962 237.848C525.59 231.721 522.786 228.881 521.69 228.008L518.775 195.725L520.52 185.792C520.743 184.493 520.427 183.398 519.666 182.859C519.072 182.432 518.31 182.432 517.605 182.841L506.128 189.468C506.054 189.505 497.79 193.812 478.272 193.868C459.794 193.924 408.743 204.357 368.964 229.234C331.21 252.829 304.171 283.888 284.857 308.301C277.875 317.119 273.325 323.115 270.019 327.496C264.448 334.848 262.572 337.317 258.802 340.417C257.558 341.438 255.144 343.295 251.82 345.838C239.377 355.362 213.508 375.152 196.832 392.268C195.587 393.549 194.547 394.7 193.545 395.851C192.802 396.705 192.059 397.522 191.242 398.395L189.979 399.731L191.78 400.028C193.377 400.288 194.12 400.771 194.269 401.105C194.399 401.421 194.12 401.922 193.916 402.201C188.735 409.738 184.631 414.713 180.248 418.797C177.722 421.136 175.308 422.64 173.172 423.958C168.344 426.947 164.853 429.101 166.914 437.548C167.026 438.012 167.026 438.123 167.007 438.216C166.951 438.439 166.896 438.68 166.877 439.126C166.858 439.924 167.341 440.889 167.88 442.022C168.214 442.709 168.567 443.414 168.697 443.915C169.384 446.514 169.384 446.589 169.291 447.405C169.235 447.925 169.161 448.724 169.18 450.339L169.198 451.898C169.198 452.938 169.235 456.075 167.1 458.21C165.596 459.714 163.274 460.494 160.191 460.494C150.089 460.494 117.163 444.305 90.8296 429.268C67.1705 415.753 50.6053 403.389 41.6171 392.51L40.2614 390.858L38.6643 400.641C38.6643 400.882 38.6458 403.092 39.9271 404.595C40.54 405.598 48.8411 418.649 81.2471 438.253C130.255 467.827 168.827 479.151 169.031 479.207C169.458 479.429 169.96 479.541 170.535 479.541C171.297 479.541 172.225 479.337 173.358 478.928C177.277 477.536 187.676 473.266 193.526 470.853C196.312 469.702 198.039 466.805 197.686 463.817C197.036 458.08 196.237 446.793 198.28 435.673C202.18 414.268 211.688 398.822 226.563 389.744C232.45 386.161 237.836 385.567 242.59 387.999C250.278 391.934 254.457 402.72 255.088 411.074C255.515 416.607 255.645 421.842 255.497 426.613C255.441 428.191 256.24 429.639 257.595 430.437C258.969 431.254 260.604 431.254 261.978 430.437L421.705 336.222C423.804 334.997 424.992 332.639 424.732 330.244C424.027 323.672 423.432 310.733 427.239 297.83C433.163 277.762 442.616 264.469 456.135 257.211C462.691 253.683 468.801 253.219 473.778 255.874C479.572 258.956 483.304 265.917 484.27 275.478C484.957 282.199 485.422 287.749 485.644 291.964C485.719 293.56 486.629 294.953 488.04 295.695C489.47 296.438 491.141 296.363 492.497 295.509C499.814 290.924 512.888 282.05 518.162 274.03C525.386 263.114 526.463 246.146 525.962 237.848Z" fill="#979997"/>
<path d="M511.569 201.665C511.105 201.981 510.715 202.296 510.455 202.593C507.428 206.158 495.32 222.495 495.32 225.836C495.32 226.059 495.376 226.096 495.431 226.133C496.545 226.764 500.371 225.465 505.218 223.181C513.352 219.097 512.182 205.916 511.569 201.665Z" fill="#D6E0D4"/>
<path d="M517.605 203.206L517.215 198.973C517.029 199.047 516.825 199.122 516.602 199.214C516.528 199.252 516.453 199.27 516.379 199.307C516.268 199.344 516.138 199.4 516.026 199.456C515.822 199.549 515.618 199.623 515.395 199.716C515.005 199.883 514.596 200.068 514.188 200.254C513.909 200.384 513.649 200.514 513.389 200.644C513.389 200.644 513.371 200.644 513.371 200.663C513.835 203.466 515.153 213.528 511.105 220.23C514.596 218.355 517.568 216.61 518.738 215.923L517.605 203.206Z" fill="#D6E0D4"/>
<path d="M259.36 366.779H262.442C267.438 366.779 271.691 363.047 272.341 358.09L272.619 356.03C272.712 355.25 272.359 354.507 271.672 354.099C271.004 353.709 270.168 353.746 269.536 354.21L258.004 362.639C257.187 363.233 256.871 364.235 257.168 365.201C257.503 366.147 258.357 366.779 259.36 366.779ZM259.155 364.198L270.688 355.77L270.428 357.83C269.908 361.822 266.491 364.829 262.461 364.829H259.378C259.155 364.829 259.081 364.681 259.044 364.588C259.007 364.477 258.988 364.328 259.155 364.198Z" fill="#D6E0D4"/>
<path d="M498.477 237.309C495.32 237.309 492.757 240.521 492.757 244.475C492.757 248.429 495.32 251.641 498.477 251.641C501.634 251.641 504.197 248.429 504.197 244.475C504.197 240.521 501.634 237.309 498.477 237.309ZM498.477 249.71C496.397 249.71 494.707 247.371 494.707 244.475C494.707 241.598 496.397 239.24 498.477 239.24C500.557 239.24 502.247 241.579 502.247 244.475C502.265 247.371 500.557 249.71 498.477 249.71Z" fill="#D6E0D4"/>
<path d="M455.56 207.68C445.977 208.107 412.104 211.708 368.166 239.37V239.333L366.606 240.372C365.603 241.003 364.619 241.635 363.616 242.303C362.075 243.305 360.552 244.345 359.047 245.403L358.472 245.793V245.812C331.266 264.952 309.556 290.2 295.275 309.47H295.257C295.257 309.488 295.238 309.507 295.22 309.563C287.16 320.46 281.459 329.445 278.525 334.328C277.67 335.72 277.577 337.373 278.153 338.412L278.135 338.431C278.135 338.431 278.172 338.468 278.172 338.486C278.227 338.598 278.265 338.728 278.339 338.821C278.413 338.913 278.506 338.951 278.599 339.006C280.549 341.457 287.921 351.537 288.59 364.83C289.296 378.735 289.11 389.168 288.831 395.461C288.757 397.188 289.611 398.766 291.097 399.638C291.283 399.75 291.487 399.805 291.691 399.898L253.788 422.733L254.791 424.385L300.122 397.058L376.615 350.98L387.052 344.668L425.364 321.574L424.361 319.903L417.62 323.969C418.084 322.818 418.325 321.574 418.288 320.312C418.158 314.761 418.548 305.98 421.222 295.639C424.082 284.519 431.102 273.436 435.021 267.811C437.379 264.432 438.01 260.088 436.673 256.152C434.965 251.103 431.826 244.401 430.768 242.192C440.202 234.617 446.59 227.915 450.861 222.532C450.861 222.532 450.88 222.513 450.88 222.494C453.833 218.782 455.801 215.681 457.046 213.379C457.955 211.727 458.085 209.759 457.361 208.608C456.971 207.996 456.34 207.643 455.56 207.68ZM415.484 218.336L428.317 241.709C424.584 244.642 420.405 247.705 415.688 250.861C404.936 258.083 390.451 267.718 375.148 277.799L368.556 241.43C386.124 230.292 402.057 223.051 415.484 218.336ZM362.985 285.8L360.477 246.777L366.773 242.581L373.366 278.95C369.949 281.233 366.476 283.516 362.985 285.8ZM358.62 248.095L361.127 287.025C339.957 300.912 318.953 314.557 305.489 323.022C304.524 323.078 300.215 323.096 298.247 319.346C295.591 314.315 296.631 311.196 296.91 310.528C310.912 291.629 332.12 266.975 358.62 248.095ZM280.177 335.312C282.833 330.931 287.717 323.189 294.551 313.74C294.644 315.466 295.145 317.657 296.501 320.274C298.061 323.226 300.661 324.34 302.722 324.749C298.395 327.44 295.034 329.501 292.991 330.634C286.231 334.421 282.109 336.407 279.787 337.41C279.75 337.373 279.732 337.335 279.713 337.317C279.657 336.927 279.695 336.129 280.177 335.312ZM294.885 397.949C294.013 398.469 292.973 398.487 292.1 397.968C291.227 397.448 290.744 396.538 290.781 395.536C291.06 389.186 291.246 378.697 290.54 364.718C289.908 352.317 283.892 342.812 281.05 338.969C284.374 337.484 288.701 335.275 293.975 332.323C302.165 327.737 331.488 308.802 361.276 289.253L368.073 284.779C369.429 287.526 373.848 297.199 374.963 309.173C376.207 322.521 374.963 345.987 374.74 349.829L306.659 390.876L294.885 397.949ZM434.835 256.876C435.949 260.162 435.429 263.857 433.405 266.734C429.412 272.452 422.262 283.776 419.31 295.194C416.58 305.738 416.19 314.724 416.32 320.386C416.375 323.003 415.02 325.473 412.773 326.828L385.715 343.202L376.727 348.623C377.061 342.292 378.027 321.388 376.875 309.006C375.687 296.308 371.026 286.338 369.689 283.721L375.501 279.896C391.064 269.649 405.827 259.828 416.747 252.495C421.371 249.395 425.494 246.387 429.171 243.491C430.359 245.942 433.256 252.198 434.835 256.876ZM429.839 240.465L417.323 217.686C427.202 214.326 435.633 212.358 442.245 211.189C442.597 211.207 446.237 211.393 448.41 214.772C450.509 218.076 449.821 220.749 449.339 221.343C445.197 226.579 438.995 233.095 429.839 240.465ZM455.356 212.507C454.501 214.066 453.313 215.997 451.697 218.243C451.53 216.869 451.047 215.329 450.044 213.751C449.041 212.173 447.797 211.17 446.59 210.52C450.583 209.963 453.666 209.722 455.671 209.629C455.894 209.759 456.154 211.04 455.356 212.507Z" fill="black"/>
<path d="M359.27 306.165C358.676 305.831 357.97 305.85 357.395 306.221L345.342 314.018C343.671 315.113 342.594 316.951 342.464 318.938L342.315 321.648C342.278 322.335 342.612 322.966 343.207 323.3C343.485 323.467 343.801 323.542 344.117 323.542C344.451 323.542 344.804 323.449 345.101 323.245L357.209 315.355C358.899 314.259 359.976 312.384 360.069 310.379L360.199 307.799C360.199 307.131 359.865 306.499 359.27 306.165ZM358.1 310.287C358.026 311.679 357.302 312.978 356.113 313.74L344.265 321.462L344.414 319.049C344.488 317.675 345.231 316.394 346.401 315.633L358.212 308.003L358.1 310.287Z" fill="#D6E0D4"/>
<path d="M404.787 280.175L404.639 282.885C404.602 283.572 404.936 284.203 405.53 284.538C405.809 284.705 406.124 284.779 406.422 284.779C406.756 284.779 407.109 284.686 407.406 284.482L419.495 276.573C421.185 275.478 422.244 273.603 422.337 271.58L422.448 268.999C422.485 268.331 422.132 267.7 421.557 267.365C420.962 267.031 420.257 267.05 419.681 267.421L407.647 275.237C405.957 276.332 404.899 278.17 404.787 280.175ZM408.706 276.87L420.517 269.222L420.405 271.505C420.331 272.898 419.607 274.197 418.437 274.958L406.589 282.7L406.719 280.286C406.793 278.913 407.536 277.632 408.706 276.87Z" fill="#D6E0D4"/>
<path d="M307.254 311.976C313.549 312.756 323.095 322.428 324.283 323.672C325.472 324.934 328.09 329.13 319.399 330.374C310.708 331.618 303.799 325.918 301.738 326.587C299.695 327.255 297.764 330.002 296.408 330.838C294.291 332.156 292.156 331.469 291.766 329.149C291.376 326.828 297.485 316.283 300.104 313.963C302.741 311.661 305.062 311.698 307.254 311.976Z" fill="#16110D"/>
<path d="M294.328 332.472C293.808 332.472 293.325 332.379 292.861 332.175C291.765 331.692 291.041 330.671 290.818 329.316C290.317 326.308 296.965 315.466 299.472 313.257C302.425 310.658 305.099 310.732 307.365 311.029C314.31 311.902 324.561 322.577 324.989 323.022C326.047 324.136 326.976 325.937 326.381 327.645C325.731 329.538 323.41 330.782 319.529 331.339C313.679 332.175 308.628 330.021 305.285 328.592C304.022 328.053 302.462 327.385 302.035 327.496C300.977 327.83 299.844 328.963 298.841 329.965C298.172 330.634 297.522 331.265 296.928 331.636C296.074 332.193 295.164 332.472 294.328 332.472ZM305.471 312.812C303.985 312.812 302.462 313.201 300.754 314.705C298.21 316.952 292.434 327.236 292.731 329C292.805 329.483 293.047 330.132 293.66 330.411C294.273 330.689 295.09 330.541 295.907 330.021C296.315 329.761 296.872 329.204 297.485 328.61C298.637 327.459 299.955 326.16 301.459 325.677C302.537 325.324 303.948 325.918 306.065 326.828C309.389 328.257 313.958 330.207 319.269 329.427C323.354 328.833 324.339 327.663 324.561 327.014C324.896 326.067 324.116 324.897 323.596 324.359C323.484 324.247 313.419 313.721 307.142 312.942C306.585 312.867 306.028 312.812 305.471 312.812Z" fill="black"/>
<path d="M162.494 471.391C159.579 465.821 161.139 461.477 161.751 460.159C161.213 460.215 160.693 460.271 160.117 460.271C159.95 460.271 159.764 460.252 159.579 460.252C158.78 462.48 157.926 466.935 160.73 472.319C162.104 474.955 164.24 477.072 166.246 478.631C168.121 479.244 169.143 479.541 169.18 479.541C169.625 479.763 170.127 479.893 170.721 479.893C171.018 479.893 171.371 479.838 171.724 479.782C169.997 478.891 164.871 475.958 162.494 471.391Z" fill="#D6E0D4"/>
<path d="M182.495 456.149C176.162 459.138 170.368 458.915 166.859 458.303C166.209 458.953 165.391 459.435 164.463 459.807C165.986 460.215 168.326 460.679 171.26 460.679C174.695 460.679 178.874 460.048 183.349 457.932C190.221 454.683 194.696 448.835 197.296 444.398C197.426 442.616 197.593 440.796 197.835 438.977C196.479 442.077 191.688 451.805 182.495 456.149Z" fill="#D6E0D4"/>
<path d="M526.37 241.821C526.389 240.243 526.352 238.776 526.277 237.532C526.222 236.567 526.092 235.694 525.924 234.877C525.553 237.885 522.693 255.447 505.757 265.583C495.45 271.747 487.446 274.049 483.88 274.847C483.917 275.144 483.973 275.423 484.01 275.72C484.047 276.091 484.084 276.462 484.122 276.834C487.761 276.054 495.988 273.733 506.778 267.291C518.942 260.014 524.16 249.024 526.37 241.821Z" fill="#D6E0D4"/>
<path d="M134.007 429.416C133.821 429.342 115.269 422.436 97.6639 411.873C80.0402 401.291 67.0778 391.656 66.9478 391.563L65.6293 390.579L63.7537 404.651L64.2365 404.985C64.3294 405.06 74.2833 412.151 93.2998 423.513C112.353 434.893 132.354 443.08 132.558 443.173L133.803 443.674L134.694 429.676L134.007 429.416Z" fill="#16110D"/>
<path d="M67.5049 402.702V395.963C67.5049 394.199 66.7806 392.492 65.5178 391.266L42.1187 368.172L42.2858 384.472L42.1187 385.418C53.5397 396.52 60.6709 401.551 64.8122 404.187C65.9635 404.93 67.5049 404.094 67.5049 402.702Z" fill="#D6E0D4"/>
<path d="M165.54 437.213C165.54 437.213 174.751 438.847 174.751 445.437C174.751 452.028 171.167 454.59 167.174 454.608C159.504 454.627 139.801 445.549 132.911 442.244C131.425 441.539 130.497 440.054 130.497 438.401V432.869C130.497 431.198 132.038 429.954 133.672 430.307L165.54 437.213Z" fill="#D6E0D4"/>
<path d="M58.1452 390.821C56.6967 387.033 53.2797 384.824 50.5312 385.882C49.1013 386.421 48.1542 387.757 47.7456 389.41C51.2741 392.658 54.5982 395.517 57.7181 397.949C58.9252 396.223 59.1852 393.494 58.1452 390.821Z" fill="url(#paint18_linear_724_394)"/>
<path d="M66.1863 390.579L41.1158 365.833L41.32 384.323L41.0786 385.771L41.45 386.124C50.1783 394.608 57.6437 400.771 64.2921 405.004C64.7378 405.301 65.2578 405.431 65.7592 405.431C66.2049 405.431 66.6506 405.32 67.0777 405.097C67.9691 404.614 68.4891 403.723 68.4891 402.702V395.963C68.4705 393.939 67.6348 391.972 66.1863 390.579ZM46.037 387.813C45.9999 385.585 46.9098 383.803 48.4141 383.228C49.454 382.838 50.6611 383.023 51.8311 383.785C53.0939 384.601 54.1339 385.957 54.7653 387.609C55.8424 390.431 55.3781 393.382 53.7253 394.645C51.3111 392.621 48.7298 390.319 46.037 387.813ZM66.5392 402.702C66.5392 403.129 66.2606 403.333 66.1306 403.389C66.0006 403.444 65.6849 403.593 65.3321 403.352C62.175 401.347 58.8137 398.878 55.2295 395.926C57.3466 394.032 57.9595 390.431 56.6038 386.903C55.8238 384.88 54.5239 383.19 52.9082 382.151C51.1997 381.037 49.3612 380.777 47.7455 381.408C45.907 382.114 44.6442 383.859 44.2542 386.105C43.8828 385.752 43.53 385.418 43.1585 385.065L43.2514 384.453L43.1214 370.492L64.8492 391.934C65.9263 392.974 66.5392 394.441 66.5392 395.944V402.702Z" fill="#16110D"/>
<path d="M162.81 453.012C163.033 451.434 162.866 449.633 162.179 447.87C160.545 443.581 156.682 441.094 153.562 442.282C151.278 443.154 150.034 445.791 150.182 448.817C154.695 450.599 159.208 452.177 162.81 453.012Z" fill="url(#paint19_linear_724_394)"/>
<path d="M165.726 436.267L133.877 429.361C132.818 429.138 131.723 429.398 130.868 430.085C130.014 430.771 129.531 431.792 129.531 432.869V438.401C129.531 440.406 130.701 442.263 132.484 443.117C136.05 444.825 141.937 447.554 148.046 450.023L148.065 450.06L148.436 450.209C148.696 450.32 148.956 450.394 149.216 450.487C156.143 453.235 163.144 455.555 167.156 455.555C167.174 455.555 167.174 455.555 167.193 455.555C171.316 455.537 175.735 452.882 175.735 445.419C175.717 438.216 166.339 436.378 165.726 436.267ZM149.365 448.278C147.916 444.509 148.863 440.629 151.463 439.627C152.67 439.163 154.082 439.404 155.437 440.277C156.886 441.223 158.093 442.783 158.817 444.658C159.783 447.145 159.69 449.782 158.65 451.564C156.31 450.951 153.469 450.042 150.256 448.835C149.996 448.723 149.736 448.631 149.476 448.519C149.439 448.445 149.383 448.352 149.365 448.278ZM167.174 453.643H167.156C165.447 453.643 163.089 453.16 160.433 452.381C161.677 450.097 161.789 446.904 160.656 443.952C159.783 441.687 158.316 439.812 156.533 438.643C154.639 437.418 152.596 437.121 150.795 437.807C147.545 439.051 146.078 443.247 147.155 447.572C141.342 445.159 135.994 442.653 133.357 441.39C132.205 440.833 131.5 439.701 131.5 438.42V432.888C131.5 432.387 131.723 431.922 132.113 431.607C132.41 431.366 132.781 431.236 133.153 431.236C133.264 431.236 133.394 431.254 133.505 431.273L165.354 438.179H165.391C165.466 438.197 173.804 439.757 173.804 445.438C173.767 450.636 171.371 453.625 167.174 453.643Z" fill="#16110D"/>
<path d="M468.225 261.852H415.651V407.398H415.67C415.763 408.679 416.728 410.016 418.548 411.074L435.578 420.913C439.088 422.937 444.399 423.16 447.445 421.396L466.182 410.573C467.65 409.738 468.3 408.587 468.207 407.398H468.225V261.852Z" fill="#D6E0D4"/>
<path d="M442.263 423.55C439.775 423.55 437.156 422.937 435.076 421.73L418.047 411.891C416.376 410.926 415.261 409.7 414.853 408.345H414.686L414.667 407.38V260.849H469.172L469.098 408.345C468.857 409.552 468.002 410.61 466.647 411.39L447.909 422.213C446.386 423.123 444.38 423.55 442.263 423.55ZM416.617 407.213L416.636 407.324C416.71 408.327 417.583 409.385 419.031 410.22L436.061 420.06C439.236 421.897 444.232 422.12 446.962 420.542L465.7 409.719C466.442 409.292 467.315 408.549 467.241 407.454L467.167 406.415H467.259V262.798H416.636V407.213H416.617Z" fill="black"/>
<path d="M466.182 265.026L447.445 275.849C444.399 277.613 439.088 277.39 435.578 275.367L418.548 265.527C415.039 263.504 414.649 260.441 417.694 258.677L436.432 247.854C439.478 246.09 444.789 246.313 448.299 248.336L465.328 258.176C468.838 260.199 469.228 263.262 466.182 265.026Z" fill="#D6E0D4"/>
<path d="M465.328 264.971L448.299 255.131C444.789 253.108 439.478 252.885 436.432 254.649L417.694 265.472C417.267 265.713 416.914 265.992 416.635 266.289V270.763C417.118 271.32 417.731 271.84 418.548 272.322L435.578 282.161C439.088 284.185 444.399 284.408 447.444 282.644L466.182 271.821C469.228 270.057 468.838 266.994 465.328 264.971Z" fill="url(#paint20_linear_724_394)"/>
<path d="M442.263 278.003C439.775 278.003 437.156 277.39 435.076 276.184L418.047 266.344C415.893 265.101 414.648 263.374 414.648 261.629C414.648 260.107 415.558 258.751 417.193 257.823L435.931 247C439.292 245.069 444.919 245.274 448.763 247.483L465.792 257.322C467.947 258.566 469.191 260.292 469.191 262.037C469.191 263.56 468.281 264.915 466.647 265.843L447.909 276.666C446.386 277.576 444.38 278.003 442.263 278.003ZM441.557 247.65C439.793 247.65 438.122 247.984 436.896 248.689L418.158 259.513C417.453 259.921 416.598 260.626 416.598 261.648C416.598 262.687 417.471 263.801 419.013 264.674L436.042 274.513C439.218 276.351 444.213 276.574 446.943 274.996L465.681 264.172C466.387 263.764 467.241 263.058 467.241 262.037C467.241 260.998 466.368 259.884 464.827 259.011L447.797 249.172C446.052 248.17 443.73 247.65 441.557 247.65Z" fill="black"/>
<path d="M442.263 278.003V423.55L452.978 419.317L469.116 408.364L468.225 263.504L450.416 274.03L442.263 278.003Z" fill="#9F9C9A"/>
<path d="M435.596 334.663L425.438 328.796C424.38 328.184 423.525 326.55 423.525 325.158V299.91C423.525 298.499 424.38 297.868 425.438 298.462L435.596 304.328C436.655 304.941 437.509 306.574 437.509 307.967V333.215C437.509 334.626 436.655 335.275 435.596 334.663Z" fill="url(#paint21_linear_724_394)"/>
<path d="M433.201 331.191L423.321 325.491C421.835 324.637 420.647 322.558 420.647 320.85V295.25C420.647 293.542 421.854 292.855 423.321 293.709L433.201 299.408C434.686 300.262 435.875 302.341 435.875 304.049V329.65C435.875 331.339 434.668 332.045 433.201 331.191ZM423.321 295.157C422.541 294.711 421.91 295.064 421.91 295.974V321.574C421.91 322.484 422.541 323.579 423.321 324.025L433.201 329.724C433.981 330.17 434.612 329.817 434.612 328.907V303.307C434.612 302.397 433.981 301.302 433.201 300.856L423.321 295.157Z" fill="#16110D"/>
<path d="M428.818 310.417L427.685 309.767C425.772 308.653 424.212 305.683 424.212 303.121C424.212 300.559 425.772 299.389 427.685 300.485L428.818 301.135C430.731 302.248 432.291 305.219 432.291 307.781C432.309 310.343 430.749 311.531 428.818 310.417Z" fill="#D6E0D4"/>
<path d="M428.279 310.825L428.224 310.788C425.661 309.303 423.581 305.702 423.581 302.75C423.581 299.798 425.661 298.591 428.224 300.076C430.842 301.599 432.922 305.2 432.922 308.152C432.941 311.104 430.842 312.311 428.279 310.825ZM428.279 301.562C426.348 300.448 424.825 301.32 424.825 303.474C424.825 305.627 426.348 308.263 428.205 309.34L428.261 309.377C430.137 310.454 431.641 309.582 431.641 307.428C431.678 305.275 430.155 302.638 428.279 301.562Z" fill="#16110D"/>
<path d="M431.529 324.934L424.974 321.147C424.547 320.905 424.212 320.256 424.212 319.68V312.83C424.212 312.273 424.547 312.013 424.974 312.254L431.529 316.042C431.956 316.283 432.291 316.933 432.291 317.508V324.358C432.309 324.915 431.956 325.175 431.529 324.934Z" fill="#D6E0D4"/>
<path d="M431.474 325.621L425.03 321.908C424.231 321.444 423.581 320.311 423.581 319.383V312.384C423.581 311.456 424.231 311.085 425.03 311.549L431.474 315.262C432.272 315.726 432.922 316.858 432.922 317.787V324.785C432.941 325.714 432.291 326.085 431.474 325.621ZM425.03 312.997C424.918 312.941 424.844 312.978 424.844 313.108V320.107C424.844 320.237 424.937 320.386 425.03 320.441L431.474 324.154C431.585 324.21 431.659 324.173 431.659 324.043V317.044C431.659 316.914 431.566 316.766 431.474 316.71L425.03 312.997Z" fill="#16110D"/>
<path d="M451.66 420.431C451.066 420.431 450.509 420.282 450.007 419.985C448.689 419.224 447.946 417.572 447.946 415.437V306.499C447.946 302.768 450.174 298.554 453.016 296.92L459.627 293.114C461.038 292.298 462.45 292.205 463.601 292.873C464.92 293.634 465.662 295.286 465.662 297.421V406.359C465.662 410.09 463.434 414.304 460.593 415.938L453.981 419.744C453.183 420.208 452.403 420.431 451.66 420.431ZM461.892 294.377C461.41 294.377 460.927 294.581 460.555 294.804L453.944 298.609C451.734 299.89 449.859 303.511 449.859 306.518V415.455C449.859 416.848 450.267 417.924 450.954 418.314C451.604 418.704 452.421 418.389 452.978 418.073L459.59 414.267C461.8 412.986 463.675 409.366 463.675 406.359V297.421C463.675 296.029 463.267 294.952 462.58 294.562C462.375 294.432 462.134 294.377 461.892 294.377Z" fill="#F5B749"/>
<path d="M383.988 127.407L383.858 126.868L383.004 126.961C383.319 127.11 383.654 127.258 383.988 127.407Z" fill="#16110D"/>
<path d="M385.418 129.133L379.494 126.423L384.601 125.829L385.418 129.133Z" fill="#D6E0D4"/>
<path d="M247.939 57.3619L230.055 145.6C226.805 161.602 239.043 176.566 255.367 176.566C272.099 176.566 284.412 160.916 280.475 144.671L259.063 56.2666L247.939 57.3619Z" fill="url(#paint22_linear_724_394)"/>
<path d="M255.218 177.846C247.493 177.846 240.399 174.653 235.218 168.842L234.475 168.007L235.403 167.394C237.613 165.909 239.842 164.461 242.126 163.032C253.157 156.126 265.915 149.869 280.029 144.393L281.069 143.984L281.31 145.08C283.149 153.081 281.255 161.342 276.148 167.766C271.059 174.171 263.427 177.846 255.218 177.846ZM237.446 168.378C242.163 173.242 248.44 175.916 255.237 175.916C262.851 175.916 269.926 172.5 274.662 166.559C279.175 160.897 280.976 153.694 279.676 146.621C266.101 151.949 253.826 158.019 243.166 164.684C241.235 165.891 239.322 167.116 237.446 168.378Z" fill="#16110D"/>
<path d="M310.058 92.8946L292.174 181.132C288.924 197.135 301.162 212.098 317.486 212.098C334.218 212.098 346.531 196.448 342.594 180.204L321.2 91.8179L310.058 92.8946Z" fill="url(#paint23_linear_724_394)"/>
<path d="M318.452 213.101C310.373 213.101 302.815 209.518 297.708 203.262C292.601 197.005 290.577 188.893 292.193 180.984L301.069 137.227L301.627 137.06C311.729 133.997 322.036 131.472 331.414 129.764L332.324 129.597L344.525 180C346.475 188.039 344.655 196.374 339.529 202.872C334.404 209.369 326.716 213.101 318.452 213.101ZM302.722 138.731L294.087 181.355C292.601 188.688 294.458 196.226 299.212 202.036C303.948 207.829 310.968 211.152 318.452 211.152C326.121 211.152 333.253 207.699 337.988 201.665C342.742 195.632 344.414 187.909 342.612 180.446L330.838 131.825C321.943 133.477 312.268 135.853 302.722 138.731Z" fill="#16110D"/>
<path d="M373.458 128.762L355.575 217C352.325 233.002 364.563 247.965 380.887 247.965C397.619 247.965 409.931 232.315 405.994 216.071L384.601 127.667L373.458 128.762Z" fill="url(#paint24_linear_724_394)"/>
<path d="M384.731 128.205L384.601 127.667L383.747 127.759C384.044 127.889 384.378 128.038 384.731 128.205Z" fill="url(#paint25_linear_724_394)"/>
<path d="M394.425 168.267L368.444 153.434L355.556 216.999C352.306 233.002 364.544 247.965 380.868 247.965C397.6 247.965 409.913 232.315 405.976 216.071L394.425 168.267Z" fill="url(#paint26_linear_724_394)"/>
<path d="M358.286 235.044C362.817 242.229 370.803 247.149 380.144 247.149C396.876 247.149 409.189 231.499 405.252 215.254L404.119 210.558C391.918 215.403 379.624 221.325 368.24 228.435C364.842 230.589 361.536 232.798 358.286 235.044Z" fill="#0066B3" fill-opacity="0.1"/>
<path d="M405.363 211.504L403.45 211.876L404.323 215.477C406.124 222.94 404.453 230.663 399.699 236.697C394.963 242.73 387.832 246.183 380.162 246.183C372.028 246.183 364.563 242.266 359.902 235.657L358.212 236.567C363.244 243.807 371.341 248.114 380.181 248.114C388.445 248.114 396.133 244.382 401.24 237.885C406.347 231.387 408.167 223.052 406.236 215.013L405.363 211.504Z" fill="#16110D"/>
<path d="M419.532 125.68L209.831 4.37862C200.899 -0.782347 192.152 -1.39498 185.206 2.61498C178.242 6.62495 174.417 14.5149 174.417 24.8183V108.285C174.417 112.035 177.462 115.08 181.214 115.08C184.965 115.08 188.011 112.035 188.011 108.285V24.8183C188.011 19.6388 189.459 15.833 192.003 14.385C194.547 12.9184 198.559 13.5681 203.034 16.1486L412.736 137.45C424.565 144.282 434.556 161.584 434.556 175.248V258.714C434.556 262.464 437.602 265.509 441.353 265.509C445.104 265.509 448.15 262.464 448.15 258.714V175.248C448.131 156.72 435.578 134.944 419.532 125.68Z" fill="#F5B749"/>
<path d="M446.2 198.509V259.123C446.2 261.796 444.028 263.968 441.353 263.968C438.679 263.968 436.506 261.796 436.506 259.123V200.922C435.856 201.09 435.225 201.275 434.556 201.442V259.123C434.556 262.873 437.602 265.917 441.353 265.917C445.105 265.917 448.15 262.873 448.15 259.123V198.082C447.5 198.212 446.85 198.361 446.2 198.509Z" fill="#D6E0D4"/>
<path d="M278.246 53.8907L206.563 12.5286C205.634 11.9903 205.319 10.8021 205.857 9.87389C206.396 8.94566 207.584 8.63006 208.513 9.16843L280.177 50.5305C281.106 51.0688 281.422 52.257 280.883 53.1852C280.363 54.1134 279.175 54.429 278.246 53.8907Z" fill="#D6E0D4"/>
<path d="M326.419 81.7004L290.373 60.8895C289.444 60.3511 289.129 59.163 289.667 58.2347C290.206 57.3065 291.394 56.9909 292.323 57.5293L328.369 78.3402C329.297 78.8786 329.613 80.0667 329.074 80.995C328.536 81.9232 327.347 82.2388 326.419 81.7004Z" fill="#D6E0D4"/>
<path d="M261.829 53.4262L261.718 53.1849L261.829 53.3891C261.662 52.9992 261.421 52.6279 261.086 52.2566L255.367 43.5498H250.891L245.171 52.2566C244.837 52.6094 244.596 52.9992 244.428 53.3891L244.336 53.649L244.428 53.4076C243.686 55.1156 244.466 57.0092 246.787 58.3458C250.297 60.3694 255.998 60.3694 259.508 58.3458C261.811 57.0277 262.572 55.1341 261.829 53.4262Z" fill="#16110D"/>
<path d="M254.048 57.8631C248.681 57.8631 246.341 55.0598 246.23 54.9299L247.734 53.7046C247.808 53.7974 249.777 56.0252 254.364 55.9138L254.401 57.8631C254.29 57.8631 254.178 57.8631 254.048 57.8631Z" fill="#D6E0D4"/>
<path d="M324.45 90.1103L324.339 89.8689L324.45 90.0731C324.283 89.6833 324.042 89.312 323.707 88.9407L317.988 80.2339H313.512L307.792 88.9407C307.458 89.2934 307.216 89.6833 307.049 90.0731L306.956 90.333L307.049 90.0917C306.306 91.7997 307.086 93.6932 309.408 95.0299C312.918 97.0534 318.619 97.0534 322.129 95.0299C324.432 93.7118 325.193 91.8182 324.45 90.1103Z" fill="#16110D"/>
<path d="M316.669 94.5472C311.302 94.5472 308.962 91.7439 308.851 91.6139L310.355 90.3887C310.429 90.4815 312.398 92.7093 316.985 92.5979L317.022 94.5472C316.911 94.5472 316.799 94.5472 316.669 94.5472Z" fill="#D6E0D4"/>
<path d="M387.071 126.274L386.96 126.033L387.071 126.237C386.904 125.847 386.662 125.476 386.328 125.104L380.608 116.397H376.133L370.413 125.104C370.079 125.457 369.837 125.847 369.67 126.237L369.559 126.497L369.652 126.255C368.909 127.963 369.689 129.857 372.01 131.193C375.52 133.217 381.221 133.217 384.731 131.193C387.052 129.857 387.814 127.982 387.071 126.274Z" fill="#16110D"/>
<path d="M379.29 130.692C373.923 130.692 371.583 127.889 371.471 127.759L372.976 126.534C373.05 126.627 375.018 128.854 379.605 128.743L379.643 130.692C379.531 130.692 379.42 130.692 379.29 130.692Z" fill="#D6E0D4"/>
<defs>
<linearGradient id="paint0_linear_724_394" x1="16.7615" y1="439.258" x2="34.8481" y2="421.166" gradientUnits="userSpaceOnUse">
<stop stop-color="white"/>
<stop offset="1" stop-color="#92D6E3"/>
</linearGradient>
<linearGradient id="paint1_linear_724_394" x1="16.7586" y1="438.002" x2="61.3157" y2="393.43" gradientUnits="userSpaceOnUse">
<stop stop-color="white"/>
<stop offset="1" stop-color="#92D6E3"/>
</linearGradient>
<linearGradient id="paint2_linear_724_394" x1="527.101" y1="310.752" x2="555.551" y2="282.293" gradientUnits="userSpaceOnUse">
<stop stop-color="white"/>
<stop offset="1" stop-color="#92D6E3"/>
</linearGradient>
<linearGradient id="paint3_linear_724_394" x1="457.741" y1="327.393" x2="529.929" y2="255.181" gradientUnits="userSpaceOnUse">
<stop stop-color="white"/>
<stop offset="1" stop-color="#92D6E3"/>
</linearGradient>
<linearGradient id="paint4_linear_724_394" x1="367.117" y1="469.111" x2="384.279" y2="451.943" gradientUnits="userSpaceOnUse">
<stop stop-color="white"/>
<stop offset="1" stop-color="#92D6E3"/>
</linearGradient>
<linearGradient id="paint5_linear_724_394" x1="347.724" y1="488.636" x2="385.714" y2="456.587" gradientUnits="userSpaceOnUse">
<stop stop-color="white"/>
<stop offset="1" stop-color="#92D6E3"/>
</linearGradient>
<linearGradient id="paint6_linear_724_394" x1="230.507" y1="502.019" x2="254.309" y2="478.209" gradientUnits="userSpaceOnUse">
<stop stop-color="white"/>
<stop offset="1" stop-color="#92D6E3"/>
</linearGradient>
<linearGradient id="paint7_linear_724_394" x1="362.526" y1="466.614" x2="443.88" y2="385.233" gradientUnits="userSpaceOnUse">
<stop stop-color="white"/>
<stop offset="1" stop-color="#92D6E3"/>
</linearGradient>
<linearGradient id="paint8_linear_724_394" x1="202.633" y1="548.311" x2="421.514" y2="329.357" gradientUnits="userSpaceOnUse">
<stop stop-color="white"/>
<stop offset="1" stop-color="#92D6E3"/>
</linearGradient>
<linearGradient id="paint9_linear_724_394" x1="206.748" y1="467.31" x2="262.604" y2="411.435" gradientUnits="userSpaceOnUse">
<stop stop-color="white"/>
<stop offset="1" stop-color="#92D6E3"/>
</linearGradient>
<linearGradient id="paint10_linear_724_394" x1="166.821" y1="131.298" x2="194.277" y2="103.832" gradientUnits="userSpaceOnUse">
<stop stop-color="white"/>
<stop offset="1" stop-color="#92D6E3"/>
</linearGradient>
<linearGradient id="paint11_linear_724_394" x1="160.412" y1="174.213" x2="177.849" y2="156.77" gradientUnits="userSpaceOnUse">
<stop stop-color="white"/>
<stop offset="1" stop-color="#92D6E3"/>
</linearGradient>
<linearGradient id="paint12_linear_724_394" x1="218.372" y1="445.106" x2="234.833" y2="428.64" gradientUnits="userSpaceOnUse">
<stop stop-color="white"/>
<stop offset="1" stop-color="#92D6E3"/>
</linearGradient>
<linearGradient id="paint13_linear_724_394" x1="446.299" y1="314.64" x2="462.76" y2="298.174" gradientUnits="userSpaceOnUse">
<stop stop-color="white"/>
<stop offset="1" stop-color="#92D6E3"/>
</linearGradient>
<linearGradient id="paint14_linear_724_394" x1="91.7529" y1="461.747" x2="440.382" y2="113.003" gradientUnits="userSpaceOnUse">
<stop stop-color="white"/>
<stop offset="1" stop-color="#37BD96"/>
</linearGradient>
<linearGradient id="paint15_linear_724_394" x1="52.5281" y1="364.781" x2="63.809" y2="353.496" gradientUnits="userSpaceOnUse">
<stop stop-color="white"/>
<stop offset="1" stop-color="#92D6E3"/>
</linearGradient>
<linearGradient id="paint16_linear_724_394" x1="146.556" y1="425.317" x2="162.518" y2="409.35" gradientUnits="userSpaceOnUse">
<stop stop-color="white"/>
<stop offset="1" stop-color="#92D6E3"/>
</linearGradient>
<linearGradient id="paint17_linear_724_394" x1="175.15" y1="414.707" x2="188.958" y2="400.895" gradientUnits="userSpaceOnUse">
<stop stop-color="white"/>
<stop offset="1" stop-color="#92D6E3"/>
</linearGradient>
<linearGradient id="paint18_linear_724_394" x1="52.0797" y1="393.74" x2="57.1688" y2="388.649" gradientUnits="userSpaceOnUse">
<stop stop-color="white"/>
<stop offset="1" stop-color="#92D6E3"/>
</linearGradient>
<linearGradient id="paint19_linear_724_394" x1="153.476" y1="452.082" x2="160.613" y2="444.942" gradientUnits="userSpaceOnUse">
<stop stop-color="white"/>
<stop offset="1" stop-color="#92D6E3"/>
</linearGradient>
<linearGradient id="paint20_linear_724_394" x1="428.209" y1="282.368" x2="455.666" y2="254.902" gradientUnits="userSpaceOnUse">
<stop stop-color="white"/>
<stop offset="1" stop-color="#92D6E3"/>
</linearGradient>
<linearGradient id="paint21_linear_724_394" x1="421.8" y1="325.284" x2="439.238" y2="307.841" gradientUnits="userSpaceOnUse">
<stop stop-color="white"/>
<stop offset="1" stop-color="#92D6E3"/>
</linearGradient>
<linearGradient id="paint22_linear_724_394" x1="221.021" y1="152.917" x2="288.367" y2="85.5495" gradientUnits="userSpaceOnUse">
<stop stop-color="white"/>
<stop offset="1" stop-color="#92D6E3"/>
</linearGradient>
<linearGradient id="paint23_linear_724_394" x1="283.156" y1="188.452" x2="350.501" y2="121.084" gradientUnits="userSpaceOnUse">
<stop stop-color="white"/>
<stop offset="1" stop-color="#92D6E3"/>
</linearGradient>
<linearGradient id="paint24_linear_724_394" x1="346.547" y1="224.318" x2="413.893" y2="156.95" gradientUnits="userSpaceOnUse">
<stop stop-color="white"/>
<stop offset="1" stop-color="#92D6E3"/>
</linearGradient>
<linearGradient id="paint25_linear_724_394" x1="384.097" y1="128.108" x2="384.57" y2="127.636" gradientUnits="userSpaceOnUse">
<stop stop-color="white"/>
<stop offset="1" stop-color="#92D6E3"/>
</linearGradient>
<linearGradient id="paint26_linear_724_394" x1="351.467" y1="229.235" x2="403.425" y2="177.26" gradientUnits="userSpaceOnUse">
<stop stop-color="white"/>
<stop offset="1" stop-color="#92D6E3"/>
</linearGradient>
</defs>
</svg>
