<svg width="118" height="118" viewBox="0 0 118 118" fill="none" xmlns="http://www.w3.org/2000/svg">
<g opacity="0.9">
<mask id="mask0_1_19128" style="mask-type:alpha" maskUnits="userSpaceOnUse" x="0" y="0" width="118" height="118">
<circle cx="59" cy="59" r="59" fill="white"/>
</mask>
<g mask="url(#mask0_1_19128)">
<path d="M3 91.001V221H23.1985H410V88C373.643 88 389.801 117 365.563 117C332.207 117 341.325 88 313.047 88C280.73 88 290.425 118 264.571 118C238.717 118 243.362 88 213.065 88C177.717 89.999 189.836 117 160.548 117C131.261 117 132.674 91.001 106.012 91.001C79.3504 91.001 78.7444 115 53.4963 115C31.2779 115 25.2184 91.001 3 91.001Z" fill="url(#paint0_linear_1_19128)"/>
<path d="M-295 91.001V221H-274.801H112V88C75.6427 88 91.8015 117 67.5633 117C34.2068 117 43.3251 88 15.0471 88C-17.2704 88 -7.57516 118 -33.4293 118C-59.2834 118 -54.6377 88 -84.9355 88C-120.283 89.999 -108.164 117 -137.452 117C-166.739 117 -165.326 91.001 -191.988 91.001C-218.65 91.001 -219.256 115 -244.504 115C-266.722 115 -272.782 91.001 -295 91.001Z" fill="url(#paint1_linear_1_19128)"/>
</g>
</g>
<g clip-path="url(#clip0_1_19128)">
<path d="M61.8918 74.1465H36V83.0002H61.8918V74.1465Z" fill="white"/>
<path d="M61.4808 82.9996C60.7481 82.9996 60.0113 82.9597 59.2715 82.8777C49.7959 81.8304 42.1517 74.0629 41.0942 64.4078C40.458 58.5934 42.1306 52.943 45.8044 48.4977C49.437 44.1025 54.7292 41.387 60.3239 41.0488L60.6546 41.0283L60.6576 50.0235L60.3701 50.0471C58.6774 50.1823 57.1617 50.6189 55.864 51.3413C51.8313 53.5875 49.3968 58.0575 49.6632 62.7303C50.008 68.7721 54.9202 73.78 60.8476 74.1325C65.4241 74.4 69.8146 71.9242 72.0189 67.813C72.6994 66.5433 73.1205 65.0667 73.2693 63.424L73.2954 63.135L82.0001 63.133L81.9699 63.713C81.9599 63.8718 81.9478 64.0317 81.9338 64.1926C81.8021 65.7164 81.2673 68.3397 80.6341 69.9209C77.4548 77.8565 69.7794 82.9986 61.4808 82.9986V82.9996Z" fill="white"/>
<path d="M73.3172 61.8986L73.3283 50.0044H61.8906V41H81.9827V61.8986H73.3162H73.3172Z" fill="url(#paint2_linear_1_19128)"/>
</g>
<defs>
<linearGradient id="paint0_linear_1_19128" x1="8.5" y1="88" x2="110.5" y2="88" gradientUnits="userSpaceOnUse">
<stop offset="0.254808" stop-color="#FFAF12"/>
<stop offset="0.745192" stop-color="#5FAD7E"/>
</linearGradient>
<linearGradient id="paint1_linear_1_19128" x1="-91.5" y1="221" x2="-91.5" y2="88" gradientUnits="userSpaceOnUse">
<stop offset="0.336538" stop-color="#0D7A5E"/>
<stop offset="0.745192" stop-color="#0C382C"/>
</linearGradient>
<linearGradient id="paint2_linear_1_19128" x1="67.9668" y1="39.6535" x2="82.0445" y2="59.6051" gradientUnits="userSpaceOnUse">
<stop offset="0.17" stop-color="#FFAF12"/>
<stop offset="0.39" stop-color="#FCD332"/>
<stop offset="0.51" stop-color="#FFF24D"/>
<stop offset="0.63" stop-color="#F9BA1C"/>
<stop offset="0.89" stop-color="#FFAF12"/>
</linearGradient>
<clipPath id="clip0_1_19128">
<rect width="46" height="42" fill="white" transform="translate(36 41)"/>
</clipPath>
</defs>
</svg>
