<svg width="80" height="30" viewBox="0 0 80 30" fill="none" xmlns="http://www.w3.org/2000/svg">
<g clip-path="url(#clip0_1_10603)">
<path d="M67.032 24.5718L67.0351 22.0155H64.5674V19.8364H69.1439V24.5718H67.032Z" fill="#FFAF12"/>
<path d="M15.2515 29.7489V24.9673C15.2515 24.2065 14.99 23.5428 14.4746 22.9946C13.9561 22.4448 13.3115 22.1645 12.5558 22.1645C11.8001 22.1645 11.1631 22.4448 10.637 22.9992C10.1139 23.5505 9.84786 24.2127 9.84786 24.9657V29.7442L7.70707 29.7473V24.9657C7.70707 24.205 7.44555 23.5413 6.93012 22.993C6.41165 22.4433 5.76546 22.163 5.01131 22.163C4.25717 22.163 3.61858 22.4433 3.09251 22.9977C2.56947 23.549 2.30339 24.2112 2.30339 24.9642V29.7427L0.162598 29.7458V24.9642C0.162598 23.6121 0.629376 22.4895 1.58878 21.5301C2.5497 20.5691 3.66876 20.1025 5.01131 20.1025C6.4603 20.1025 7.64473 20.6369 8.63151 21.7364L8.78811 21.912L8.94472 21.7364C9.40237 21.2283 9.95278 20.8248 10.5822 20.5368C11.2102 20.2488 11.8746 20.1025 12.5543 20.1025C13.8968 20.1025 15.0144 20.5676 15.9707 21.5239C16.9256 22.4802 17.3908 23.606 17.3908 24.9642V29.7427L15.25 29.7458L15.2515 29.7489Z" fill="#154A3C"/>
<path d="M44.8927 29.7489V24.9673C44.8927 24.2065 44.6311 23.5428 44.1157 22.9946C43.5972 22.4448 42.951 22.1645 42.1969 22.1645C41.4428 22.1645 40.8042 22.4448 40.2781 22.9992C39.7551 23.5505 39.489 24.2127 39.489 24.9657V29.7442L37.3482 29.7473V24.9657C37.3482 24.205 37.0867 23.5413 36.5712 22.993C36.0528 22.4433 35.4066 22.163 34.6524 22.163C33.8983 22.163 33.2597 22.4433 32.7336 22.9977C32.2106 23.549 31.9445 24.2112 31.9445 24.9642V29.7458H29.8037V24.9642C29.8037 23.6137 30.2705 22.4895 31.2299 21.5301C32.1908 20.5691 33.3099 20.1025 34.6524 20.1025C36.1014 20.1025 37.2858 20.6369 38.2726 21.7364L38.4292 21.912L38.5873 21.7364C39.0435 21.2283 39.5939 20.8248 40.2249 20.5368C40.8528 20.2488 41.5173 20.1025 42.1969 20.1025C43.5395 20.1025 44.657 20.5691 45.6134 21.5301C46.5682 22.4895 47.0335 23.6137 47.0335 24.9657V29.7442L44.8927 29.7473V29.7489Z" fill="#154A3C"/>
<path d="M55.846 29.7488V24.9672C55.846 24.2142 55.5829 23.552 55.063 23.0007C54.5414 22.4463 53.8983 22.1645 53.1502 22.1645C52.4022 22.1645 51.7575 22.4447 51.2314 22.9991C50.7084 23.5504 50.4423 24.2126 50.4423 24.9657V29.7472L48.3015 29.7442V24.9657C48.3015 23.6059 48.7683 22.4802 49.7277 21.5254C50.6871 20.5691 51.8062 20.104 53.1502 20.104C54.4943 20.104 55.6103 20.5706 56.5667 21.5315C57.5215 22.4925 57.9868 23.6167 57.9868 24.9672V29.7457L55.846 29.7488Z" fill="#154A3C"/>
<path d="M77.8592 29.7488V24.9672C77.8592 24.2142 77.5961 23.552 77.0761 23.0007C76.5546 22.4463 75.9115 22.1645 75.1634 22.1645C74.4154 22.1645 73.7707 22.4447 73.2446 22.9991C72.7216 23.5504 72.4555 24.2126 72.4555 24.9657V29.7472L70.3147 29.7442V24.9657C70.3147 23.6059 70.7815 22.4802 71.7409 21.5254C72.7003 20.5691 73.8209 20.104 75.1634 20.104C76.506 20.104 77.6235 20.5706 78.5783 21.5315C79.5347 22.4925 80 23.6167 80 24.9672V29.7457L77.8592 29.7488Z" fill="#154A3C"/>
<path d="M23.5927 29.9031C20.8559 29.9031 18.6284 27.6471 18.6284 24.8751C18.6284 22.1032 20.8559 19.8472 23.5927 19.8472C26.3295 19.8472 28.557 22.1032 28.557 24.8751C28.557 27.6471 26.3295 29.9031 23.5927 29.9031ZM23.5927 21.7305C21.8807 21.7305 20.4879 23.1411 20.4879 24.8751C20.4879 26.6091 21.8807 28.0197 23.5927 28.0197C25.3047 28.0197 26.6974 26.6091 26.6974 24.8751C26.6974 23.1411 25.3047 21.7305 23.5927 21.7305Z" fill="#154A3C"/>
<path d="M26.576 27.7839L26.5547 27.6623L26.5775 27.6253L28.5541 24.8765V29.7489C28.5541 29.7489 26.8968 29.8013 26.576 27.7839Z" fill="#154A3C"/>
<path d="M64.1492 29.9999C63.9713 29.9999 63.7919 29.9907 63.6109 29.9707C61.3029 29.7166 59.4403 27.8378 59.1834 25.5002C59.0283 24.0927 59.4358 22.7252 60.3313 21.6487C61.2162 20.5846 62.5056 19.9286 63.8679 19.8454L63.9485 19.8408V22.0183L63.8785 22.0245C63.4665 22.0568 63.097 22.1631 62.7808 22.3371C61.7986 22.8807 61.2056 23.9633 61.271 25.0936C61.3546 26.5566 62.5512 27.7685 63.9956 27.8532C65.1101 27.9179 66.1805 27.3189 66.7172 26.3241C66.8829 26.0161 66.9848 25.6588 67.0213 25.2615L67.0274 25.1922H69.1484L69.1408 25.3323C69.1378 25.3708 69.1347 25.4093 69.1317 25.4478C69.0998 25.8159 68.969 26.4519 68.8154 26.8338C68.0415 28.7541 66.1714 29.9984 64.1492 29.9984V29.9999Z" fill="#154A3C"/>
<path d="M79.959 5.94572H77.7985V2.18821H74.2239V0.0214844H79.9605V5.94572H79.959Z" fill="#FFAF12"/>
<path d="M8.59206 17.3692C6.23233 17.3692 4.19036 16.5161 2.51939 14.8314C0.846891 13.1467 0 11.08 0 8.69001C0 6.29998 0.84385 4.23644 2.5057 2.5548C4.16907 0.874698 6.20496 0.0230994 8.55709 0.0230994H9.04972V2.16057L8.56013 2.16519C6.79033 2.17905 5.25772 2.82891 4.00182 4.0963C2.74897 5.36215 2.11343 6.90827 2.11343 8.69001C2.11343 10.4717 2.75201 12.041 4.01247 13.3053C5.27292 14.5727 6.81466 15.2148 8.59054 15.2148C10.3664 15.2148 11.8732 14.5727 13.1336 13.3053C14.3941 12.041 15.0327 10.4948 15.0327 8.71311V0H17.1704V8.71311C17.1704 11.0893 16.319 13.1467 14.6404 14.8314C12.9618 16.5146 10.926 17.3677 8.59054 17.3677L8.59206 17.3692ZM8.6392 10.1237C8.23628 10.1237 7.8881 9.97895 7.60529 9.69098C7.32249 9.40455 7.17957 9.0596 7.17957 8.66691C7.17957 8.25574 7.33009 7.9 7.62506 7.61357C7.91546 7.33176 8.25605 7.18854 8.64072 7.18854C9.02539 7.18854 9.37966 7.3333 9.6655 7.61665C9.95439 7.90462 10.1004 8.25728 10.1004 8.66691C10.1004 9.07654 9.95439 9.40763 9.66398 9.69406C9.37814 9.97895 9.033 10.1222 8.6392 10.1222V10.1237Z" fill="#154A3C"/>
<path d="M24.9795 17.6216L23.1929 16.4143L23.2918 16.2757L25.5907 13.0341C25.3459 13.0695 25.1087 13.0864 24.8822 13.0864C23.1336 13.0864 21.6086 12.4427 20.3467 11.1738C19.0847 9.90335 18.4446 8.36184 18.4446 6.58935C18.4446 4.81685 19.0847 3.22607 20.3451 1.9479C21.6071 0.671273 23.1489 0.0229492 24.9278 0.0229492C26.7067 0.0229492 28.2241 0.666653 29.4861 1.93558C30.7481 3.20605 31.3882 4.74755 31.3882 6.52005C31.3882 7.37319 31.2529 8.14933 30.9837 8.82845C30.7557 9.42288 30.3619 10.1189 29.8115 10.8982H32.194V13.0864H28.2196L24.978 17.6216H24.9795ZM24.9278 2.21278C23.716 2.21278 22.7155 2.63318 21.8686 3.50018C21.0187 4.36718 20.6051 5.38664 20.6051 6.61399C20.6051 7.77666 21.0248 8.76377 21.8884 9.63077C22.752 10.4993 23.7388 10.9213 24.905 10.9213C26.0712 10.9213 27.099 10.4993 27.955 9.63231C28.811 8.76531 29.2276 7.7628 29.2276 6.56625C29.2276 5.3697 28.8125 4.35024 27.9565 3.49094C27.1005 2.63011 26.1092 2.21278 24.9278 2.21278Z" fill="#154A3C"/>
<path d="M36.5607 13.0867H31.1631V10.8984H36.5607V13.0867Z" fill="#154A3C"/>
<path d="M39.2536 13.0867H33.856V10.8984H39.2536V13.0867Z" fill="#154A3C"/>
<path d="M43.6203 13.0867H38.2227V10.8984H43.6203V13.0867Z" fill="#154A3C"/>
<path d="M47.4001 13.0867H42.5894V10.8984H47.987L47.4001 13.0867Z" fill="#154A3C"/>
<path d="M52.2138 13.0866H51.7211C50.8393 13.0866 50.1216 12.8433 49.5849 12.3613C49.036 12.8418 48.3169 13.0866 47.4487 13.0866H46.9561V10.8984H47.4487C48.0006 10.8984 48.51 10.7213 48.51 9.43693V5.11426H50.6599V9.43693C50.6599 10.7213 51.1707 10.8984 51.7227 10.8984H52.2153V13.0866H52.2138Z" fill="#154A3C"/>
<path d="M49.5728 3.32305C49.22 3.32305 48.9175 3.19677 48.6696 2.94576C48.4233 2.69629 48.2971 2.40061 48.2971 2.06644C48.2971 1.70763 48.4279 1.3981 48.6848 1.14708C48.9388 0.899151 49.2383 0.774414 49.5713 0.774414C49.9042 0.774414 50.2159 0.900691 50.4622 1.1517C50.7101 1.40272 50.8348 1.70917 50.8348 2.06644C50.8348 2.39907 50.7101 2.69629 50.4622 2.94576C50.2159 3.19523 49.9164 3.32305 49.5713 3.32305H49.5728Z" fill="#154A3C"/>
<path d="M79.9589 6.56505C79.9589 8.76257 79.0816 10.532 77.3498 11.8225C76.693 12.3183 75.986 12.6618 75.247 12.8389C74.5583 13.0052 73.5715 13.0868 72.2305 13.0868H66.7006C65.2394 13.0868 64.2314 12.42 63.7646 11.1557C63.535 11.3867 63.2826 11.6084 63.0135 11.8179C62.3612 12.3183 61.6557 12.6618 60.9168 12.8404C60.228 13.0067 59.2337 13.0883 57.8759 13.0883H51.75V10.9H54.3895C54.2086 10.7152 54.052 10.5335 53.9212 10.3564C53.1215 9.19992 52.717 7.92021 52.717 6.54657C52.717 4.33364 53.5958 2.56576 55.3276 1.28914C56.4604 0.451397 57.7482 0.0263672 59.1546 0.0263672C61.3547 0.0263672 63.1169 0.931865 64.3925 2.71822C65.2182 3.86549 65.6378 5.1683 65.6378 6.59277V9.44016C65.6378 10.7245 66.1487 10.9016 66.7006 10.9016H68.7319C68.551 10.7183 68.3944 10.5351 68.2636 10.358C67.4639 9.20146 67.0594 7.92175 67.0594 6.54811C67.0594 4.33518 67.9382 2.5673 69.67 1.29068C70.8028 0.452937 72.0906 0.0279072 73.497 0.0279072H73.5913V2.19309H73.497C72.5437 2.19309 71.6831 2.48107 70.9366 3.04931C69.7734 3.91631 69.2093 5.0759 69.2093 6.59431C69.2093 7.51674 69.4769 8.36064 70.0045 9.1029C70.8727 10.3133 72.0161 10.9016 73.4985 10.9016C74.4245 10.9016 75.282 10.6198 76.0438 10.0623C77.2236 9.19838 77.7984 8.05573 77.7984 6.56967M59.1561 2.19155C58.2028 2.19155 57.3422 2.47953 56.5957 3.04777C55.4249 3.91477 54.8578 5.07436 54.8578 6.59277C54.8578 7.5152 55.1284 8.35756 55.6621 9.09828C56.5318 10.3102 57.6752 10.9 59.1576 10.9C60.0836 10.9 60.9411 10.6182 61.7029 10.0608C62.8827 9.19684 63.4559 8.05419 63.4559 6.56813C63.4559 5.61643 63.1777 4.74943 62.6303 3.99331C61.747 2.77982 60.6097 2.19001 59.1576 2.19001L59.1561 2.19155Z" fill="#154A3C"/>
<path d="M23.412 16.1064L22.2732 17.6218H24.9796L23.412 16.1064Z" fill="#154A3C"/>
</g>
<defs>
<clipPath id="clip0_1_10603">
<rect width="80" height="30" fill="white"/>
</clipPath>
</defs>
</svg>
