<svg width="120" height="45" viewBox="0 0 120 45" fill="none" xmlns="http://www.w3.org/2000/svg">
<g clip-path="url(#clip0_1_1114)">
<path d="M100.548 36.8575L100.553 33.023H96.8512V29.7544H103.716V36.8575H100.548Z" fill="#FFAF12"/>
<path d="M22.8774 44.6235V37.4512C22.8774 36.3101 22.4852 35.3145 21.712 34.4921C20.9343 33.6675 19.9673 33.2471 18.8338 33.2471C17.7003 33.2471 16.7447 33.6675 15.9556 34.4991C15.171 35.326 14.7719 36.3193 14.7719 37.4489V44.6166L11.5607 44.6212V37.4489C11.5607 36.3077 11.1685 35.3122 10.3953 34.4898C9.61759 33.6652 8.64831 33.2448 7.51709 33.2448C6.38588 33.2448 5.42799 33.6652 4.63888 34.4967C3.85433 35.3237 3.45521 36.317 3.45521 37.4465V44.6143L0.244019 44.6189V37.4465C0.244019 35.4184 0.944186 33.7345 2.38329 32.2954C3.82468 30.854 5.50326 30.1541 7.51709 30.1541C9.69057 30.1541 11.4672 30.9556 12.9474 32.6049L13.1823 32.8682L13.4172 32.6049C14.1037 31.8426 14.9293 31.2374 15.8735 30.8055C16.8154 30.3735 17.8121 30.1541 18.8315 30.1541C20.8454 30.1541 22.5217 30.8517 23.9562 32.2861C25.3885 33.7206 26.0863 35.4092 26.0863 37.4465V44.6143L22.8752 44.6189L22.8774 44.6235Z" fill="white"/>
<path d="M67.3392 44.6235V37.4512C67.3392 36.3101 66.947 35.3145 66.1738 34.4921C65.3961 33.6675 64.4268 33.2471 63.2956 33.2471C62.1644 33.2471 61.2065 33.6675 60.4174 34.4991C59.6328 35.326 59.2337 36.3193 59.2337 37.4489V44.6166L56.0225 44.6212V37.4489C56.0225 36.3077 55.6302 35.3122 54.8571 34.4898C54.0794 33.6652 53.1101 33.2448 51.9789 33.2448C50.8477 33.2448 49.8898 33.6652 49.1007 34.4967C48.3161 35.3237 47.917 36.317 47.917 37.4465V44.6189H44.7058V37.4465C44.7058 35.4207 45.406 33.7345 46.8451 32.2954C48.2865 30.854 49.965 30.1541 51.9789 30.1541C54.1524 30.1541 55.929 30.9556 57.4092 32.6049L57.6441 32.8682L57.8813 32.6049C58.5655 31.8426 59.3911 31.2374 60.3376 30.8055C61.2795 30.3735 62.2761 30.1541 63.2956 30.1541C65.3094 30.1541 66.9857 30.854 68.4203 32.2954C69.8525 33.7345 70.5504 35.4207 70.5504 37.4489V44.6166L67.3392 44.6212V44.6235Z" fill="white"/>
<path d="M83.7692 44.6235V37.4512C83.7692 36.3216 83.3747 35.3283 82.5947 34.5014C81.8124 33.6698 80.8477 33.2471 79.7256 33.2471C78.6035 33.2471 77.6365 33.6675 76.8474 34.4991C76.0628 35.326 75.6637 36.3193 75.6637 37.4489V44.6212L72.4525 44.6166V37.4489C72.4525 35.4092 73.1527 33.7206 74.5918 32.2884C76.0309 30.854 77.7095 30.1564 79.7256 30.1564C81.7417 30.1564 83.4157 30.8563 84.8503 32.2977C86.2825 33.7391 86.9804 35.4254 86.9804 37.4512V44.6189L83.7692 44.6235Z" fill="white"/>
<path d="M116.789 44.6235V37.4512C116.789 36.3216 116.394 35.3283 115.614 34.5014C114.832 33.6698 113.867 33.2471 112.745 33.2471C111.623 33.2471 110.656 33.6675 109.867 34.4991C109.082 35.326 108.683 36.3193 108.683 37.4489V44.6212L105.472 44.6166V37.4489C105.472 35.4092 106.172 33.7206 107.611 32.2884C109.05 30.854 110.731 30.1564 112.745 30.1564C114.759 30.1564 116.435 30.8563 117.868 32.2977C119.302 33.7391 120 35.4254 120 37.4512V44.6189L116.789 44.6235Z" fill="white"/>
<path d="M35.3893 44.8545C31.2841 44.8545 27.9429 41.4704 27.9429 37.3125C27.9429 33.1546 31.2841 29.7706 35.3893 29.7706C39.4945 29.7706 42.8357 33.1546 42.8357 37.3125C42.8357 41.4704 39.4945 44.8545 35.3893 44.8545ZM35.3893 32.5956C32.8212 32.5956 30.7321 34.7115 30.7321 37.3125C30.7321 39.9135 32.8212 42.0294 35.3893 42.0294C37.9573 42.0294 40.0464 39.9135 40.0464 37.3125C40.0464 34.7115 37.9573 32.5956 35.3893 32.5956Z" fill="white"/>
<path d="M39.864 41.6761L39.832 41.4936L39.8662 41.4381L42.8311 37.3149V44.6235C42.8311 44.6235 40.3452 44.7021 39.864 41.6761Z" fill="white"/>
<path d="M96.2239 45C95.957 45 95.6879 44.9862 95.4165 44.9562C91.9545 44.575 89.1606 41.7569 88.7752 38.2504C88.5426 36.1391 89.1538 34.0879 90.4971 32.4732C91.8245 30.8771 93.7585 29.893 95.802 29.7683L95.9228 29.7614V33.0276L95.8179 33.0369C95.1999 33.0854 94.6457 33.2447 94.1713 33.5058C92.698 34.3212 91.8085 35.9451 91.9066 37.6406C92.032 39.835 93.8269 41.6529 95.9935 41.78C97.6653 41.877 99.2709 40.9784 100.076 39.4862C100.325 39.0242 100.477 38.4883 100.532 37.8924L100.541 37.7884H103.723L103.711 37.9986C103.707 38.0564 103.702 38.1141 103.698 38.1719C103.65 38.7239 103.454 39.6779 103.223 40.2508C102.062 43.1313 99.2572 44.9977 96.2239 44.9977V45Z" fill="white"/>
<path d="M119.938 8.9187H116.698V3.28244H111.336V0.0323486H119.941V8.9187H119.938Z" fill="#FFAF12"/>
<path d="M12.8881 26.0538C9.34849 26.0538 6.28554 24.7741 3.77908 22.2471C1.27034 19.72 0 16.62 0 13.035C0 9.44998 1.26577 6.35465 3.75855 3.8322C6.25361 1.31205 9.30743 0.0346491 12.8356 0.0346491H13.5746V3.24085L12.8402 3.24778C10.1855 3.26857 7.88657 4.24337 6.00274 6.14445C4.12346 8.04322 3.17014 10.3624 3.17014 13.035C3.17014 15.7076 4.12802 18.0614 6.0187 19.9579C7.90938 21.859 10.222 22.8222 12.8858 22.8222C15.5496 22.8222 17.8098 21.859 19.7005 19.9579C21.5912 18.0614 22.549 15.7423 22.549 13.0697V0H25.7557V13.0697C25.7557 16.6339 24.4785 19.72 21.9606 22.2471C19.4428 24.7718 16.3889 26.0515 12.8858 26.0515L12.8881 26.0538ZM12.9588 15.1856C12.3544 15.1856 11.8321 14.9684 11.4079 14.5365C10.9837 14.1068 10.7693 13.5894 10.7693 13.0004C10.7693 12.3836 10.9951 11.85 11.4376 11.4204C11.8732 10.9976 12.3841 10.7828 12.9611 10.7828C13.5381 10.7828 14.0695 10.9999 14.4983 11.425C14.9316 11.8569 15.1505 12.3859 15.1505 13.0004C15.1505 13.6148 14.9316 14.1114 14.496 14.5411C14.0672 14.9684 13.5495 15.1833 12.9588 15.1833V15.1856Z" fill="white"/>
<path d="M37.4692 26.4327L34.7894 24.6217L34.9377 24.4138L38.386 19.5514C38.0189 19.6045 37.6631 19.6299 37.3232 19.6299C34.7005 19.6299 32.413 18.6644 30.52 16.761C28.627 14.8553 27.6669 12.543 27.6669 9.88426C27.6669 7.22552 28.627 4.83935 30.5177 2.9221C32.4107 1.00715 34.7233 0.034668 37.3917 0.034668C40.0601 0.034668 42.3362 1.00022 44.2291 2.90362C46.1221 4.80932 47.0823 7.12157 47.0823 9.78032C47.0823 11.06 46.8793 12.2242 46.4756 13.2429C46.1335 14.1346 45.5428 15.1787 44.7172 16.3475H48.291V19.6299H42.3293L37.4669 26.4327H37.4692ZM37.3917 3.31941C35.574 3.31941 34.0733 3.95002 32.803 5.25052C31.5281 6.55102 30.9077 8.0802 30.9077 9.92122C30.9077 11.6652 31.5372 13.1459 32.8326 14.4464C34.128 15.7492 35.6082 16.3821 37.3575 16.3821C39.1067 16.3821 40.6485 15.7492 41.9325 14.4487C43.2165 13.1482 43.8414 11.6444 43.8414 9.84962C43.8414 8.05479 43.2188 6.52561 41.9348 5.23666C40.6508 3.9454 39.1638 3.31941 37.3917 3.31941Z" fill="white"/>
<path d="M54.8411 19.6299H46.7448V16.3475H54.8411V19.6299Z" fill="white"/>
<path d="M58.8802 19.6299H50.7838V16.3475H58.8802V19.6299Z" fill="white"/>
<path d="M65.4303 19.6299H57.3339V16.3475H65.4303V19.6299Z" fill="white"/>
<path d="M71.1001 19.6299H63.884V16.3475H71.9804L71.1001 19.6299Z" fill="white"/>
<path d="M78.3207 19.6299H77.5817C76.2589 19.6299 75.1824 19.2649 74.3774 18.5419C73.554 19.2626 72.4753 19.6299 71.173 19.6299H70.4341V16.3475H71.173C72.0009 16.3475 72.7649 16.0818 72.7649 14.1553V7.67133H75.9898V14.1553C75.9898 16.0818 76.7561 16.3475 77.584 16.3475H78.3229V19.6299H78.3207Z" fill="white"/>
<path d="M74.3592 4.98488C73.8301 4.98488 73.3762 4.79547 73.0044 4.41895C72.635 4.04473 72.4457 3.60123 72.4457 3.09997C72.4457 2.56175 72.6418 2.09745 73.0273 1.72093C73.4081 1.34903 73.8574 1.16193 74.3569 1.16193C74.8564 1.16193 75.3239 1.35134 75.6934 1.72786C76.0651 2.10438 76.2521 2.56406 76.2521 3.09997C76.2521 3.59892 76.0651 4.04473 75.6934 4.41895C75.3239 4.79316 74.8746 4.98488 74.3569 4.98488H74.3592Z" fill="white"/>
<path d="M119.938 9.84726C119.938 13.1436 118.622 15.7977 116.025 17.7334C115.039 18.4772 113.979 18.9923 112.871 19.258C111.837 19.5074 110.357 19.6299 108.346 19.6299H100.051C97.8592 19.6299 96.3471 18.6297 95.6469 16.7332C95.3025 17.0797 94.9239 17.4123 94.5202 17.7265C93.5418 18.4772 92.4836 18.9923 91.3752 19.2603C90.342 19.5098 88.8505 19.6322 86.8138 19.6322H77.625V16.3498H81.5843C81.3129 16.0726 81.0779 15.8 80.8818 15.5343C79.6822 13.7996 79.0755 11.88 79.0755 9.81954C79.0755 6.50016 80.3937 3.84834 82.9914 1.9334C84.6905 0.67679 86.6223 0.0392456 88.7319 0.0392456C92.032 0.0392456 94.6753 1.39749 96.5888 4.07703C97.8272 5.79793 98.4567 7.75215 98.4567 9.88884V14.1599C98.4567 16.0864 99.223 16.3521 100.051 16.3521H103.098C102.826 16.0772 102.592 15.8023 102.395 15.5367C101.196 13.8019 100.589 11.8823 100.589 9.82185C100.589 6.50247 101.907 3.85065 104.505 1.93571C106.204 0.6791 108.136 0.0415555 110.246 0.0415555H110.387V3.28934H110.246C108.816 3.28934 107.525 3.72129 106.405 4.57366C104.66 5.87416 103.814 7.61355 103.814 9.89115C103.814 11.2748 104.215 12.5407 105.007 13.654C106.309 15.4697 108.024 16.3521 110.248 16.3521C111.637 16.3521 112.923 15.9293 114.066 15.0931C115.835 13.7973 116.698 12.0833 116.698 9.85419M88.7342 3.28703C87.3042 3.28703 86.0133 3.71898 84.8935 4.57135C83.1374 5.87185 82.2867 7.61124 82.2867 9.88884C82.2867 11.2725 82.6927 12.536 83.4932 13.6471C84.7977 15.465 86.5128 16.3498 88.7365 16.3498C90.1254 16.3498 91.4117 15.927 92.5543 15.0908C94.3241 13.795 95.1839 12.081 95.1839 9.85188C95.1839 8.42434 94.7666 7.12384 93.9455 5.98966C92.6204 4.16942 90.9145 3.28472 88.7365 3.28472L88.7342 3.28703Z" fill="white"/>
<path d="M35.1179 24.1597L33.4097 26.4327H37.4693L35.1179 24.1597Z" fill="white"/>
</g>
<defs>
<clipPath id="clip0_1_1114">
<rect width="120" height="45" fill="white"/>
</clipPath>
</defs>
</svg>
