<svg width="118" height="118" viewBox="0 0 118 118" fill="none" xmlns="http://www.w3.org/2000/svg">
<g opacity="0.9">
<mask id="mask0_1_1451" style="mask-type:alpha" maskUnits="userSpaceOnUse" x="0" y="0" width="118" height="118">
<circle cx="59" cy="59" r="59" fill="white"/>
</mask>
<g mask="url(#mask0_1_1451)">
<path d="M-203 84.001V214H-182.801H204V81C167.643 81 183.801 110 159.563 110C126.207 110 135.325 81 107.047 81C74.7295 81 84.4248 111 58.5707 111C32.7166 111 37.3623 81 7.06451 81C-28.2829 82.999 -16.1638 110 -45.4516 110C-74.7395 110 -73.3256 84.001 -99.9876 84.001C-126.65 84.001 -127.256 108 -152.504 108C-174.722 108 -180.782 84.001 -203 84.001Z" fill="url(#paint0_linear_1_1451)"/>
<path d="M-121 83.001V213H-100.801H286V80C249.643 80 265.801 109 241.563 109C208.207 109 217.325 80 189.047 80C156.73 80 166.425 110 140.571 110C114.717 110 119.362 80 89.0645 80C53.7171 81.999 65.8362 109 36.5484 109C7.26054 109 8.67444 83.001 -17.9876 83.001C-44.6496 83.001 -45.2556 107 -70.5037 107C-92.7221 107 -98.7816 83.001 -121 83.001Z" fill="url(#paint1_linear_1_1451)"/>
</g>
</g>
<defs>
<linearGradient id="paint0_linear_1_1451" x1="-84" y1="81" x2="29.5" y2="81" gradientUnits="userSpaceOnUse">
<stop offset="0.254808" stop-color="#FFAF12"/>
<stop offset="0.745192" stop-color="#5FAD7E"/>
</linearGradient>
<linearGradient id="paint1_linear_1_1451" x1="82.5" y1="213" x2="82.5" y2="80" gradientUnits="userSpaceOnUse">
<stop offset="0.336538" stop-color="#0D7A5E"/>
<stop offset="0.745192" stop-color="#0C382C"/>
</linearGradient>
</defs>
</svg>
