<svg width="63" height="61" viewBox="0 0 63 61" fill="none" xmlns="http://www.w3.org/2000/svg">
<path d="M14.266 0.244995C14.966 0.244995 15.586 0.684996 15.806 1.355C16.976 4.885 21.626 15.715 21.266 16.885C20.826 18.285 15.486 22.375 15.276 24.365C15.066 26.355 19.036 31.905 23.206 36.265C28.866 42.185 37.826 46.075 38.556 46.385C39.286 46.695 44.846 38.495 46.006 37.985C47.166 37.475 61.946 45.445 61.946 46.805C61.946 48.165 60.786 52.845 58.066 56.555C56.166 59.145 51.986 60.275 48.876 60.685C48.806 60.685 48.726 60.685 48.656 60.685C46.306 60.305 30.076 58.465 16.116 44.705C4.76598 33.515 1.35596 20.775 0.28596 15.705C0.26596 15.635 0.265992 15.565 0.255992 15.495C0.195992 13.795 0.255958 8.755 3.84596 4.335C5.23596 2.625 7.65597 1.01499 8.54597 0.454994C8.76597 0.314994 9.006 0.244995 9.266 0.244995H14.276H14.266Z" fill="white" stroke="#074102" stroke-width="0.49" stroke-miterlimit="10"/>
</svg>
